<?xml version="1.0" encoding="UTF-8"?> <svg xmlns="http://www.w3.org/2000/svg" viewBox="0 0 300 300"><defs><style>.cls-1{fill:#231f20;}</style></defs><title>candle</title><g id="Layer_1" data-name="Layer 1"><path class="cls-1" d="M231,77.43H69a5.93,5.93,0,0,0-6,5.87L76.7,289.8a5.93,5.93,0,0,0,6,5.87H217.34a5.93,5.93,0,0,0,6-5.87L236.93,83.3A5.93,5.93,0,0,0,231,77.43ZM151.48,243.18c-28.51.65-52.28-27.94-53.1-63.87s21.63-65.57,50.14-66.22S200.8,141,201.62,177,180,242.54,151.48,243.18Z"></path><path class="cls-1" d="M193.42,202.26s-30-25.17-33.64-27.16S150.1,165,142,172.4s-35.42,30-35.42,30S121,239.17,150,238.46C182.67,237.66,193.42,202.26,193.42,202.26Z"></path><path class="cls-1" d="M167.73,49.11c0,18-12.06,20.56-17.73,20.56s-17.73-2.61-17.73-20.56S150,4.66,150,4.66,167.73,31.15,167.73,49.11Z"></path></g></svg> 