<svg id="Layer_1" data-name="Layer 1" xmlns="http://www.w3.org/2000/svg" xmlns:xlink="http://www.w3.org/1999/xlink" viewBox="0 0 32 32"><defs><style>.cls-1{fill:none;}.cls-2{fill:#fff;}.cls-3{clip-path:url(#clip-path);}</style><clipPath id="clip-path"><rect class="cls-1" x="2.51" y="10.44" width="27.46" height="20.83"/></clipPath></defs><title>FAQ icon</title><rect x="0.82" y="0.74" width="30.52" height="30.52"/><rect class="cls-2" x="11.01" y="4.6" width="9.98" height="1.05"/><g class="cls-3"><path class="cls-2" d="M4.87,31.22q1.29-2.91,2.57-5.83a1.7,1.7,0,0,1,.82-.87c1.22-.62,2.43-1.26,3.64-1.9a.48.48,0,0,1,.56,0,6.17,6.17,0,0,0,7.3,0,.51.51,0,0,1,.62,0c1.21.64,2.43,1.28,3.66,1.91a1.48,1.48,0,0,1,.73.77c.82,1.85,1.64,3.69,2.45,5.54A1.28,1.28,0,0,1,26,32.75H6.23a1.33,1.33,0,0,1-1.36-1Z"/><path class="cls-2" d="M21.17,16a6.45,6.45,0,0,1-1.51,4.56,4.55,4.55,0,0,1-7.12,0,6.52,6.52,0,0,1-1.46-4.67,8.3,8.3,0,0,1,.46-2.51,4.13,4.13,0,0,1,3.53-2.81,6.47,6.47,0,0,1,3.06.23,4.1,4.1,0,0,1,2.73,3.11c.18.7.25,1.42.36,2.13Z"/></g></svg>