<svg id="Layer_1" data-name="Layer 1" xmlns="http://www.w3.org/2000/svg" viewBox="0 0 32 32"><title>FAQ icon</title><rect x="12.47" y="11.85" width="1.11" height="2.68" transform="translate(-0.03 0.03) rotate(-0.12)"/><rect x="12.45" y="7.12" width="1.13" height="2.68" transform="translate(-0.02 0.03) rotate(-0.12)"/><path d="M7.54,9.77a2.47,2.47,0,0,1,0,2.23,2.65,2.65,0,0,1-2,1.37l-.34,0v3.07a1.87,1.87,0,0,1,1.15.43V16.7c0-.65,0-1.31,0-2a.49.49,0,0,1,.32-.5,3.64,3.64,0,0,0,2.28-3.41A3.72,3.72,0,0,0,6.64,7.42.53.53,0,0,1,6.33,7c0-.75,0-1.51,0-2.27V3.91h6.11V5.13h1.15V3.89l16.59,0,0,.24s0,.1,0,.15v.88c0,.59,0,1.18,0,1.76a.47.47,0,0,1-.33.49,3.7,3.7,0,0,0,0,6.83.5.5,0,0,1,.3.38c0,.8,0,1.59,0,2.39v.74l-16.61,0V16.51H12.46v1.24H9.65a1.79,1.79,0,0,1,.12.61,1.74,1.74,0,0,1-.11.56l21.69,0V13.38l-.1,0-.44-.08a2.53,2.53,0,0,1,0-5l.51-.09h0V2.69l-26.16,0V8.26A2.65,2.65,0,0,1,7.54,9.77Z"/><path d="M26.14,12.62H2a1.3,1.3,0,0,0-1.3,1.3v1.93h0v7.58H27.43V13.91A1.29,1.29,0,0,0,26.14,12.62ZM7.86,20.29a1.92,1.92,0,0,1-1.34-.55,1.91,1.91,0,1,1,0-2.71,1.91,1.91,0,1,1,1.34,3.26Z"/><path d="M.65,25.76V28a1.29,1.29,0,0,0,1.29,1.29h24.2A1.29,1.29,0,0,0,27.43,28V25.76Z"/></svg>