<svg id="Layer_1" data-name="Layer 1" xmlns="http://www.w3.org/2000/svg" viewBox="0 0 32 32"><title>FAQ icon</title><path d="M16.34,1.45V5.32H11.91V1.45H.73V28.23H17.84a8.05,8.05,0,0,1-1.41-4.57,8.13,8.13,0,0,1,8.13-8.12,8,8,0,0,1,3,.57V1.45ZM7.24,21c.3-.54.61-1.07.93-1.6a.22.22,0,0,1,.39,0c.31.52.62,1.05.92,1.59a.22.22,0,0,1-.21.34H8.89v3.2H7.83v-.37h0c0-.85,0-1.69,0-2.54v-.29H7.45A.22.22,0,0,1,7.24,21ZM3.7,21c.3-.54.6-1.07.92-1.6a.22.22,0,0,1,.39,0c.31.52.62,1.05.92,1.59.1.17,0,.33-.21.34H5.35v2.82h0v.36H4.28v-3.2H3.9A.22.22,0,0,1,3.7,21Zm6.23,5H3.18v-.6H9.93Z"/><path d="M24.56,16.72a6.95,6.95,0,1,0,7,6.94A7,7,0,0,0,24.56,16.72Zm3,7.67a2.73,2.73,0,0,1-2.27,1.74c-.31,0-.63,0-.95,0H24.3v.11c0,.21,0,.38,0,.54s-.25.44-.5.3c-.78-.43-1.54-.87-2.3-1.33a.3.3,0,0,1,0-.55c.76-.46,1.53-.9,2.3-1.33.25-.14.47,0,.5.3a2.26,2.26,0,0,1,0,.26c0,.07,0,.15,0,.27v.13a4.9,4.9,0,0,0,.94,0,1.48,1.48,0,0,0,1.22-1.42,3.77,3.77,0,0,0,0-.75,1.5,1.5,0,0,0-1.37-1.19H22.16V20.17h1.13c.58,0,1.16,0,1.74,0a2.79,2.79,0,0,1,2.67,2.18A3.39,3.39,0,0,1,27.57,24.39Z"/></svg>