<svg id="Layer_1" data-name="Layer 1" xmlns="http://www.w3.org/2000/svg" viewBox="0 0 32 32"><title>FAQ icon</title><path d="M30.49,18.76V14.91h0v-.24h0a1.84,1.84,0,0,0-1.81-1.72L26,12.66a.45.45,0,0,1-.4-.27c-.69-1.26-1.4-2.51-2.08-3.77a1,1,0,0,0-.95-.57q-8.85,0-17.7,0H1.34v10.7h0v0H.53v2.82h.72l.2,0c.85,0,1.71,0,2.57,0a.31.31,0,0,1,.37.25,3,3,0,0,0,5.78,0c.06-.17.12-.24.32-.24H22.86l.09.26a3,3,0,0,0,5.78,0,.33.33,0,0,1,.4-.28q.78,0,1.56,0h.78V18.76ZM7.28,22.56a1.66,1.66,0,1,1,1.65-1.67A1.64,1.64,0,0,1,7.28,22.56ZM23.64,12.37H19.76a5,5,0,0,1-.55,0,.49.49,0,0,1-.5-.49c0-.79,0-1.59,0-2.42,1.2,0,2.36,0,3.53,0a.36.36,0,0,1,.24.17l.95,1.68c.19.33.38.66.6,1.06Zm2.22,10.19a1.66,1.66,0,0,1,0-3.32,1.66,1.66,0,1,1,0,3.32Z"/></svg>