<?xml version="1.0" encoding="UTF-8"?> <svg xmlns="http://www.w3.org/2000/svg" viewBox="0 0 91.83 70"><defs><style>.cls-1{fill:#231f20;}</style></defs><title>gel scrub</title><g id="Layer_1" data-name="Layer 1"><path class="cls-1" d="M53,43.86s-5.15-4.32-5.77-4.66-1.66-1.73-3-.46-6.07,5.14-6.07,5.14,2.47,6.31,7.44,6.18C51.15,49.93,53,43.86,53,43.86Z"></path><rect class="cls-1" x="0.51" y="13.77" width="27.8" height="11.64" rx="0.28"></rect><rect class="cls-1" x="63.46" y="50.94" width="27.8" height="11.64" rx="0.28"></rect><path class="cls-1" d="M27.78,27H1.05a.54.54,0,0,0-.54.54V69a.54.54,0,0,0,.54.54H27.78a.54.54,0,0,0,.54-.54V27.57A.54.54,0,0,0,27.78,27ZM14.67,57.73c-4.89.11-9-4.8-9.11-11s3.71-11.24,8.6-11.35,9,4.79,9.11,10.95S19.56,57.61,14.67,57.73Z"></path><path class="cls-1" d="M21.86,50.71s-5.15-4.32-5.77-4.66-1.66-1.73-3.05-.46S7,50.73,7,50.73,9.44,57,14.42,56.92C20,56.78,21.86,50.71,21.86,50.71Z"></path><path class="cls-1" d="M59,12.09c.78-.77,1.15-2.29-.19-5.22C57,2.91,51,0,51.66.56c1.43,1.33-.38,4-5.14,4.8A40.64,40.64,0,0,0,41,6.24c-5.79,1.66-7.63,4.44-8.22,5.85ZM56.7,9.53l.17.47-1,.37-.17-.48ZM54.06,5.81l.93.62-.29.42-.92-.62ZM53,3.07l.4.3-.66.9L52.35,4Zm-.85,5.55.46.2-.45,1-.46-.2Zm-2.6-2.1.82.75-.34.37-.82-.75Zm-.56,3,.36,1-.48.17-.36-1.06ZM41.86,9l.82.75-.34.38-.82-.75Z"></path><path class="cls-1" d="M58.92,20.18H32.19a.54.54,0,0,0-.54.54V62.13a.54.54,0,0,0,.54.54H58.92a.54.54,0,0,0,.53-.54V20.72A.54.54,0,0,0,58.92,20.18ZM45.81,50.87c-4.89.12-9-4.79-9.11-10.95s3.71-11.24,8.6-11.35,9,4.79,9.11,11S50.7,50.76,45.81,50.87Z"></path><path class="cls-1" d="M32.27,17.77h.22v1.82H58.73V17.77h.21a.51.51,0,0,0,.51-.5v-.81a.51.51,0,0,0-.51-.5h-.21v-.38h.21a.51.51,0,0,0,.51-.5v-.81a.51.51,0,0,0-.51-.5h-.21V12.38h-.07l0,0h-26v0h-.17v1.39h-.22a.5.5,0,0,0-.5.5v.81a.5.5,0,0,0,.5.5h.22V16h-.22a.5.5,0,0,0-.5.5v.81A.5.5,0,0,0,32.27,17.77Z"></path></g></svg> 