<svg id="Layer_1" data-name="Layer 1" xmlns="http://www.w3.org/2000/svg" viewBox="0 0 32.25 20"><defs><style>.cls-1{fill:#ec2026;}.cls-2{fill:#f16a21;}.cls-3{fill:#f89e1d;}</style></defs><title>mastercard</title><g id="_Group_" data-name="&lt;Group&gt;"><path id="_Path_" data-name="&lt;Path&gt;" class="cls-1" d="M12.44,10A9.48,9.48,0,0,1,16,2.55a9.5,9.5,0,1,0,0,14.9A9.48,9.48,0,0,1,12.44,10"/><path id="_Path_2" data-name="&lt;Path&gt;" class="cls-2" d="M12.44,10A9.48,9.48,0,0,0,16,17.45a9.49,9.49,0,0,0,0-14.9A9.48,9.48,0,0,0,12.44,10"/><path id="_Compound_Path_" data-name="&lt;Compound Path&gt;" class="cls-3" d="M30.79,15.14v-.28h-.11v-.08H31v.08h-.11v.28Zm.6,0v-.25l-.08.21h-.09l-.08-.21v.25h-.08v-.35h.12l.09.23.09-.23h.12v.35Z"/><path id="_Path_3" data-name="&lt;Path&gt;" class="cls-3" d="M21.94.5A9.46,9.46,0,0,0,16,2.55a9.49,9.49,0,0,1,0,14.9A9.5,9.5,0,1,0,21.94.5"/></g></svg>