<svg id="Layer_1" data-name="Layer 1" xmlns="http://www.w3.org/2000/svg" xmlns:xlink="http://www.w3.org/1999/xlink" viewBox="0 0 72.25 20"><defs><style>.cls-1,.cls-2,.cls-3{fill:none;}.cls-2{clip-rule:evenodd;}.cls-3{fill-rule:evenodd;}.cls-4{clip-path:url(#clip-path);}.cls-5{fill:#253b80;}.cls-6{fill:#179bd7;}.cls-7{fill:#222d65;}.cls-8{clip-path:url(#clip-path-4);}</style><clipPath id="clip-path"><rect id="_Clipping_Path_" data-name="&lt;Clipping Path&gt;" class="cls-1" x="0.55" y="0.5" width="71.39" height="19"/></clipPath><clipPath id="clip-path-4"><polyline id="_Clipping_Path_4" data-name="&lt;Clipping Path&gt;" class="cls-2" points="71.95 0.5 71.95 19.5 0.55 19.5 0.55 0.5"/></clipPath></defs><title>paypal</title><g id="_Group_" data-name="&lt;Group&gt;"><g id="_Group_6" data-name="&lt;Group&gt;"><g id="_Group_7" data-name="&lt;Group&gt;"><g id="_Group_8" data-name="&lt;Group&gt;"><g id="_Group_9" data-name="&lt;Group&gt;"><path id="_Compound_Path_" data-name="&lt;Compound Path&gt;" class="cls-5" d="M27.61,8.07c-.22,1.41-1.29,1.41-2.34,1.41h-.59l.42-2.64a.33.33,0,0,1,.32-.28h.27c.71,0,1.38,0,1.73.41A1.31,1.31,0,0,1,27.61,8.07Zm-.45-3.69H23.22a.55.55,0,0,0-.54.46l-1.59,10.1a.33.33,0,0,0,.32.38h1.88a.55.55,0,0,0,.54-.46l.43-2.72a.55.55,0,0,1,.54-.46H26c2.59,0,4.09-1.26,4.48-3.74A3,3,0,0,0,30,5.39,3.65,3.65,0,0,0,27.16,4.39Z"/><path id="_Compound_Path_2" data-name="&lt;Compound Path&gt;" class="cls-5" d="M36.3,11.7a2.1,2.1,0,0,1-2.13,1.8,1.46,1.46,0,0,1-1.56-1.83,2.11,2.11,0,0,1,2.11-1.81,1.59,1.59,0,0,1,1.26.51A1.63,1.63,0,0,1,36.3,11.7ZM38.93,8H37a.33.33,0,0,0-.32.28l-.08.53-.13-.19a2.68,2.68,0,0,0-2.23-.79,4.34,4.34,0,0,0-4.21,3.79,3.56,3.56,0,0,0,.7,2.9,3,3,0,0,0,2.37,1,3.61,3.61,0,0,0,2.61-1.08l-.08.52a.33.33,0,0,0,.32.38h1.7a.55.55,0,0,0,.54-.46l1-6.45A.33.33,0,0,0,38.93,8Z"/><path id="_Path_" data-name="&lt;Path&gt;" class="cls-5" d="M49,8H47.08a.55.55,0,0,0-.45.24L44,12.12,42.9,8.42A.55.55,0,0,0,42.38,8H40.52a.33.33,0,0,0-.31.43l2.09,6.12-2,2.77a.33.33,0,0,0,.27.52h1.89a.55.55,0,0,0,.45-.23l6.3-9.1A.33.33,0,0,0,49,8Z"/><path id="_Compound_Path_3" data-name="&lt;Compound Path&gt;" class="cls-6" d="M55.7,8.07c-.21,1.41-1.29,1.41-2.34,1.41h-.59l.42-2.64a.33.33,0,0,1,.32-.28h.27c.71,0,1.38,0,1.73.41A1.31,1.31,0,0,1,55.7,8.07Zm-.45-3.69H51.31a.55.55,0,0,0-.54.46l-1.59,10.1a.33.33,0,0,0,.32.38h2A.38.38,0,0,0,51.9,15l.45-2.86a.55.55,0,0,1,.54-.46h1.25c2.59,0,4.09-1.26,4.48-3.74a3,3,0,0,0-.5-2.54A3.65,3.65,0,0,0,55.25,4.39Z"/><path id="_Compound_Path_4" data-name="&lt;Compound Path&gt;" class="cls-6" d="M64.39,11.7a2.1,2.1,0,0,1-2.13,1.8,1.46,1.46,0,0,1-1.56-1.83,2.11,2.11,0,0,1,2.11-1.81,1.59,1.59,0,0,1,1.26.51A1.62,1.62,0,0,1,64.39,11.7ZM67,8H65.13a.33.33,0,0,0-.32.28l-.08.53-.13-.19a2.68,2.68,0,0,0-2.23-.79,4.34,4.34,0,0,0-4.21,3.79,3.56,3.56,0,0,0,.7,2.9,3,3,0,0,0,2.37,1,3.61,3.61,0,0,0,2.61-1.08l-.08.52a.33.33,0,0,0,.32.38h1.7a.55.55,0,0,0,.54-.46l1-6.45A.33.33,0,0,0,67,8Z"/><path id="_Path_2" data-name="&lt;Path&gt;" class="cls-6" d="M69.24,4.66,67.62,14.94a.33.33,0,0,0,.32.38h1.62a.55.55,0,0,0,.54-.46L71.7,4.76a.33.33,0,0,0-.32-.38H69.56A.33.33,0,0,0,69.24,4.66Z"/><path id="_Path_3" data-name="&lt;Path&gt;" class="cls-5" d="M4.74,17.29,5,15.37l-.67,0H1.16L3.39,1.24a.19.19,0,0,1,.06-.11.18.18,0,0,1,.12,0H9c1.79,0,3,.37,3.68,1.11a2.53,2.53,0,0,1,.59,1.1,4,4,0,0,1,0,1.52v.43l.3.17a2.13,2.13,0,0,1,.61.47A2.18,2.18,0,0,1,14.65,7a4.72,4.72,0,0,1-.07,1.62,5.7,5.7,0,0,1-.66,1.83,3.77,3.77,0,0,1-1.05,1.15,4.26,4.26,0,0,1-1.42.64,7.06,7.06,0,0,1-1.77.2H9.26A1.26,1.26,0,0,0,8,13.53l0,.17-.53,3.37,0,.12a.11.11,0,0,1,0,.07l-.06,0Z"/><path id="_Path_4" data-name="&lt;Path&gt;" class="cls-6" d="M13.82,4.91q0,.15-.06.32c-.71,3.66-3.15,4.92-6.26,4.92H5.92a.77.77,0,0,0-.76.65l-.81,5.14-.23,1.46a.41.41,0,0,0,.4.47H7.33A.68.68,0,0,0,8,17.3l0-.14.53-3.36,0-.18A.68.68,0,0,1,9.26,13h.42c2.72,0,4.85-1.11,5.48-4.3a3.67,3.67,0,0,0-.56-3.24A2.69,2.69,0,0,0,13.82,4.91Z"/><path id="_Path_5" data-name="&lt;Path&gt;" class="cls-7" d="M13.08,4.62l-.34-.09-.36-.07a8.8,8.8,0,0,0-1.4-.1H6.76a.67.67,0,0,0-.67.57l-.9,5.7,0,.17a.77.77,0,0,1,.76-.65H7.51c3.11,0,5.55-1.26,6.26-4.92,0-.11,0-.21.06-.32a3.79,3.79,0,0,0-.59-.25Z"/><path id="_Path_6" data-name="&lt;Path&gt;" class="cls-5" d="M6.09,4.93a.68.68,0,0,1,.67-.57H11a8.8,8.8,0,0,1,1.4.1l.36.07.34.09.16,0a3.85,3.85,0,0,1,.59.25,3.45,3.45,0,0,0-.73-3.1C12.29.89,10.83.5,9,.5H3.57a.77.77,0,0,0-.76.65L.56,15.41a.46.46,0,0,0,.46.54H4.35l.84-5.31Z"/></g></g></g></g></g></svg>