<svg id="Layer_1" data-name="Layer 1" xmlns="http://www.w3.org/2000/svg" viewBox="0 0 65 20"><defs><style>.cls-1{fill:#00589f;}.cls-2{fill:#f9a51a;}</style></defs><title>visa</title><g id="_Group_" data-name="&lt;Group&gt;"><polygon id="_Path_" data-name="&lt;Path&gt;" class="cls-1" points="23.35 19.23 26.48 0.82 31.5 0.82 28.36 19.23 23.35 19.23 23.35 19.23"/><path id="_Path_2" data-name="&lt;Path&gt;" class="cls-1" d="M46.56,1.27A13,13,0,0,0,42.06.5c-5,0-8.45,2.5-8.48,6.07,0,2.64,2.49,4.12,4.4,5s2.61,1.48,2.6,2.28c0,1.23-1.56,1.8-3,1.8a10.52,10.52,0,0,1-4.72-1l-.65-.29-.7,4.12a15.89,15.89,0,0,0,5.59,1c5.27,0,8.7-2.47,8.74-6.29,0-2.09-1.32-3.69-4.21-5-1.75-.85-2.83-1.42-2.82-2.28s.91-1.58,2.87-1.58a9.25,9.25,0,0,1,3.76.71l.45.21.68-4"/><path id="_Compound_Path_" data-name="&lt;Compound Path&gt;" class="cls-1" d="M59.42.84H55.55a2.5,2.5,0,0,0-2.63,1.53L45.47,19.23h5.27s.86-2.27,1.06-2.77h6.43c.15.64.61,2.76.61,2.76h4.66L59.42.84M53.24,12.7l2-5.15s.41-1.07.67-1.76l.34,1.59L57.4,12.7Z"/><path id="_Path_3" data-name="&lt;Path&gt;" class="cls-1" d="M19.14.83,14.23,13.39l-.52-2.55A14.36,14.36,0,0,0,6.75,3.11l4.49,16.1h5.31L24.45.83H19.14"/><path id="_Path_4" data-name="&lt;Path&gt;" class="cls-2" d="M9.67.82H1.58l-.06.38C7.81,2.73,12,6.41,13.7,10.83L11.94,2.38A2.1,2.1,0,0,0,9.67.82"/></g></svg>