<?xml version="1.0" standalone="no"?>
<!DOCTYPE svg PUBLIC "-//W3C//DTD SVG 1.1//EN" "http://www.w3.org/Graphics/SVG/1.1/DTD/svg11.dtd" >
<svg xmlns="http://www.w3.org/2000/svg" xmlns:xlink="http://www.w3.org/1999/xlink" version="1.1">
<metadata></metadata>
<defs>
<font id="dtlalbertinastmediumregular" horiz-adv-x="1024" >
<font-face units-per-em="2048" ascent="1638" descent="-410" />
<missing-glyph horiz-adv-x="409" />
<glyph unicode="&#xd;" horiz-adv-x="409" />
<glyph unicode=" "  horiz-adv-x="409" />
<glyph unicode="&#x09;" horiz-adv-x="409" />
<glyph unicode="&#xa0;" horiz-adv-x="409" />
<glyph unicode="!" horiz-adv-x="532" d="M141 98q0 47 36 81t89 34t89 -34t36 -81t-36 -80.5t-89 -33.5t-89 33.5t-36 80.5zM147 1362h252q-4 -53 -10 -126t-12 -154t-11.5 -167t-11.5 -167q-12 -190 -26 -398h-123q-2 68 -8.5 195t-15.5 274.5t-18 292.5t-16 250z" />
<glyph unicode="&#x22;" horiz-adv-x="753" d="M96 1354q10 6 27 14q14 6 32.5 11t47.5 5t48 -5t34 -11l28 -14l-65 -494h-88zM442 1354q10 6 27 14q14 6 32.5 11t47.5 5t48 -5t34 -11l28 -14l-65 -494h-88z" />
<glyph unicode="#" horiz-adv-x="1386" d="M45 420v112h320l55 322h-322v115l342 2l68 389h139l-67 -391h286l70 391h139l-69 -391h333v-115h-352l-57 -322h313v-112h-332l-73 -420h-136l72 420h-289l-73 -420h-140l72 420h-299zM510 539h278l54 311h-277z" />
<glyph unicode="$" horiz-adv-x="1087" d="M90 354h78q0 -74 28.5 -126t75.5 -85.5t108.5 -50t127.5 -16.5v103.5t1 143t1 144.5v106q-68 43 -134.5 87.5t-118.5 97.5t-85 118.5t-33 151.5q0 72 25.5 131.5t73.5 102.5q43 41 90 63.5t88 32.5q47 12 90 14v180h90v-176q104 -2 187 -17.5t135 -15.5h20q-2 -18 -2 -36 v-60v-61.5t2 -61.5q2 -35 4 -67h-80q0 109 -59.5 168t-181.5 63h-25v-101.5t-1 -141t-1 -143v-105.5q49 -31 94 -60q39 -25 76 -49t59 -39q82 -59 131.5 -126t49.5 -163q0 -66 -24 -129t-74 -114t-127 -86t-183 -43v-181h-88v179q-74 0 -137.5 10t-116.5 22.5t-93 22.5 t-65 10v27q0 10 1 23.5t1 23.5q-2 37 -2 77t-2 74zM342 1096q0 -78 41 -135.5t125 -110.5v91v126t-1 126t-1 91q-78 -8 -121 -63.5t-43 -124.5zM594 78q92 4 142 61t50 135q0 80 -50 132.5t-142 115.5v-444z" />
<glyph unicode="%" horiz-adv-x="1492" d="M61 1036q0 76 27 142.5t72 115.5t105.5 77t125.5 28q74 0 132.5 -28t100.5 -76t64.5 -113.5t22.5 -141.5t-26 -142.5t-71 -116.5t-104 -78.5t-129 -28.5q-72 0 -130 28.5t-100 77.5t-66 115t-24 141zM162 -33q96 131 194 262q41 55 87 118t92.5 125.5t91.5 123.5t86 117 q70 94 154.5 210.5t158.5 221.5q86 121 174 241h133q-92 -125 -184 -251q-39 -53 -82 -112.5t-87 -119t-86 -117t-79 -108.5t-79 -108.5t-86 -117t-87 -119t-82 -112.5l-184 -254h-135zM244 1034q0 -55 9 -105t26.5 -90t44 -63.5t63.5 -23.5q39 0 66.5 24.5t45 64.5t24.5 91 t7 106t-7 105.5t-23.5 88.5t-44 61.5t-68.5 23.5q-37 0 -64.5 -23.5t-45 -63.5t-25.5 -90t-8 -106zM786 319q0 76 27 141.5t72 115t105.5 78t125.5 28.5q72 0 130.5 -27.5t100.5 -76t64.5 -113.5t22.5 -141t-26 -142.5t-70 -117t-103 -79t-129 -28.5q-72 0 -130 28.5 t-100 78t-66 115t-24 140.5zM969 317q0 -55 8 -105t26.5 -90t45 -63.5t63.5 -23.5q39 0 65.5 24.5t44 64.5t24.5 91.5t7 106.5t-7 105t-23.5 88t-43 61.5t-67.5 23.5q-39 0 -65.5 -23.5t-44 -63.5t-25.5 -90t-8 -106z" />
<glyph unicode="&#x26;" horiz-adv-x="1562" d="M102 295q0 47 15.5 91t40 84t56.5 74t65 62q78 68 178 121q-49 57 -86 117q-33 51 -59.5 111.5t-26.5 115.5q0 88 45 154.5t119 107.5q55 29 115.5 42.5t131.5 13.5q160 0 244 -62.5t84 -169.5q0 -66 -39 -125t-91 -109.5t-105.5 -88t-83.5 -58.5q31 -41 61 -82 q27 -35 55.5 -74.5t55.5 -72.5q20 -29 42.5 -56.5t43.5 -52.5q23 -29 45 -55q8 12 18 29q8 14 19.5 31.5t23.5 39.5q41 78 64.5 151t23.5 132t-30.5 86t-86.5 27v65q39 -2 80 -2q35 -2 76 -2h78h76t71 2q37 0 72 2v-65q-59 0 -89 -17.5t-54 -58.5q-29 -49 -72 -148.5 t-115 -216.5q-31 -49 -61 -90l-31 -41q43 -53 76 -86t58.5 -51t44 -25.5t34.5 -7.5q29 0 56.5 16.5t50.5 36.5q25 23 45 54l49 -37q-25 -49 -64 -91t-85 -75t-98 -51.5t-105 -18.5q-31 0 -57.5 8.5t-53.5 28t-55.5 51t-65.5 80.5q-80 -68 -182.5 -111.5t-243.5 -43.5 q-82 0 -150.5 21.5t-117.5 61t-77 98t-28 130.5zM350 360q0 -51 15.5 -97t47 -79.5t79 -54t112.5 -20.5q82 0 144.5 35.5t91.5 68.5q-8 12 -26.5 37.5t-42 56.5t-49.5 65t-44 60q-23 33 -52.5 71t-54.5 72q-31 39 -59 80q-29 -20 -57.5 -51t-52 -68.5t-38 -81.5t-14.5 -94z M508 1126q0 -55 32.5 -121.5t108.5 -160.5q98 66 140 139.5t42 151.5q0 84 -50 122.5t-107 38.5q-68 0 -117 -41t-49 -129z" />
<glyph unicode="'" horiz-adv-x="407" d="M96 1354q10 6 27 14q14 6 32.5 11t47.5 5t48 -5t34 -11l28 -14l-65 -494h-88z" />
<glyph unicode="(" horiz-adv-x="608" d="M139 530q0 119 29 245t76 251t109.5 241.5t129.5 217.5l74 -51q-70 -125 -115 -248t-71.5 -241t-36.5 -227.5t-10 -205.5q0 -217 54 -436t179 -455l-72 -47q-61 88 -122.5 202.5t-110.5 241.5t-81 258.5t-32 253.5z" />
<glyph unicode=")" horiz-adv-x="608" d="M51 -375q70 125 115 248t71.5 240.5t37 227.5t10.5 206q0 217 -54.5 436t-179.5 455l72 47q61 -90 122.5 -204t111 -241t81 -258t31.5 -254q0 -119 -28.5 -244.5t-76 -250.5t-109.5 -242t-130 -217z" />
<glyph unicode="*" horiz-adv-x="856" d="M55 1155l101 141l223 -233l-37 299h168l-37 -299l223 233l101 -141l-299 -160l290 -168l-96 -135l-219 223l37 -290h-168l37 290l-219 -223l-97 135l291 168z" />
<glyph unicode="+" horiz-adv-x="1124" d="M104 414v129q74 -2 144 -2h244q0 49 -1.5 117.5t-1.5 129.5v148h136q-2 -78 -2 -150v-245h247q74 0 152 2v-129h-148q-61 0 -129.5 1t-121.5 1v-254q0 -76 2 -156h-136v158q0 66 1.5 135.5t1.5 116.5q-47 0 -113 -1t-127 -1h-148z" />
<glyph unicode="," horiz-adv-x="495" d="M68 -215q18 16 43.5 40.5t48 50.5t39 51.5t16.5 41.5q0 29 -20.5 38t-38.5 26q-23 18 -31 35.5t-8 48.5q0 47 35.5 86t107.5 39q66 0 101.5 -43.5t35.5 -106.5q0 -49 -26.5 -101t-73.5 -106q-29 -35 -59.5 -62.5t-57.5 -47.5q-31 -23 -59 -43z" />
<glyph unicode="-" horiz-adv-x="643" d="M53 393v139h537v-139h-537z" />
<glyph unicode="." horiz-adv-x="473" d="M92 113q0 55 40 95t104 40q72 0 108.5 -41t36.5 -94q0 -55 -41 -93t-104 -38q-66 0 -105 36.5t-39 94.5z" />
<glyph unicode="/" horiz-adv-x="604" d="M59 -516l365 2066h121l-365 -2066h-121z" />
<glyph unicode="0" horiz-adv-x="1236" d="M123 465q0 104 37 195.5t103.5 159t160.5 105.5t211 38q229 0 353 -125.5t124 -354.5q0 -113 -39 -205t-107.5 -158.5t-163.5 -103t-208 -36.5q-123 0 -211 38.5t-146.5 105t-86 155t-27.5 186.5zM356 465q0 -84 13.5 -155.5t44 -126t80 -85t120.5 -30.5q68 0 117 31.5 t80 87t46 131t15 161.5q0 84 -14 157t-44 126t-76 84t-111 31q-125 0 -198 -111t-73 -301z" />
<glyph unicode="1" horiz-adv-x="753" d="M102 0v63q72 0 108 12.5t46 43.5q12 35 13 126t1 226v154.5t-1 106.5t-4 66.5t-9 35.5q-14 27 -47 36t-96 9v63q55 -2 106 -2q43 -2 89 -2h79h77t87 2q49 0 100 2v-63q-72 0 -107.5 -12.5t-45.5 -43.5q-4 -12 -7.5 -28.5t-5.5 -52t-2 -99v-168.5v-154.5t1 -108.5 t4.5 -68.5t9.5 -34.5q14 -27 47 -36.5t96 -9.5v-63q-55 0 -106 2q-43 0 -90.5 1t-77.5 1q-33 0 -78 -1t-86 -1q-49 -2 -101 -2z" />
<glyph unicode="2" horiz-adv-x="974" d="M72 760q37 55 92 100q47 39 121.5 71t179.5 32q143 0 228 -66t85 -188q0 -86 -57 -176.5t-135 -167.5q-41 -43 -82 -82t-74 -68q-37 -35 -74 -61q31 -2 64 -2h131h94t107 2q59 2 120 4v-158h-157q-66 0 -140.5 1t-134.5 1q-61 0 -125.5 -1t-117.5 -1q-63 -2 -121 -2 l82 74q35 33 76.5 71.5t78.5 73.5q111 111 176.5 214.5t65.5 219.5q0 92 -48 142.5t-134 50.5q-59 0 -104.5 -22.5t-78.5 -49.5q-37 -31 -65 -70z" />
<glyph unicode="3" horiz-adv-x="886" d="M53 -242q78 2 162 22.5t153.5 58.5t114.5 95.5t45 135.5q0 109 -74.5 159t-224.5 50l-20 71q78 31 141 76q53 39 97.5 97.5t44.5 144.5q0 70 -37 121t-123 51q-49 0 -88 -17.5t-68 -40.5q-33 -25 -57 -57l-56 53q33 51 87 92q45 35 112.5 64t165.5 29q135 0 213 -64.5 t78 -161.5q0 -78 -45 -140t-99 -108q-63 -53 -141 -94q90 -4 162 -37q31 -14 60.5 -35.5t52 -52t37 -73t14.5 -97.5q0 -102 -69.5 -179t-174 -129t-225.5 -78.5t-221 -28.5z" />
<glyph unicode="4" horiz-adv-x="1103" d="M2 68q180 223 330 409q63 80 126.5 158t116 143.5t89 113.5t49.5 66h108q-2 -100 -4 -198q-2 -84 -3 -175t-1 -161v-211h217v-150l-219 3v-373h-203l4 375h-610zM246 213h366v68q0 29 1 60.5t1 55.5v285z" />
<glyph unicode="5" horiz-adv-x="942" d="M121 -244q18 4 57 13.5t87 29t99.5 47t93.5 68.5t68.5 94t26.5 123t-29.5 119t-81 79.5t-118 45t-140.5 14.5l-20 45l67 508q59 -2 115 -2h191h174q49 0 100 2v-162q-49 0 -98 2q-43 0 -92.5 1t-90.5 1q-27 0 -62.5 -1t-70.5 -1h-82l-26 -229q92 0 182 -20.5t160.5 -64.5 t113.5 -113.5t43 -168.5q0 -74 -27.5 -134t-73.5 -109t-103.5 -88t-118.5 -68q-143 -68 -324 -104z" />
<glyph unicode="6" horiz-adv-x="1099" d="M133 477q0 176 66.5 330t173.5 260q80 82 173 139.5t173 91.5q94 41 186 66l27 -72q-59 -25 -119 -57q-51 -29 -110.5 -69t-106.5 -87q-57 -57 -94 -110.5t-60 -94.5q-27 -49 -41 -94q29 18 64 33q29 12 69.5 22.5t90.5 10.5q74 0 139 -21.5t114.5 -67.5t77 -118 t27.5 -172q0 -104 -31.5 -191.5t-91 -151t-143.5 -98t-189 -34.5q-86 0 -157.5 32.5t-124.5 96t-83 152.5t-30 204zM360 463q0 -387 191 -387q92 0 146.5 96t54.5 250q0 168 -56.5 244.5t-150.5 76.5q-41 0 -72 -8t-51 -18q-25 -12 -41 -27q-6 -29 -10 -63q-4 -31 -7.5 -72 t-3.5 -92z" />
<glyph unicode="7" horiz-adv-x="925" d="M49 -291q55 84 119 182q53 84 119.5 193t134.5 225q53 92 98 174t80 146q39 74 72 137h-111q-45 0 -92 1t-78 1q-33 0 -86 -1t-106 -1h-129v178q74 -2 147 -2q63 -2 133 -2h127h123t131 2q72 0 148 2q-47 -96 -105 -207q-49 -94 -114.5 -217t-141.5 -254 q-23 -39 -50.5 -86t-58 -97t-62.5 -101.5t-60 -98.5q-70 -113 -144 -229z" />
<glyph unicode="8" horiz-adv-x="1073" d="M102 285q0 74 33 133t80 107t98.5 84t89.5 63q-45 39 -88 74.5t-76.5 76.5t-55 92.5t-21.5 118.5q0 74 31.5 136.5t87 108.5t130 71.5t160.5 25.5q92 0 161 -21.5t115 -58t68.5 -86t22.5 -104.5q0 -68 -28.5 -124t-70.5 -101t-90.5 -79t-86.5 -59q70 -53 127 -97t98 -88 t62.5 -94.5t21.5 -113.5q0 -86 -39 -153.5t-103.5 -115.5t-146.5 -72.5t-170 -24.5q-68 0 -140.5 15t-132 50t-98.5 92.5t-39 143.5zM281 315q0 -66 22.5 -110.5t58 -73.5t80.5 -42t90 -13q39 0 81 12t76 37t56.5 61.5t22.5 87.5q0 57 -30.5 105.5t-75 90.5t-95.5 79t-92 67 q-37 -25 -71.5 -55.5t-62.5 -67t-44 -80.5t-16 -98zM356 1083q0 -45 25 -86t59.5 -77.5t75.5 -67.5t72 -53q31 20 61.5 46.5t55 59.5t40 76t15.5 98q0 92 -52.5 149.5t-144.5 57.5q-41 0 -77.5 -12t-65.5 -37t-46.5 -63.5t-17.5 -90.5z" />
<glyph unicode="9" horiz-adv-x="1089" d="M117 524q0 88 34.5 168t94 140.5t138.5 96.5t169 36t166 -28t131 -84t86 -143t31 -206q0 -113 -31 -211t-86 -184t-131 -157t-166 -128q-66 -41 -132.5 -70.5t-119.5 -48.5q-63 -23 -121 -35l-33 72q57 18 119 45q53 23 115.5 59.5t122.5 90.5q41 37 71.5 75.5t51.5 71.5 q23 37 37 74q-25 -10 -52 -19q-23 -6 -53.5 -11t-64.5 -5q-63 0 -130 23.5t-122.5 72.5t-90 125t-34.5 180zM342 524q0 -86 18.5 -146.5t49 -97t72.5 -54t89 -17.5q55 0 91 10q18 6 30 12q12 35 21 80q8 39 14 93t6 122q0 180 -45 264t-137 84q-94 0 -151.5 -88t-57.5 -262z " />
<glyph unicode=":" horiz-adv-x="477" d="M94 104q0 55 40 95.5t104 40.5q72 0 108.5 -41.5t36.5 -94.5q0 -55 -41 -93t-104 -38q-66 0 -105 37t-39 94zM94 827q0 53 40 93.5t104 40.5q72 0 108.5 -40.5t36.5 -93.5q0 -55 -41 -94t-104 -39q-66 0 -105 37t-39 96z" />
<glyph unicode=";" horiz-adv-x="552" d="M88 -215q18 16 44 40.5t48.5 50.5t39 51.5t16.5 41.5q0 29 -20.5 38t-39.5 26q-23 18 -31 35.5t-8 48.5q0 47 36 86t108 39q66 0 101.5 -43.5t35.5 -106.5q0 -49 -26.5 -101t-74.5 -106q-29 -35 -59.5 -62.5t-56.5 -47.5q-31 -23 -60 -43zM127 840q0 55 40 95t105 40 q72 0 109 -41t37 -94q0 -55 -42 -94t-104 -39q-66 0 -105.5 37.5t-39.5 95.5z" />
<glyph unicode="&#x3c;" horiz-adv-x="1124" d="M90 393v129q78 35 158 70q68 29 144.5 62.5t142.5 62.5q33 14 70.5 30.5t79.5 35l84 37t81 36.5q92 41 188 84v-143l-784 -338l784 -340v-146q-96 43 -188 84q-78 35 -164 74t-151 68q-66 29 -143 62.5t-144 62.5q-80 35 -158 69z" />
<glyph unicode="=" horiz-adv-x="1124" d="M90 233v129q102 -2 197 -2h284h273q90 0 192 2v-129h-186q-76 0 -154 1.5t-123 1.5q-39 0 -117.5 -1.5t-160.5 -1.5h-205zM90 594v129q102 -2 197 -2h284h273q90 0 192 2v-129h-186q-76 0 -154 1t-123 1q-39 0 -117.5 -1t-160.5 -1h-205z" />
<glyph unicode="&#x3e;" horiz-adv-x="1124" d="M88 -4v143l784 338l-784 340v146q94 -43 186 -84q78 -35 165 -75t153 -67q66 -29 142.5 -62.5t144.5 -62.5q80 -35 157 -69v-129q-78 -35 -157 -70q-68 -29 -145 -62.5t-142 -62.5q-66 -29 -153 -66.5t-165 -72.5q-92 -41 -186 -84z" />
<glyph unicode="?" horiz-adv-x="768" d="M45 1217q-10 29 6.5 59.5t53 55t89 39.5t111.5 15q70 0 140.5 -27.5t126 -77.5t90 -119.5t34.5 -153.5q0 -88 -29.5 -146.5t-72.5 -97.5t-91 -63.5t-87 -45.5q-25 -14 -42.5 -26.5t-27.5 -32.5q-14 -25 -20.5 -66t-10.5 -81q-4 -47 -2 -99h-120l-5 387q39 0 94.5 16.5 t106.5 52.5t88 93t37 141q0 66 -16.5 110t-42 71.5t-56 39t-59.5 11.5q-39 0 -63.5 -16.5t-46 -36t-47 -36t-64.5 -16.5q-23 0 -43.5 10.5t-30.5 39.5zM129 98q0 47 36 81t89 34t89 -34t36 -81t-36 -80.5t-89 -33.5t-89 33.5t-36 80.5z" />
<glyph unicode="@" horiz-adv-x="1533" d="M66 578q0 125 29.5 232.5t82.5 194.5t126 155.5t157 115.5q98 55 204.5 82.5t217.5 27.5q125 0 232.5 -30.5t186 -89t123.5 -144t45 -198.5q0 -129 -50 -230.5t-128 -175.5q-55 -53 -112.5 -92t-113.5 -63.5t-107.5 -37t-90.5 -12.5q-53 0 -53 64q0 12 1 35.5t3 46.5 q2 27 4 57q-29 -35 -62.5 -70.5t-68.5 -64.5t-69.5 -47.5t-61.5 -18.5q-57 0 -78.5 46.5t-21.5 119.5q0 57 12 116.5t34.5 115t52.5 103.5t67 85q61 61 140 98t179 37q16 0 33.5 -1t34.5 -3q18 -2 35 -4q-6 -39 -16.5 -101.5t-21 -133t-17.5 -141t-7 -126.5q0 -37 8.5 -63.5 t30.5 -26.5q43 0 90 33t86 91t64.5 140t25.5 179q0 80 -24.5 153.5t-77.5 130t-137 89t-201 32.5q-111 0 -216.5 -42t-188 -126t-133 -213t-50.5 -301q0 -248 123 -386t350 -138q88 0 169 23.5t145.5 56t110.5 67.5t69 58l49 -47q-63 -72 -147 -127q-72 -47 -178.5 -86 t-241.5 -39q-162 0 -284 49t-203 131t-120.5 189.5t-39.5 224.5zM627 592q0 -47 10 -86t39 -39q18 0 40.5 17.5t45 44t43 54t35.5 50.5l34 295h-22q-66 0 -121 -43q-35 -31 -69.5 -103.5t-34.5 -189.5z" />
<glyph unicode="A" horiz-adv-x="1492" d="M12 0v63q66 0 103 24t75 89q14 25 40 81t60 130t70.5 159t73.5 167q49 109 103.5 230.5t100.5 228t79 183.5t37 95q4 -12 23.5 -60.5t49 -118t65.5 -152.5t71.5 -167t67.5 -159.5t54 -128.5q23 -53 52.5 -123t60.5 -140.5t58.5 -131t43.5 -93.5q18 -37 35 -59.5t34 -33.5 t35.5 -15.5t43.5 -4.5v-63q-70 0 -131 2q-53 0 -102.5 1t-67.5 1q-37 0 -80 -1t-80 -1q-43 -2 -84 -2v63q63 0 101 15.5t38 54.5q0 33 -22.5 95.5t-50.5 133.5q-10 23 -22.5 53.5t-24.5 59.5q-14 35 -29 70h-420q-16 -41 -35 -80q-16 -35 -32.5 -74t-28.5 -69 q-18 -47 -35.5 -95.5t-17.5 -74.5q0 -47 42 -68t136 -21v-63h-129q-51 0 -97.5 1t-58.5 1q-25 0 -59.5 -1t-67.5 -1h-78zM506 639h350q-18 45 -47 111.5t-55.5 130t-48 111.5t-25.5 57q-4 -10 -26.5 -62.5t-51.5 -119t-56.5 -131t-39.5 -97.5z" />
<glyph unicode="B" horiz-adv-x="1220" d="M61 1296v66q43 -2 91 -2q39 -2 86 -2h92q35 0 77 1t85 2t83.5 2t71.5 1q82 0 153.5 -16.5t124 -51t82 -92t29.5 -139.5q0 -94 -37.5 -156.5t-85 -102.5t-93.5 -58.5t-60 -24.5q31 -4 92 -20.5t120.5 -53.5t104.5 -98.5t45 -157.5q0 -82 -29.5 -144.5t-76.5 -109.5 q-80 -78 -185.5 -110.5t-228.5 -32.5q-27 0 -64.5 1t-77.5 2t-78 2t-65 1q-37 0 -79.5 -1t-81.5 -1h-90v63q53 0 81.5 13.5t42.5 54.5q6 16 9.5 51t5.5 102.5t3 174t1 270.5v213t-1 146.5t-4 91t-9 51.5q-12 39 -45 52t-89 13zM436 424q0 -33 1 -72t2 -76.5t3 -69.5t7 -48 q10 -47 56 -65.5t111 -18.5q47 0 93.5 17.5t82 54t58 96t22.5 145.5q0 139 -84 209q-79 66 -215 66h-16q-29 -2 -50.5 -2.5t-37.5 -0.5q-18 0 -33 -2v-233zM436 752q8 -2 21 -2h71q59 0 108.5 12t85.5 43t55.5 82t19.5 129t-21.5 128t-56.5 77.5t-80 38t-92 10.5 q-25 0 -44.5 -1t-35.5 -1q-18 -2 -31 -2v-514z" />
<glyph unicode="C" horiz-adv-x="1320" d="M100 670q0 186 86 349t267 265q90 51 196.5 74.5t235.5 23.5q68 0 117 -2t86.5 -5t65.5 -5t50 -2h29q6 0 10 2q-2 -18 -2 -37v-59v-154q0 -37 2 -71h-74q0 135 -82.5 187t-224.5 52q-211 0 -340 -137q-72 -78 -111.5 -197.5t-39.5 -275.5q0 -141 31.5 -253t98 -188.5 t169 -117.5t245.5 -41q59 0 113.5 9t95.5 19q49 12 93 31l18 -69q-51 -25 -115 -45q-53 -16 -129 -29.5t-166 -13.5q-207 0 -345 64.5t-223 164.5t-121 222t-36 239z" />
<glyph unicode="D" horiz-adv-x="1542" d="M61 1296v66q70 -2 127 -2h160q66 0 161 2t193 2q68 0 149 -7t162 -29.5t156.5 -63.5t134 -109t93.5 -167t35 -236q0 -186 -55.5 -325.5t-153.5 -231.5q-119 -113 -263.5 -156t-320.5 -43q-27 0 -74 1t-98 3t-99.5 3t-78.5 1h-76t-72 -2q-37 -2 -73 -2v63q53 0 81.5 9.5 t43.5 48.5q4 14 7 46t5 99.5t3 178t1 284.5v214v149.5t-3 94.5t-9 52q-12 39 -46 48t-90 9zM436 475q0 -104 1 -170.5t3 -101.5t9 -51q6 -20 28.5 -31.5t55 -18t68.5 -8.5t71 -2q236 0 366.5 160t130.5 477q0 137 -31.5 233.5t-86.5 161.5q-72 82 -176.5 113t-233.5 31 q-31 0 -64.5 -1t-62.5 -3q-35 -2 -68 -2q-4 -115 -6 -215q-2 -86 -3 -175.5t-1 -138.5v-258z" />
<glyph unicode="E" horiz-adv-x="1112" d="M61 1296v66q51 -2 105 -2q45 -2 96 -2h96q55 0 127 1t147 2t149.5 3t136.5 2h38q10 0 23 2q-2 -16 -2 -31v-51v-131q0 -29 2 -51h-70q0 55 -11 88t-37.5 50.5t-67.5 21.5t-99 4q-20 0 -62 -1t-85 -3q-51 -2 -111 -2v-496q33 -2 66 -2h123q53 0 92 3t59 13 q14 10 23.5 29.5t13.5 42.5q6 25 8 55h72q-2 -35 -2 -71q-2 -31 -2 -65v-56v-59.5t2 -61.5q0 -35 2 -70h-70q0 18 -2 39q-4 16 -9 34.5t-17 33.5q-14 16 -49 26.5t-117 10.5h-193v-320q0 -78 4 -123t14.5 -69.5t26 -33.5t39.5 -13q25 -4 64 -8.5t96 -4.5q74 0 132 11.5 t97 46.5q18 16 29.5 39.5t17.5 46.5q8 25 9 51h71q-2 -31 -2 -64v-139v-55q0 -19 2 -37q-162 0 -305 2q-61 0 -123.5 1t-118 2t-101.5 1h-73q-33 0 -74.5 -1t-80.5 -1h-94v63q53 0 81.5 13.5t42.5 54.5q6 16 9.5 51t5.5 102.5t3 174t1 270.5v213t-1 146.5t-4 91t-9 51.5 q-12 39 -45 52t-89 13z" />
<glyph unicode="F" horiz-adv-x="991" d="M61 1296v66q51 -2 105 -2q45 -2 96 -2h96q160 2 297.5 4t259.5 4h39q10 0 23 2q-2 -14 -2 -29q-2 -12 -2 -25.5v-23.5v-74.5t2 -58.5q0 -29 2 -51h-70q0 55 -11 87t-36.5 47t-66.5 19.5t-99 4.5q-47 0 -93 -1t-83 -1q-43 -2 -82 -2v-523h199q53 0 87 2t54 13 q14 6 23.5 24.5t14.5 39t7 38.5t2 25h70q-2 -35 -2 -72q-2 -31 -2 -64.5v-56.5v-59.5t2 -61.5q0 -35 2 -69h-70q0 18 -2 39q-4 39 -26 67q-18 23 -62.5 31t-103.5 8h-55.5t-59.5 -1t-50.5 -1h-27.5v-234.5t2 -146.5t5 -81.5t8 -41.5q10 -37 47 -54.5t94 -17.5v-63 q-49 0 -96 2q-41 0 -87.5 1t-86.5 1q-78 0 -150 -1t-106 -3v63q53 0 81.5 13.5t42.5 54.5q6 16 9.5 51t5.5 102.5t3 174t1 270.5v213t-1 146.5t-4 91t-9 51.5q-12 39 -45 52t-89 13z" />
<glyph unicode="G" horiz-adv-x="1490" d="M100 653q0 117 28 213.5t74 173t107.5 134t130.5 98.5q115 63 237 86.5t251 23.5q49 0 98 -3t94 -6t81 -5t59 -2q10 -2 23 -1t22 1q-2 -14 -2 -27q-2 -12 -2.5 -25.5t-0.5 -23.5v-239h-73q0 70 -23.5 115.5t-66.5 73.5t-103.5 38t-132.5 10q-256 0 -395 -164 q-135 -158 -135 -436q0 -152 40 -267.5t109.5 -193t159.5 -117.5t192 -40q82 0 130.5 9t64.5 17q4 51 4 90v93q0 53 -2 102t-12 80q-12 37 -44 47t-95 10v72l86 -4q37 -2 81.5 -2h90.5h74.5t76.5 2q41 2 86 4v-72q-53 0 -76.5 -8t-33.5 -43q-6 -16 -7.5 -73.5t-1.5 -121.5 v-68.5t2 -68.5q0 -37 2 -76q-25 -6 -71.5 -19t-109 -25.5t-134.5 -22.5t-141 -10q-72 0 -143.5 9t-141.5 31.5t-136.5 60.5t-127.5 97q-86 80 -139.5 198t-53.5 275z" />
<glyph unicode="H" horiz-adv-x="1525" d="M63 1296v66q43 -2 89 -2q39 -2 86 -2h92q23 -1 50 -1h28q43 1 81 3q45 2 93 2v-66q-53 0 -84 -8t-41 -43q-6 -16 -10.5 -43.5t-6.5 -80t-3 -133.5t-1 -202q33 -2 82 -2q41 -2 105.5 -2h152.5h230q49 0 86 2v186t-2.5 129t-4.5 83.5t-8 48.5q-12 39 -44 52t-87 13v66 q45 -2 90 -2q39 -2 85 -2h91q23 -1 50 -1h28q43 1 82 3q45 2 92 2v-66q-53 0 -82.5 -8t-42.5 -43q-6 -16 -10 -45t-6 -83t-3 -141t-1 -222v-264.5t2 -184.5t5 -114.5t7 -55.5q20 -72 131 -72v-63q-47 0 -94 2q-41 0 -86 1t-86 1h-84t-80 -2q-43 -2 -86 -2v63q53 0 82 13.5 t43 54.5q6 16 9 47t5.5 90.5t3.5 156.5t1 249h-84q-41 0 -100.5 1t-137.5 1t-139.5 -1t-104.5 -1h-90v-231.5t2 -160t5 -98t8 -49.5q20 -72 131 -72v-63q-45 0 -93 2q-41 0 -86 1t-86 1h-85t-80 -2q-43 -2 -86 -2v63q53 0 81.5 13.5t42.5 54.5q6 16 9.5 51t5.5 102.5t3 174 t1 270.5v213t-1 146.5t-4 91t-9 51.5q-12 39 -44 52t-88 13z" />
<glyph unicode="I" horiz-adv-x="645" d="M63 1296v66q43 -2 89 -2q39 -2 86 -2h92q23 -1 50 -1h28q43 1 81 3q45 2 93 2v-66q-51 0 -82 -8t-43 -43q-6 -16 -10.5 -45t-6.5 -83t-3 -141t-1 -222v-264.5t2 -184.5t5 -114.5t8 -55.5q20 -72 131 -72v-63q-45 0 -93 2q-41 0 -86 1t-86 1h-85t-80 -2q-43 -2 -86 -2v63 q53 0 81.5 13.5t42.5 54.5q6 16 9.5 51t5.5 102.5t3 174t1 270.5v213t-1 146.5t-4 91t-9 51.5q-12 39 -44 52t-88 13z" />
<glyph unicode="J" horiz-adv-x="628" d="M-82 -459q43 31 80 68q33 33 67.5 76t59.5 96q31 66 47 158t24.5 205.5t10.5 245.5t2 278v221t-2 182t-6 121t-17 61q-16 31 -55 37t-86 6v66q55 -2 109 -2q45 -2 93 -2h81q26 -1 55 -1h29q45 1 84 3q45 2 88 2v-66q-59 0 -86 -10t-39 -43q-10 -25 -14.5 -76t-5.5 -116.5 t-1 -143.5v-153q0 -233 -2 -390t-16 -264q-18 -147 -78.5 -249.5t-144.5 -182.5q-45 -43 -87 -76.5t-77 -56.5q-39 -27 -76 -45z" />
<glyph unicode="K" horiz-adv-x="1351" d="M63 1296v66q43 -2 89 -2q39 -2 86 -2h92q23 -1 50 -1h28q43 1 81 3q45 2 93 2v-66q-51 0 -82 -8t-43 -43q-6 -16 -10.5 -47t-6.5 -87t-3 -147.5t-1 -230.5l84 84q35 35 72 76t63 72q98 111 152.5 176t54.5 104q0 23 -20.5 37t-85.5 14v66q43 -2 86 -2q37 -2 80 -2h84 q23 -1 50 -1h28q44 1 83 3q45 2 90 2v-66q-25 0 -79 -10t-101 -45q-51 -35 -124.5 -108.5t-159.5 -165.5q-27 -29 -55.5 -61t-53.5 -60q-29 -33 -55 -64q41 -49 84 -100q37 -43 81 -95t85 -100q98 -117 176 -210t129 -140q33 -31 80 -52.5t88 -21.5v-63q-66 0 -127 2 q-53 0 -110.5 1t-98.5 1t-86 -1t-84 -1q-45 -2 -88 -2v63q49 0 69.5 9.5t20.5 40.5q0 14 -17.5 44.5t-45 69.5t-62.5 84t-70 88q-29 37 -62.5 78t-64 78t-55.5 65.5t-35 41.5q0 -152 1 -248.5t3 -153.5t4 -85t7 -40q12 -41 46.5 -56.5t84.5 -15.5v-63q-45 0 -93 2 q-41 0 -86 1t-86 1t-85 -1t-80 -1q-43 -2 -86 -2v63q53 0 81.5 13.5t42.5 54.5q6 16 9.5 51t5.5 102.5t3 174t1 270.5v213t-1 146.5t-4 91t-9 51.5q-12 39 -44 52t-88 13z" />
<glyph unicode="L" horiz-adv-x="1073" d="M63 1296v66q43 -2 89 -2q39 -2 86 -2h92q23 -1 51 -1h28q44 1 83 3q45 2 92 2v-66q-51 0 -83 -8t-44 -43t-16.5 -164t-4.5 -327v-245.5t1 -168.5t4 -106.5t6.5 -59t9.5 -30t14 -17.5q23 -20 65 -25.5t130 -5.5q160 0 225 78q14 16 22.5 37.5t12.5 38.5q6 20 6 41h69 q-2 -31 -2 -64v-139v-55q0 -19 2 -37q-154 0 -288 2q-57 0 -116.5 1t-113 2t-97.5 1h-71q-33 0 -74.5 -1t-80.5 -1h-94v63q53 0 81.5 13.5t42.5 54.5q6 16 9.5 51t5.5 102.5t3 174t1 270.5v214t-1 145.5t-4 91t-9 51.5q-12 39 -44 52t-88 13z" />
<glyph unicode="M" horiz-adv-x="1736" d="M31 1296v66q43 -2 84 -2h153h42t44 2q23 0 47 2q47 -98 93 -197q39 -86 83 -182t82 -178q31 -66 67 -145.5t69 -147.5q37 -82 75 -160l74 156q33 66 70 141.5t67 141.5q39 84 86 183t88 185q47 100 95 201q33 -2 67 -2h135h107q23 0 37 2v-66q-61 0 -97 -18t-53 -78 q-6 -25 -10 -61.5t-5 -95t-1 -141.5v-197v-243t1 -171.5t3 -108.5t8 -57q10 -37 44 -49.5t91 -12.5v-63q-43 0 -90 2q-41 0 -88 1t-92 1q-35 0 -78 -1t-80 -1q-43 -2 -88 -2v63q47 0 76 10.5t43 41.5q12 23 16 64.5t4 109.5v436v270q-39 -78 -75 -157q-33 -68 -71 -146 t-69 -143q-41 -88 -91 -190.5t-91 -194.5q-51 -106 -98 -211q-47 98 -92 197q-39 84 -83 180t-81 178q-35 72 -74 156t-74 157q-39 86 -79 172v-295q2 -252 7 -398t13 -175q10 -37 44 -49.5t91 -12.5v-63q-31 0 -65 2q-29 0 -66 1t-72 1t-72.5 -1t-70.5 -1q-37 -2 -74 -2v63 q51 0 82 8.5t45 49.5q6 16 10.5 52t7.5 105.5t5 178t2 272.5q0 127 -1 215t-1 146v110q-10 25 -33 47q-20 18 -55 33.5t-88 15.5z" />
<glyph unicode="N" horiz-adv-x="1472" d="M31 1288v74q33 -2 69 -2h129h52.5t54.5 2q29 0 57 2l152 -180q66 -78 138.5 -165t133.5 -159q45 -53 106.5 -122.5t116.5 -135.5q66 -76 131 -156q-2 37 -2 89v251q0 117 -2 197t-5 131t-7 79t-8 40q-16 65 -135 65h-4v66q31 -2 65 -2q29 -2 65 -2h74q25 -1 50 -1h25 q38 1 71 3q37 2 74 2v-66q-51 0 -82 -8t-45 -49q-6 -16 -10.5 -52t-7.5 -104.5t-5 -177t-2 -270.5v-680q-106 127 -209 250q-43 51 -91 107.5t-94 110.5t-89 104.5t-80 91.5q-57 66 -126 146.5t-128 152.5q-70 82 -141 165q-2 -45 -3 -106v-309q0 -145 2.5 -243.5t5.5 -160 t7 -94.5t8 -47q10 -37 44 -49.5t91 -12.5v-63q-37 0 -74 2q-33 0 -69.5 1t-69.5 1q-35 0 -70.5 -1t-66.5 -1q-37 -2 -70 -2v63q51 0 82 8.5t45 49.5q6 16 10.5 52t7.5 105.5t5 178t2 272.5q0 98 -1 184t-1 152v141q-10 23 -33 41q-20 16 -55 28.5t-88 12.5z" />
<glyph unicode="O" horiz-adv-x="1619" d="M100 680q0 63 15.5 141t50.5 156t90 151.5t136 130t187.5 91t243.5 34.5q309 0 498 -188q90 -90 140 -219t50 -287q0 -164 -57 -295t-154.5 -223t-227.5 -142t-273 -50q-150 0 -275 46t-219 136q-96 92 -150.5 223t-54.5 295zM373 713q0 -139 30.5 -256t88 -202 t140.5 -132t187 -47q111 0 192 46t133 128t77.5 194.5t25.5 243.5q0 86 -21.5 189.5t-71.5 193.5t-135 150.5t-212 60.5q-111 0 -191.5 -41t-135 -115.5t-81 -180t-26.5 -232.5z" />
<glyph unicode="P" horiz-adv-x="1081" d="M63 1296v66q43 -2 89 -2q39 -2 86 -2h92q61 0 136 2t138 2q113 0 203 -20.5t151 -71.5q51 -41 79 -101.5t28 -146.5q0 -80 -30.5 -149.5t-90.5 -122.5q-72 -66 -177 -101t-239 -35h-29.5t-29.5 2q-16 0 -33 2q-1 -62 -1 -117.5t1 -105.5q0 -43 2 -86t3 -77.5t3 -61.5 t7 -35q20 -72 131 -72v-63q-45 0 -90 2q-39 0 -84.5 1t-85.5 1q-41 0 -85 -1t-83 -1q-45 -2 -88 -2v63q53 0 81.5 13.5t42.5 54.5q6 16 9.5 51t5.5 102.5t3 174t1 270.5v213t-1 146.5t-4 91t-9 51.5q-12 39 -44 52t-88 13zM436 705q14 -2 29 -3h53q53 0 105.5 13.5 t94.5 46.5t67.5 88t25.5 139q0 80 -20.5 134.5t-56.5 87t-83 47t-98 14.5q-23 0 -44.5 -1t-37.5 -1q-20 -2 -35 -2v-563z" />
<glyph unicode="Q" horiz-adv-x="1619" d="M100 680q0 53 10.5 117.5t35 131t63.5 132t96 125.5q86 86 213 142t301 56q160 0 288 -50t220 -146q88 -92 136 -218t48 -280q0 -143 -43 -261t-117.5 -207t-178 -146.5t-224.5 -81.5q14 -16 29 -35q12 -16 24.5 -32.5t22.5 -28.5q88 -115 166 -165t131 -50q29 0 56.5 7 t47.5 17q23 10 43 27l29 -43q-55 -43 -113 -76q-49 -29 -110.5 -52.5t-122.5 -23.5q-94 0 -171 73t-159 195q-16 23 -34.5 52.5t-34.5 58.5q-20 33 -41 66q-135 14 -248 68t-193 144.5t-125 213t-45 270.5zM373 713q0 -139 30.5 -256t88 -202t140.5 -132t187 -47 q111 0 192 46t133 128t77.5 194.5t25.5 243.5q0 51 -7 110.5t-23.5 118t-43 113.5t-63.5 103q-51 66 -127 107.5t-180 41.5q-109 0 -190 -41t-134 -114.5t-79.5 -179t-26.5 -234.5z" />
<glyph unicode="R" horiz-adv-x="1361" d="M61 1296v66q43 -2 91 -2q39 -2 86 -2h92q39 0 85 1t92 1t89 1t76 1q119 0 199.5 -26.5t131 -70.5t72 -102.5t21.5 -120.5q0 -102 -41 -172.5t-91.5 -113.5t-93.5 -62.5t-47 -21.5q6 -10 24.5 -40t44.5 -69t54.5 -80t52.5 -73q74 -98 131.5 -174t92.5 -109 q31 -29 63.5 -46.5t67.5 -17.5v-63h-66h-141h-156q-20 29 -51 72q-27 37 -65.5 94t-92.5 137q-25 35 -58.5 86t-64.5 98q-37 53 -71 113l-152 2q-1 -58 -1 -112t1 -103q0 -41 2 -82t3 -75.5t3 -60.5t7 -34q20 -72 131 -72v-63q-45 0 -90 2q-39 0 -84.5 1t-85.5 1 q-41 0 -85 -1t-83 -1q-45 -2 -88 -2v63q53 0 81.5 13.5t42.5 54.5q6 16 9.5 51t5.5 102.5t3 174t1 270.5v213t-1 146.5t-4 91t-9 51.5q-12 39 -45 52t-89 13zM436 694q12 -2 31 -4q16 -2 39.5 -3t54.5 -1q53 0 103.5 15.5t93.5 56.5q37 37 59.5 97t22.5 146 q0 72 -19.5 122.5t-48.5 80.5q-35 41 -85 54.5t-107 13.5q-29 0 -54.5 -1t-46.5 -1h-43v-576z" />
<glyph unicode="S" horiz-adv-x="1083" d="M92 342h78q0 -72 22.5 -122t63.5 -80.5t97.5 -45t121.5 -14.5q135 0 205 57.5t70 155.5q0 39 -14.5 71.5t-49.5 67.5t-95.5 77t-152.5 103q-68 45 -121 88t-90 91.5t-55 104.5t-18 128q0 96 52 171t130 116q109 65 275 65h5q98 0 159 -9t104 -9h11t11 2q6 0 12 2 q-2 -16 -2 -33v-55q0 -29 1 -64.5t3 -66.5q2 -37 3 -74h-82q0 45 -13.5 85t-42 69.5t-72.5 47t-108 17.5q-125 0 -185.5 -55t-60.5 -137q0 -49 16.5 -88t52.5 -75t90 -74t128 -85t134.5 -89t103.5 -87t66.5 -96t23.5 -117q0 -78 -30 -149.5t-91.5 -127t-157.5 -89 t-229 -33.5q-66 0 -119 7t-97 17t-80 19.5t-67 13.5v23q0 10 1 20t1 20q-2 41 -2 83t-2 77q-2 39 -4 76z" />
<glyph unicode="T" horiz-adv-x="1220" d="M25 1071q0 29 2 62q0 29 1 64.5t1 76.5q0 10 -1 25.5t-1 31.5v37q12 0 68.5 -1t140 -2t186 -3t207.5 -2q55 0 141 1l172 2t157.5 3t96.5 2q-2 -14 -2 -27v-47v-151q0 -37 2 -72h-74q0 109 -40 149t-148 40h-211v-506q0 -184 1 -299t2 -181.5t4 -95t7 -43.5 q20 -72 131 -72v-63q-45 0 -92 2q-41 0 -86 1t-86 1q-39 0 -83 -1t-81 -1q-45 -2 -88 -2v63q53 0 82 13.5t43 54.5q6 16 9 51t5.5 102.5t3.5 174t1 270.5v531h-207q-96 0 -143.5 -38t-47.5 -151h-73z" />
<glyph unicode="U" horiz-adv-x="1484" d="M51 1296v66q45 -2 92 -2q41 -2 87 -2h87h83t81 2q43 0 86 2v-66q-59 0 -88.5 -8t-40.5 -43q-10 -31 -15 -149.5t-5 -341.5q0 -129 3 -223.5t13 -162t30.5 -113.5t57.5 -81q45 -43 108.5 -60.5t143.5 -17.5q84 0 152.5 19.5t122.5 72.5q76 78 98 205t22 326q0 158 -2 257 t-6 157.5t-11 86t-20 42.5q-14 16 -46.5 25t-127.5 9v66q43 -2 91 -2q39 -2 85 -2h87h81.5t79.5 2q43 0 86 2v-66q-63 0 -94 -7t-45 -32q-10 -18 -17 -58t-11.5 -108.5t-5.5 -171t-1 -247.5q0 -180 -28.5 -322.5t-118.5 -232.5q-61 -63 -166 -100t-248 -37q-150 0 -252 34.5 t-162 87.5q-55 49 -81 116q-28 66 -38 146q-10 73 -9 156v16q1 92 1 193v185v155t-2 113t-6 57q-10 37 -39.5 47t-91.5 10z" />
<glyph unicode="V" horiz-adv-x="1361" d="M0 1296v66q43 -2 86 -2q37 -2 82 -2h90h84t90 2q51 0 103 2v-66q-121 0 -121 -65q0 -27 5 -55.5t20.5 -74.5t42 -116t69.5 -180q23 -59 52.5 -134t58.5 -141q31 -78 63 -153q33 76 63 149q27 63 56.5 134t52.5 126q59 137 99 250t40 168q0 41 -39 66.5t-133 25.5v66 q47 -2 94 -2h168h154q41 0 82 2v-66q-63 0 -104 -27.5t-76 -92.5q-35 -66 -87.5 -194t-142.5 -331q-41 -92 -91 -206.5t-95 -220t-78 -183.5t-39 -94q-6 18 -38.5 102t-79 196.5t-96.5 235.5t-89 219q-25 61 -58.5 145.5t-68.5 165.5t-66.5 146.5t-50.5 87.5q-29 35 -50 43 t-52 8z" />
<glyph unicode="W" horiz-adv-x="2037" d="M0 1296v66q47 -2 94 -2q41 -2 87 -2h87h86t86 2q47 0 95 2v-66q-127 0 -127 -65q0 -53 36.5 -149.5t106.5 -276.5q27 -66 56.5 -142.5t58.5 -142.5q31 -78 63 -151q29 66 55 131q23 55 48.5 116.5t46.5 108.5q10 23 22 51.5t23 52.5q12 29 24 60q-29 72 -55 135 q-23 53 -46.5 106.5t-37.5 77.5q-29 49 -59.5 68.5t-73.5 19.5v66q47 -2 94 -2q41 -2 87 -2h87h86t86 2q47 0 94 2v-66q-63 0 -98 -13t-35 -48q0 -25 10.5 -58.5t29 -85t47 -122t65.5 -164.5q25 -66 54.5 -139.5t55.5 -137.5q31 -74 62 -145q37 90 74 174q31 72 65.5 153 t58.5 140q23 55 43.5 108.5t36 99.5t23.5 82t8 58q0 98 -170 98v66q51 -2 102 -2h170h144q41 0 82 2v-66q-55 0 -97.5 -25.5t-82.5 -96.5q-8 -16 -30 -64.5t-52.5 -119t-66.5 -156.5t-75 -175q-51 -117 -103 -236.5t-96 -220t-73 -170t-35 -85.5q-6 18 -32.5 88.5t-63.5 163 t-77 191.5t-71 175q-12 27 -26.5 62t-26.5 65q-14 37 -31 72q-20 -47 -41 -94q-16 -41 -36.5 -87t-36.5 -81q-37 -84 -76 -175t-73 -170t-57.5 -136.5t-29.5 -73.5q-6 18 -40 102t-80 197.5t-96 235.5t-89 218q-27 63 -58.5 145.5t-63.5 159t-57.5 137t-39.5 83.5 q-29 43 -56.5 57t-68.5 14z" />
<glyph unicode="X" horiz-adv-x="1339" d="M31 0v63q41 0 76.5 15.5t62.5 38.5t56.5 57.5t60 75.5t60.5 84t54 82q23 33 51.5 77t55.5 85q31 47 63 96q-31 49 -59 100q-27 43 -55.5 91t-53.5 89q-49 82 -98 159t-84 118q-23 29 -59.5 47t-77.5 18v66q47 -2 94 -2q41 -2 86 -2h86h91.5t90.5 2q49 0 97 2v-66 q-59 0 -85 -10t-26 -41q0 -20 18.5 -55t53.5 -96q16 -31 37.5 -67t40.5 -66l43 -72q23 37 45 72q18 29 37.5 58.5t29.5 45.5q47 72 62.5 107.5t15.5 64.5q0 59 -100 59v66q41 -2 82 -2q35 -2 75.5 -2h79.5h75t69 2q37 0 69 2v-66q-51 0 -90 -17t-74 -50q-31 -31 -58.5 -66 t-72.5 -104q-18 -29 -50 -75t-60 -91q-35 -53 -72 -109q37 -63 78 -131q35 -59 80 -133t92 -149q39 -66 78 -127.5t80 -108.5q29 -31 59.5 -51.5t65.5 -20.5v-63q-51 0 -101 2q-41 0 -89 1t-85 1q-43 0 -88 -1t-84 -1q-45 -2 -88 -2v63q57 0 85 9.5t28 38.5q0 39 -38 105.5 t-91 154.5q-18 29 -39 62.5t-39 64.5l-43 71l-37 -55q-16 -23 -32.5 -48.5t-28.5 -45.5q-70 -111 -107 -173.5t-37 -101.5q0 -35 32 -58.5t87 -23.5v-63q-47 0 -94 2q-41 0 -87 1t-87 1q-35 0 -73 -1t-69 -1q-37 -2 -71 -2z" />
<glyph unicode="Y" horiz-adv-x="1296" d="M0 1296v66q47 -2 98 -2q43 -2 92.5 -2h94.5h80t79 2q43 0 86 2v-66q-55 0 -82.5 -7t-27.5 -34t32.5 -86t75.5 -129q23 -39 51.5 -84t53.5 -86q29 -47 57 -94q20 33 43 66q18 29 39 58.5t37 51.5q68 100 107.5 168t39.5 111q0 39 -41 52t-94 13v66q47 -2 97 -2 q41 -2 88 -2h88h64.5t66.5 2q37 0 71 2v-66q-25 0 -50 -8t-48 -20q-31 -16 -69.5 -58.5t-78.5 -95.5t-78 -108.5t-67 -98.5q-14 -20 -39.5 -58t-52.5 -79q-31 -47 -65 -98v-195.5t2 -162t5 -117.5t7 -62q20 -72 131 -72v-63q-45 0 -92 2q-41 0 -86 1t-86 1h-85t-81 -2 q-43 -2 -86 -2v63q53 0 81.5 13.5t43.5 54.5q10 35 14 152.5t4 324.5q-29 49 -63 105q-29 47 -66 108.5t-78 130.5q-47 80 -90 149.5t-86 123.5q-25 29 -60.5 50t-76.5 21z" />
<glyph unicode="Z" horiz-adv-x="1384" d="M70 2q106 160 211 317q45 68 94 142t98 149.5t98.5 148t92.5 138.5q35 53 77.5 116.5t79.5 119.5q43 66 88 131h-321q-90 0 -145.5 -1t-88 -5.5t-48 -11.5t-27.5 -17q-18 -16 -26.5 -43t-12.5 -53q-3 -21 -3 -42q0 -11 1 -22h-80q0 27 2 55q0 25 1 56.5t1 66.5 q0 18 -1 40t-1 40q-2 23 -2 43q33 -2 102 -4q59 -2 167 -3t286 -1q139 0 238.5 1t164.5 3q76 2 127 4q-74 -111 -149 -223q-33 -47 -68 -100.5t-70.5 -106.5t-70.5 -105.5t-66 -97.5q-63 -92 -137 -202.5t-139 -206.5q-76 -113 -152 -224h133q57 0 124 -1h44q43 0 82 1 q117 0 195 6.5t125 32t67.5 76.5t20.5 143h80q-2 -45 -5 -90q-2 -39 -2 -80.5v-76.5v-78q0 -23 2 -41q-88 2 -184 4q-82 2 -184.5 2t-204.5 2h-68t-89 -1t-100 -1h-103h-254z" />
<glyph unicode="[" horiz-adv-x="700" d="M201 -414q2 176 6 351q2 74 3 156.5t2 165.5t2 164t1 155q0 39 -1 97t-2 126.5t-2 143.5t-3 147q-4 168 -6 354q43 -2 84 -2q35 -2 75.5 -2h71.5h129q37 0 76 2v-64q-27 0 -69 -6t-83 -14q-49 -8 -102 -21q-2 -131 -4 -264q-2 -115 -3 -245t-1 -240q0 -133 1 -289t3 -293 q2 -160 4 -319q43 -12 88 -21q39 -8 82 -13t84 -5v-64q-29 0 -62 2q-29 0 -63.5 1t-73.5 1q-33 0 -72.5 -1t-76.5 -1q-43 -2 -88 -2z" />
<glyph unicode="\" horiz-adv-x="604" d="M59 1550h121l365 -2066h-121z" />
<glyph unicode="]" horiz-adv-x="700" d="M63 -348q25 0 68 6t84 14q49 8 102 21q2 131 5 264q2 115 3 245t1 240q0 131 -1 288t-3 294q-2 160 -5 319q-43 10 -88 19q-39 8 -83 14t-83 6v64q29 -2 62 -2q29 -2 63.5 -2h73.5h72t78 2q43 0 88 2q-4 -176 -8 -350q-2 -74 -3.5 -157t-2.5 -166t-1 -165v-153v-99.5 t1 -127t2 -142.5t4 -145q4 -169 8 -355q-45 0 -86 2q-35 0 -75 1t-71 1q-27 0 -61.5 -1t-67.5 -1h-76v64z" />
<glyph unicode="^" horiz-adv-x="561" d="M-45 858l246 504h159l246 -504h-157l-168 373l-168 -373h-158z" />
<glyph unicode="_" d="M0 -240h1024v-122h-1024v122z" />
<glyph unicode="`" d="M340 1415q0 31 23.5 49.5t54.5 18.5q37 0 75.5 -25.5t79.5 -66.5q35 -35 71 -87.5t69 -99.5q37 -55 73 -117h-55q-78 49 -145 93q-57 37 -110.5 74.5t-76.5 58.5q-59 53 -59 102z" />
<glyph unicode="a" horiz-adv-x="931" d="M47 248q0 45 17.5 82t47 64.5t67.5 49t81 35.5q45 16 96.5 28.5t96.5 20.5q53 8 102 17v55q0 23 1 43.5t1 30.5v14q-1 86 -23 136q-24 54 -90 55q-39 0 -64.5 -15.5t-44 -40t-31.5 -51.5t-29.5 -51.5t-38 -39.5t-56.5 -15t-58.5 16t-23.5 51q0 33 36 74t94.5 76t131 58.5 t146.5 23.5q122 1 188 -63q65 -62 64 -180v-7q0 -59 -3 -171t-3 -253q0 -158 73 -158q23 0 41.5 8.5t22.5 10.5l20 -66q-12 -10 -54 -24.5t-77 -30.5q-20 -8 -41.5 -17.5t-40.5 -17.5q-23 -8 -45 -19q-23 16 -43 41q-16 20 -31.5 52t-19.5 77q-20 -25 -52 -53t-70 -53 t-80 -41t-81 -16q-47 0 -89 19.5t-72.5 55t-48 83.5t-17.5 106zM254 272q0 -53 34 -99t93 -46q55 0 99 35t71 65l4 240l-66 -12q-29 -4 -57.5 -11.5t-50.5 -13.5q-127 -43 -127 -158z" />
<glyph unicode="b" horiz-adv-x="1120" d="M-8 1427q23 8 73 27t103 37q45 16 81 30.5t60 24.5q29 12 49 25q0 -8 -1 -53t-1 -114t-1 -152t-1 -165.5v-158.5v-129q8 12 40 39.5t78 56.5t103.5 50.5t118.5 21.5q76 0 136.5 -30t103.5 -83t65.5 -127t22.5 -162q0 -129 -47 -240.5t-129 -189.5q-74 -72 -170 -112.5 t-207 -40.5q-66 0 -120 8t-97 19t-72.5 23.5t-42.5 20.5q0 104 2 221q2 100 2 228.5v267.5q0 162 -1 257t-1 148.5t-2 79t-4 45.5q-4 37 -14 55.5t-39 18.5q-16 0 -29.5 -2t-23.5 -6q-12 -4 -23 -6zM354 508.5q0 -107.5 2 -195.5q0 -102 2 -196q14 -14 37 -23q18 -8 46 -14 t67 -6q57 0 109.5 22.5t90 70.5t60.5 124t23 182q0 166 -59.5 250t-162.5 84q-45 0 -84 -12.5t-67 -28.5q-35 -18 -64 -41v-216.5z" />
<glyph unicode="c" horiz-adv-x="927" d="M70 440q0 166 69.5 275.5t171.5 169.5q74 43 147.5 60.5t145.5 17.5q117 0 186.5 -41t69.5 -97q0 -39 -29.5 -63.5t-76.5 -24.5q-39 0 -65.5 20.5t-51.5 46t-53.5 46t-69.5 20.5q-96 0 -160.5 -91t-64.5 -244q0 -98 25.5 -173t68.5 -126q45 -53 106.5 -81t126.5 -28 q39 0 76 11.5t69 27.5t57.5 34.5t41.5 32.5l39 -53q-29 -35 -80 -74.5t-110 -68.5q-53 -27 -112.5 -41t-125.5 -14q-78 0 -145.5 28.5t-120.5 79.5q-63 63 -99 153.5t-36 196.5z" />
<glyph unicode="d" horiz-adv-x="1114" d="M74 430q0 123 40 224.5t111 172.5q66 66 150 102t178 36q41 0 71.5 -6.5t53.5 -12.5q25 -8 47 -16q0 170 -2 258t-6 119q-4 29 -13.5 48t-37.5 19q-14 0 -28.5 -2t-25.5 -6q-12 -4 -24 -6l-13 67q35 12 70 25q61 23 131 49q57 23 91 36t51 22q20 8 24 12q-2 -14 -2 -71.5 t-1 -137.5t-1 -171v-174v-145.5v-85.5v-218v-159.5t1 -110.5t5 -69q4 -29 13.5 -43t37.5 -14q14 0 26.5 2t22.5 6t21 10l16 -69q-16 -6 -39 -15q-20 -8 -50.5 -21t-78.5 -34q-29 -12 -61.5 -26.5t-60.5 -28.5q-35 -16 -70 -31l4 174q-16 -20 -49 -48t-76 -53.5t-93 -43 t-101 -17.5q-61 0 -122 29t-107 86.5t-74.5 142t-28.5 195.5zM293 512q0 -178 64.5 -279.5t168.5 -101.5q45 0 82 13.5t64 29.5q31 20 53 45q0 55 2 109q0 47 1 99t1 97q0 41 -1 91.5t-1 95.5q-2 51 -2 102q-20 18 -47 33q-23 12 -55.5 23.5t-75.5 11.5q-96 0 -160 -74 q-47 -53 -70.5 -130t-23.5 -165z" />
<glyph unicode="e" horiz-adv-x="944" d="M70 428q0 129 36.5 225.5t96.5 161.5q72 78 159 114t173 36t149.5 -36t106.5 -91.5t64.5 -123t21.5 -132.5q0 -27 -13.5 -30t-19.5 -3h-553q-2 -10 -2 -19v-30q0 -76 22.5 -143.5t59.5 -114.5q43 -57 103.5 -86t127.5 -29q43 0 83 11.5t74 27.5t59.5 34.5t41.5 32.5 l39 -53q-12 -14 -33 -33q-16 -16 -40.5 -34.5t-55.5 -38.5q-53 -35 -128 -63.5t-161 -28.5q-205 0 -317 143q-94 123 -94 303zM299 629h356q0 49 -9 94t-28.5 80t-50 55.5t-69.5 20.5q-41 0 -75 -20.5t-59.5 -54.5t-42 -79t-22.5 -96z" />
<glyph unicode="f" horiz-adv-x="651" d="M53 0v63q53 0 84 9.5t41 48.5q4 12 6 55t3 104.5t2 136.5t1 149.5v144v120.5h-127v99h125v74q0 154 40 251t106 162q43 43 91 69.5t96 41t91 19.5t76 5q78 0 121 -28.5t43 -75.5t-29.5 -68.5t-70.5 -21.5q-37 0 -60.5 12t-42 26.5t-40 27t-54.5 12.5q-78 0 -117 -109.5 t-39 -304.5v-92h226v-99h-224v-282q0 -201 1 -308.5t12 -136.5q10 -29 50 -35t87 -6v-63q-6 0 -35 1t-67.5 1t-82.5 1t-77 1t-72 -1t-73.5 -1t-60.5 -1t-30 -1z" />
<glyph unicode="g" horiz-adv-x="1015" d="M-10 -322q0 84 77.5 154t211.5 125q-92 31 -130 60.5t-38 62.5q0 31 23.5 58.5t60 51t82 43t85.5 35.5q-49 12 -100 38t-92 66t-67.5 94t-26.5 124q0 86 38 159.5t103 124.5q59 43 128 67t153 24q59 0 105 -11.5t77 -23.5q37 -16 61 -35h232v-100h-137q16 -23 28 -50 q10 -23 19.5 -56.5t9.5 -74.5q0 -76 -31 -141t-85 -113.5t-126.5 -76t-154.5 -27.5h-25q-12 -4 -22 -8q-27 -8 -46 -19q-29 -16 -47 -32.5t-18 -32.5t23.5 -29.5t63.5 -26t92 -23.5t110 -24q100 -23 163.5 -47t98.5 -53t47 -60.5t12 -68.5q0 -45 -17.5 -85t-47 -74.5 t-67.5 -63.5t-79 -51q-76 -41 -164 -62.5t-184 -21.5q-74 0 -144.5 11t-128 35.5t-92 63.5t-34.5 94zM178 -270q0 -72 63.5 -121t176.5 -49q61 0 115.5 13t97.5 36q49 27 76.5 62.5t27.5 76.5q0 55 -44 86t-152 60q-35 10 -69 16t-62 12q-33 6 -64 12q-86 -45 -126 -94 t-40 -110zM295 600q0 -47 8 -94t30.5 -86t59.5 -62.5t96 -23.5q53 0 90 21.5t60 59.5t33 88t10 107t-9 106.5t-30.5 86.5t-59.5 58.5t-94 21.5q-59 0 -96 -23.5t-59.5 -62.5t-30.5 -90.5t-8 -106.5z" />
<glyph unicode="h" horiz-adv-x="1150" d="M23 1427q43 14 81 29q35 12 72 26.5t66 24.5q33 12 59.5 23.5t46.5 21.5q23 10 41 19q-2 -14 -2 -63.5t-1 -120t-0.5 -154.5t0.5 -165v-152.5v-118.5q57 47 120 84q53 31 121.5 57.5t140.5 26.5q117 0 165 -68t50 -203v-332v-72.5v-68.5t1 -57.5t3 -38.5 q8 -39 31.5 -50.5t77.5 -11.5v-63q-10 0 -35 1t-56.5 1t-68.5 1t-74 1q-72 0 -133 -1t-90 -3v63q47 0 76.5 8.5t38.5 37.5q6 20 8 58t4 82t2 89v80q0 129 -5 218t-34 128q-18 23 -46 35t-69 12q-59 0 -123.5 -30.5t-104.5 -57.5v-99.5v-123v-131t0.5 -120.5t2.5 -94t6 -51 q10 -29 36 -35t71 -6v-63q-4 0 -28.5 1t-59.5 1t-75 1t-75 1q-31 0 -66.5 -1t-69.5 -1t-59.5 -1t-33.5 -1v63q53 0 82.5 10.5t42.5 47.5q6 20 9 96t4 172q0 48 1 98q0 49 -1 101q-1 104 -1 182q0 162 -1 262.5t-3 157.5t-3 81.5t-1 33.5q-4 29 -13.5 49t-37.5 20 q-14 0 -28.5 -2t-25.5 -6q-12 -4 -24 -6z" />
<glyph unicode="i" horiz-adv-x="563" d="M41 834q31 10 61 22q27 10 59 22.5t64 24.5q53 20 86 33.5t54 24.5q23 10 34 18q0 -23 -1 -84t-1 -140v-160v-140v-108.5t1 -103.5t3 -86t7 -53q10 -27 35.5 -34t70.5 -7v-63q-8 0 -32.5 1t-57.5 1t-70 1t-69 1q-35 0 -74 -1t-74 -1t-59.5 -1t-28.5 -1v63q66 0 89.5 12.5 t33.5 35.5q6 16 9 59t4 93t1 97.5v75.5q0 37 -1 79t-2 81t-2 70.5t-3 48.5q-4 35 -15 51t-38 16q-16 0 -28.5 -3t-22.5 -7t-21 -8zM141 1280q0 51 40 89t95 38q57 0 98.5 -38t41.5 -89q0 -53 -41 -91t-99 -38q-55 0 -95 38t-40 91z" />
<glyph unicode="j" horiz-adv-x="544" d="M-98 -489q33 25 65 49q29 23 58.5 48t52.5 54q41 53 64.5 132t29.5 212q2 61 3 111.5t1 99.5v101.5v117.5v80t-1 84t-3 75t-4 50q-6 57 -51 57q-14 0 -27.5 -3t-23.5 -7q-12 -4 -23 -8l-12 70q33 10 65 22q29 10 60.5 22.5t60.5 22.5q35 14 66.5 28.5t54.5 24.5 q27 12 51 25v-524v-200.5t-6 -223.5q-4 -63 -15.5 -115.5t-33 -98.5t-54 -89t-75.5 -86q-45 -43 -91 -78t-83 -58q-43 -27 -84 -47zM127 1280q0 53 40 90t95 37t95 -37t40 -90t-40 -90t-95 -37t-95 37t-40 90z" />
<glyph unicode="k" horiz-adv-x="1091" d="M23 1427q35 12 71 25q31 10 67 23.5l68 25.5q27 10 55.5 22.5t51.5 22.5q27 12 53 25q0 -14 -1 -65.5t-1 -123t-1 -156.5t-0.5 -168t0.5 -155v-117v-245q29 23 56 45q25 20 53.5 44.5t55.5 51.5q49 47 78.5 84t29.5 61q0 29 -23.5 40.5t-62.5 11.5v63q49 -2 99 -2 q41 -2 85 -2h79h66.5t66.5 2q37 2 71 4v-65q-43 0 -86 -10.5t-92 -39.5q-35 -23 -87 -64.5t-101 -82.5q-20 -18 -42 -35.5t-38 -34.5q-20 -18 -39 -34q33 -39 66 -76q29 -33 58.5 -67t53.5 -60q59 -68 102.5 -116t76 -80t56 -51t42.5 -32q18 -12 33.5 -18t25.5 -10 q12 -4 23 -5v-63q-6 0 -32 1t-62.5 1t-78.5 1t-79 1q-82 0 -147.5 -2t-88.5 -2v63q23 0 47.5 5.5t24.5 31.5q0 23 -34 64t-71 86q-29 33 -60.5 71.5t-59.5 73.5q-33 39 -65 78q0 -147 0.5 -245.5t8.5 -123.5q10 -29 37 -35t64 -6v-63q-4 0 -28 1t-57.5 1t-72.5 1t-74 1 q-31 0 -66.5 -1t-69.5 -1t-59.5 -1t-33.5 -1v63q53 0 82.5 10.5t42.5 47.5q6 20 9 96t4 172q0 48 1 98q0 49 -1 101q-1 104 -1 182q0 162 -1 259t-3 150.5t-3 75t-1 29.5q-4 41 -12.5 65.5t-38.5 24.5q-14 0 -28.5 -2t-25.5 -6q-12 -4 -24 -6z" />
<glyph unicode="l" horiz-adv-x="550" d="M23 1427q39 12 75 25q33 10 69 23.5t64 25.5q29 10 56.5 23.5t50.5 23.5q27 12 51 23q0 -4 -1 -56.5t-1 -130t-1 -171t-0.5 -179.5t0.5 -153.5v-94.5v-450.5t5 -208.5q4 -43 39 -53.5t86 -10.5v-63q-4 0 -30.5 1t-64.5 1t-80 1t-77 1q-31 0 -66.5 -1t-69.5 -1t-59.5 -1 t-33.5 -1v63q53 0 82.5 10.5t42.5 47.5q6 20 9 96t4 172q0 48 1 98q0 49 -1 101q-1 104 -1 182q0 162 -1 262.5t-3 157.5t-3 81.5t-1 33.5q-4 29 -13.5 49t-37.5 20q-14 0 -28.5 -2t-25.5 -6q-12 -4 -24 -6z" />
<glyph unicode="m" horiz-adv-x="1755" d="M41 834q25 10 53 20q25 10 58.5 21.5t70.5 27.5q109 41 146 60q23 10 30 16v-178q57 45 121 82q53 31 121 56.5t137 25.5q90 0 138.5 -43t64.5 -129q57 49 123 86q55 33 124.5 59.5t141.5 26.5q119 0 167 -68t50 -203v-81t-1 -88t-1 -87v-76v-74.5v-70.5t1 -57.5t3 -34.5 q6 -39 32 -50.5t79 -11.5v-63q-23 0 -92.5 2t-141.5 2t-134 -1t-89 -3v63q47 0 77 8.5t38 37.5q6 20 8 58t4 82t2 89v80q0 78 -1 140.5t-9 111.5q-10 66 -39 101.5t-104 35.5q-43 0 -83 -13.5t-73 -29.5q-37 -18 -72 -41v-39q1 -35 1 -80v-46q-1 -73 -1 -130v-83t1 -85 t2 -77t3 -58q4 -35 34 -48.5t77 -13.5v-63q-10 0 -35.5 1t-57.5 1t-67 1t-63 1h-67t-68.5 -1t-59 -2t-41.5 -1v63q47 0 77 7.5t38 33.5q4 18 7 52t4 76t2 90.5t1 95.5q0 84 -1 147.5t-7 104.5q-10 66 -42 101.5t-103 35.5q-59 0 -123 -27.5t-105 -54.5v-270v-112.5t1 -107 t3 -85t7 -46.5q14 -29 37.5 -35t68.5 -6v-63q-4 0 -29.5 1t-59.5 1t-72 1t-68 1q-35 0 -74 -1t-74 -1t-59.5 -1t-28.5 -1v63q72 0 93.5 14.5t29.5 33.5q6 16 9 59t4 93t1 97.5v75.5q0 37 -1 79t-2 81t-2 70.5t-3 48.5q-4 35 -15 51t-40 16q-14 0 -26.5 -3t-22.5 -7t-21 -8z " />
<glyph unicode="n" horiz-adv-x="1165" d="M41 834q25 8 53 18q25 10 57.5 21.5t69.5 27.5q45 16 79 31.5t56 25.5q25 12 43 21v-178q55 45 119 82q53 31 122 56.5t140 25.5q121 0 168 -71t49 -200v-81t-1 -88t-1 -87v-76v-73.5v-69.5t1 -58.5t3 -35.5q6 -39 31 -50.5t78 -11.5v-63q-10 0 -34.5 1t-56.5 1t-69 1 t-74 1q-72 0 -133 -1t-90 -3v63q47 0 78 8.5t39 37.5q6 20 8 58t4 82t2 89v80q0 78 -2 142.5t-8 109.5q-10 66 -41 101.5t-104 35.5q-41 0 -82 -12.5t-74 -28.5q-37 -18 -74 -41v-270v-111.5t1 -106t3 -85t7 -48.5q10 -27 35.5 -34t70.5 -7v-63q-4 0 -28.5 1t-58.5 1t-72 1 t-70 1q-35 0 -74 -1t-74 -1t-59.5 -1t-28.5 -1v63q72 0 93.5 14.5t29.5 33.5q6 16 9 59t4 93t1 97.5v75.5q0 37 -1 79t-2 81t-2 70.5t-3 48.5q-4 35 -15 51t-40 16q-14 0 -26.5 -3t-22.5 -7t-21 -8z" />
<glyph unicode="o" horiz-adv-x="1150" d="M74 463q0 123 50 227.5t142 169.5q70 51 155 79t185 28q184 0 309 -113q74 -66 116 -159t42 -206q0 -104 -37 -196t-108 -164q-72 -72 -163 -108.5t-208 -36.5q-113 0 -203 38.5t-152.5 104.5t-95 153t-32.5 183zM317 522q0 -90 15.5 -172t47.5 -146.5t82 -102.5t120 -38 q121 0 185 100.5t64 272.5q0 88 -14 169t-47 142.5t-83 98.5t-120 37q-63 0 -110 -31t-78 -81t-46.5 -114.5t-15.5 -134.5z" />
<glyph unicode="p" horiz-adv-x="1144" d="M29 831q31 10 63 23q29 10 60.5 22.5t62.5 24.5q35 12 64.5 26.5t54.5 24.5q27 12 53 27l-2 -188q41 49 94 86q45 33 106.5 60.5t133.5 27.5q76 0 136 -33t103 -93.5t66 -143.5t23 -181q0 -121 -39 -221t-105.5 -172t-156 -111t-187.5 -39q-41 0 -73.5 5.5t-55.5 13.5 q-27 8 -47 20q0 -16 -1 -77.5t-1 -132t2 -132t8 -78.5q10 -29 47 -36t82 -7v-63q-4 0 -31.5 1t-65.5 1t-80 1t-77 1q-31 0 -69.5 -1t-72.5 -1t-59.5 -1t-29.5 -1v63q53 0 84 9.5t41 48.5q6 18 9 92t3 172v202.5v182.5q0 147 -1 233t-1 132.5t-1 63.5t-1 30q-8 69 -56 69h-1 q-12 0 -24.5 -3t-23.5 -7q-12 -4 -22 -8zM383 127q18 -20 45 -37q23 -14 59.5 -25.5t90.5 -11.5q61 0 107 31t76 83t45 123.5t15 153.5q0 78 -14 143.5t-44 114t-72 75t-97 26.5q-49 0 -88 -14.5t-68 -30.5q-33 -20 -55 -45v-586z" />
<glyph unicode="q" horiz-adv-x="1099" d="M74 442q0 117 40 218.5t107 168.5q66 66 147 101t185 35q66 0 118 -15.5t89 -31.5q43 -20 78 -46l110 107q-2 -160 -2 -301q0 -59 -1 -121.5t-1 -118v-101.5v-75v-108.5t-1 -135t-1 -143.5t1 -132t3 -101t6 -52q10 -29 46 -36t81 -7v-63q-4 0 -31.5 1t-64.5 1t-79 1 t-77 1q-31 0 -69.5 -1t-73.5 -1t-60.5 -1t-29.5 -1v63q53 0 85 9.5t42 48.5q6 18 9 71.5t3 125v154.5v161q-37 -39 -86 -68q-41 -27 -99.5 -47t-131.5 -20q-70 0 -132.5 29.5t-108.5 88t-73.5 144.5t-27.5 198zM295 518q0 -102 19.5 -176t52 -122t74.5 -70.5t89 -22.5 q45 0 83 11.5t65 27.5q31 18 55 41v594q-23 20 -49 37q-23 14 -57.5 25t-77.5 11q-102 0 -166 -67q-47 -53 -67.5 -130t-20.5 -159z" />
<glyph unicode="r" horiz-adv-x="792" d="M41 834q27 8 57 18q27 10 58.5 21.5t66.5 25.5q49 20 83 34.5t54 24.5q23 10 39 21v-217q41 55 84 100q37 39 80 71t84 32q61 0 103.5 -44.5t42.5 -93.5q0 -47 -27 -78.5t-74 -31.5q-27 0 -41 12t-26.5 27.5t-24.5 28t-37 12.5q-23 0 -45 -13.5t-42.5 -33t-40 -44 t-38.5 -47.5v-204v-108.5t1 -103.5t3 -86t7 -53q10 -25 49 -33t84 -8v-63q-8 0 -38 1t-68 1t-79 1t-71 1q-35 0 -74 -1t-74 -1t-59.5 -1t-28.5 -1v63q72 0 93.5 14.5t29.5 33.5q6 16 9 59t4 93t1 97.5v75.5q0 37 -1 79t-2 81t-2 70.5t-3 48.5q-4 35 -15 51t-38 16 q-16 0 -28.5 -3t-22.5 -7t-21 -8z" />
<glyph unicode="s" horiz-adv-x="813" d="M59 293h68q0 -45 14.5 -87t44 -75t72.5 -52.5t100 -19.5q100 0 146 44q44 42 43 97q0 40 -14.5 65.5t-42 48t-69.5 46t-97 54.5q-41 23 -81 49t-73 60t-52.5 78t-19.5 99q0 82 49.5 141.5t108.5 86.5q41 18 85 25.5t91 7.5q72 0 115 -10.5t55 -10.5q29 0 29 45h65 q-2 -18 -2 -41v-86v-104q0 -29 2 -56h-67q0 53 -15.5 89t-40 57.5t-58.5 31t-71 9.5q-90 0 -124.5 -35t-34.5 -82q0 -29 11 -51.5t34.5 -44t60.5 -45t90 -52.5q49 -29 96.5 -57.5t83 -61t57 -74.5t21.5 -97q0 -74 -31.5 -130.5t-84.5 -95.5q-49 -37 -121 -57t-150 -20 q-90 0 -164.5 22.5t-121.5 54.5v74q0 23 -1.5 49.5t-3.5 50.5q-2 29 -2 60z" />
<glyph unicode="t" horiz-adv-x="681" d="M4 831q37 31 74 64q31 29 65.5 58.5t63.5 58.5q23 23 52.5 53.5t55.5 58.5q31 33 60 68l-10 -262h262v-99h-262q-2 -53 -5 -106q-2 -45 -2 -96v-92q0 -84 -1 -153v-27q0 -54 3 -105q4 -72 33 -103.5t82 -31.5q23 0 47.5 8t44.5 18q23 12 43 29l39 -51q-43 -39 -92 -68 q-43 -27 -98.5 -47t-116.5 -20q-113 0 -155 70.5t-42 193.5q0 96 1 197.5t4 187.5l4 196h-150z" />
<glyph unicode="u" horiz-adv-x="1130" d="M10 823q35 12 72 27q29 10 61.5 23.5t55.5 23.5q35 16 66.5 29.5t53.5 25.5q27 12 50 27q-2 -102 -4 -191q0 -39 -1.5 -77.5t-2.5 -73.5t-1 -63.5v-47.5q0 -111 2.5 -189.5t24.5 -125.5q16 -35 46 -52.5t81 -17.5q41 0 81 13.5t73 29.5q37 20 73 45v279v116.5t-2 73.5 q-4 37 -15 55.5t-38 18.5q-14 0 -26.5 -2t-22.5 -6t-21 -8l-12 67q39 14 76 29q31 12 62.5 25.5t54.5 23.5q43 18 74.5 32.5t52.5 24.5q23 10 39 21q-2 -104 -5 -195q0 -39 -1 -77.5t-2 -73.5t-1 -63.5v-43.5v-80t1 -82.5t2 -72.5t4 -49q4 -35 15 -52.5t40 -17.5 q14 0 26.5 2t22.5 6t22 10l13 -69q-39 -14 -76 -29q-33 -12 -72 -27.5t-75 -29.5q-80 -31 -109 -45l-29 -15v175q-55 -45 -116 -80q-53 -31 -122 -55.5t-141 -24.5q-59 0 -100 21.5t-66.5 58t-37 86t-11.5 104.5q-1 39 -1 81v43q1 65 1 122v115.5t-2 72.5q-4 41 -15 59.5 t-36 18.5q-14 0 -26.5 -2t-22.5 -6l-20 -8z" />
<glyph unicode="v" horiz-adv-x="1064" d="M-2 879v63q45 -2 90 -2q39 -2 84 -2h84h78t76 2q39 0 79 2v-63q-114 0 -114 -67q0 -36 24.5 -104.5t69.5 -179.5q23 -55 40 -99t32 -77q16 -37 28 -67q14 33 33 71q16 35 33.5 78t40.5 94q31 74 54.5 140.5t23.5 109.5q0 49 -21.5 75t-85.5 26v63q39 -2 78 -2 q33 -2 71 -2h66h66t69 2q37 0 78 2v-63q-45 0 -79.5 -16.5t-69.5 -58.5t-74 -115t-90 -183q-66 -141 -121 -260t-88 -189q-4 -10 -12.5 -28.5t-16.5 -36.5q-8 -23 -20 -45q-27 57 -55 125q-27 59 -60 136t-72 169q-49 113 -91 209t-64 149q-18 43 -34.5 71t-35 44t-41 22.5 t-53.5 6.5z" />
<glyph unicode="w" horiz-adv-x="1628" d="M-2 879v63q45 -2 90 -2q39 -2 84 -2h84h76t71 2q37 0 76 2v-63q-66 0 -87 -19.5t-17 -58.5q0 -12 12 -47t27.5 -76t31 -81t23.5 -65q23 -57 40 -103t32 -81q16 -39 30 -74q10 20 25 52q12 27 29.5 65.5t42.5 91.5q39 88 59 138q12 31 23 55q-14 35 -29 65 q-12 27 -24.5 53.5t-20.5 39.5q-18 27 -38 36t-58 9v63q41 -2 82 -2q35 -2 75.5 -2h79.5h80t80 2q43 0 84 2v-63q-66 0 -94.5 -16.5t-28.5 -51.5q0 -18 9 -49t21.5 -68t28 -75.5t27.5 -71.5q23 -59 41 -107.5t35 -83.5q18 -41 33 -73q16 41 36 84q16 37 37 84t43 98 q31 74 48.5 130t17.5 99q0 53 -21.5 77t-83.5 24v63q41 -2 78 -2q33 -2 70 -2h65h65t71 2q39 0 79 2v-63q-41 0 -76.5 -15.5t-64.5 -50.5q-37 -41 -82 -124t-92 -187q-49 -102 -95 -201.5t-83 -177.5q-43 -92 -80 -176q-23 49 -49 112q-23 53 -53.5 125t-67.5 158 q-16 37 -32.5 77t-33.5 75q-18 39 -34 79q-25 -49 -47 -98q-20 -41 -43 -90t-39 -88q-25 -53 -53.5 -113.5t-53.5 -113.5q-29 -61 -55 -123q-27 59 -55 127q-27 59 -60 136t-72 169q-49 111 -91 207t-64 149q-35 84 -68 114t-96 30z" />
<glyph unicode="x" horiz-adv-x="1069" d="M14 0v63q66 0 119 35t96 88q25 31 54.5 68t58.5 74t54.5 70.5t43.5 58.5l-184 276q-29 43 -53.5 72t-47 45t-46 22.5t-50.5 6.5v63q43 -2 91 -2q39 0 85 -1h30q30 0 57 1h137q37 0 69 2v-63q-29 -2 -52 -8.5t-23 -34.5q0 -12 13 -40t33.5 -62t44 -70.5t42.5 -67.5 q18 27 35 51q14 23 28.5 43.5t22.5 34.5q18 29 30.5 57.5t12.5 44.5q0 33 -26.5 42.5t-67.5 9.5v63q35 -2 71 -2h142h120q35 0 72 2v-63q-66 0 -98.5 -17.5t-67.5 -52.5q-29 -29 -67.5 -76t-73.5 -94q-41 -53 -84 -113q27 -41 51 -77q23 -33 47.5 -71t46.5 -69 q33 -49 66 -93t66.5 -78t69.5 -54.5t73 -20.5v-63q-39 0 -78 2q-35 0 -76 1t-78 1q-41 0 -84 -1t-82 -1q-45 -2 -88 -2v63q27 0 51.5 11.5t24.5 34.5q0 16 -15.5 44.5t-60.5 98.5q-12 18 -26.5 39.5t-26.5 42.5q-14 23 -29 47q-20 -31 -41 -57q-16 -23 -33.5 -47.5 t-27.5 -40.5q-23 -35 -41 -68t-18 -51q0 -33 27.5 -43.5t56.5 -10.5v-63q-35 0 -72 2q-31 0 -65.5 1t-63.5 1t-62.5 -1t-62.5 -1q-35 -2 -70 -2z" />
<glyph unicode="y" horiz-adv-x="1064" d="M-2 879v63q45 -2 90 -2q39 -2 84 -2h84h78t76 2q39 0 79 2v-63q-114 0 -114 -68v-8q0 -14 8 -41t20.5 -60.5t26.5 -71.5t29 -75q23 -59 43 -108.5t37 -86.5q18 -43 32 -77q16 39 35 79q16 35 36 81t40 94q35 82 55.5 141t20.5 100q0 49 -22.5 75t-84.5 26v63q39 -2 76 -2 q33 -2 70 -2h65h65t70 2q39 0 80 2v-63q-78 0 -131 -56q-39 -41 -80 -116.5t-100 -202.5q-16 -35 -41 -88.5t-53.5 -114.5t-59 -126.5t-59.5 -127t-53.5 -113t-40.5 -84.5q-59 -115 -112.5 -188.5t-100.5 -116.5t-88 -59t-76 -16q-31 0 -55.5 21.5t-24.5 55.5 q0 31 25.5 49.5t66.5 40t92.5 53t102.5 91.5q35 39 64.5 87t52.5 89q27 49 51 98q-23 53 -47 111q-23 49 -51.5 112.5t-57.5 133.5q-76 172 -123 284.5t-72 141.5q-20 23 -45.5 32t-62.5 9z" />
<glyph unicode="z" horiz-adv-x="1009" d="M51 -2q39 49 75 99t73 107.5t78.5 123t95.5 143.5q16 27 57 86t82 123q49 72 102 158q-23 0 -47 2q-23 0 -53.5 1t-64.5 1h-68t-67.5 -4t-58.5 -13.5t-40 -27.5q-20 -27 -29.5 -61t-9.5 -70h-70q2 37 5 73q2 31 3 67t1 68q0 16 -1 35t-1 35q-2 20 -2 39h63q0 -8 7 -20.5 t38 -16.5q37 -6 130 -6h204h120.5t117.5 2q61 0 120 2q-37 -51 -84 -121q-41 -59 -99 -146t-132 -202q-53 -80 -95 -148.5t-75 -119.5q-37 -59 -68 -107q33 -2 66 -2q29 -2 61.5 -2h61.5q82 0 142.5 5t100 25.5t61 62.5t26.5 114h69q-4 -33 -6 -65q-4 -29 -5 -60t-3 -57 q-2 -18 -3 -39t-1 -39q-2 -23 -2 -43h-178q-72 0 -139.5 1t-94.5 1q-70 0 -149.5 -1t-149.5 -1q-82 -2 -164 -2z" />
<glyph unicode="{" horiz-adv-x="745" d="M98 487v68q49 0 80 13.5t49.5 54.5t25.5 116.5t7 202.5v176q0 82 11.5 141.5t54.5 102.5q47 47 124.5 69.5t219.5 22.5v-74q-51 0 -101.5 -9t-87.5 -58q-18 -23 -24 -68t-6 -106q0 -45 2 -101.5t2 -128.5q0 -121 -33 -193.5t-74 -113.5q-47 -49 -106 -70q59 -20 106 -69 q41 -41 74 -116t33 -193q0 -74 -2 -130.5t-2 -99.5q0 -59 4 -103t26 -81q31 -53 78 -65.5t111 -12.5v-74h-72q-98 2 -164.5 21.5t-114.5 64.5q-41 41 -51 96.5t-10 129.5q0 39 1 83t1 97q0 127 -7 207t-25.5 124t-49.5 60t-80 16z" />
<glyph unicode="|" horiz-adv-x="561" d="M201 -516v1878h159v-1878h-159z" />
<glyph unicode="}" horiz-adv-x="745" d="M76 -338q51 0 101 9.5t87 58.5q18 23 24.5 67.5t6.5 106.5q0 45 -2 101t-2 128q0 119 32.5 192.5t73.5 114.5q47 49 107 70q-59 20 -107 70q-41 41 -73.5 114.5t-32.5 194.5q0 74 2 130t2 99q0 59 -4 103.5t-27 81.5q-31 53 -78 65t-110 12v74h71q98 -2 165 -21.5 t114 -64.5q41 -41 51 -96t10 -129q0 -39 -1 -83t-1 -97q0 -127 7.5 -207t26 -124t49 -60.5t79.5 -16.5v-68q-49 0 -79.5 -13t-49 -54t-26 -117t-7.5 -203v-176q0 -82 -11 -141t-54 -102q-47 -47 -125 -70t-219 -23v74z" />
<glyph unicode="~" horiz-adv-x="1124" d="M102 375q0 47 14.5 93t45.5 82t78 58.5t110 22.5t127 -29t129 -63q53 -29 106.5 -53.5t102.5 -24.5q68 0 96.5 41t28.5 84h84q0 -47 -15.5 -94.5t-46 -84t-76.5 -59t-110 -22.5q-59 0 -122.5 28.5t-127.5 63.5q-55 29 -109.5 53.5t-105.5 24.5q-70 0 -97.5 -39t-27.5 -82 h-84z" />
<glyph unicode="&#xa1;" horiz-adv-x="532" d="M133 -414q4 53 10.5 125t12.5 154t11 167t11 167q12 190 27 399h123q2 -68 8 -195t15 -274t18.5 -292.5t15.5 -250.5h-252zM141 850q0 47 36 81t89 34t89 -34t36 -81t-36 -81t-89 -34t-89 34t-36 81z" />
<glyph unicode="&#xa2;" horiz-adv-x="1087" d="M135 637q0 113 35 199t91 148.5t128 101t148 57.5l-2 166h92l-2 -152h20q8 0 16.5 1t16.5 1q49 0 94 -11t79 -29.5t54.5 -42t20.5 -50.5q0 -45 -33 -68.5t-74 -23.5q-31 0 -55.5 15.5t-47 36t-45 42t-50.5 31.5v-334v-395l16 -4q10 -2 49 -2q37 0 75 11t70.5 26.5 t59.5 34t43 32.5l31 -49q-158 -164 -340 -193l2 -168h-92l2 160h-17q-84 4 -154.5 41t-121.5 98.5t-80 143.5t-29 176zM354 725q0 -109 28 -178.5t62 -110.5q39 -49 93 -76v95q0 47 1 112.5t1 153.5v342q-53 -14 -93 -55q-35 -35 -63.5 -101.5t-28.5 -181.5z" />
<glyph unicode="&#xa3;" horiz-adv-x="1087" d="M31 74q23 10 47 26q20 12 46 32t52 46q41 41 75 105.5t57.5 135t36.5 135t13 105.5h-172v99h179q4 35 12 73q8 35 20.5 79t32.5 96q33 86 84 155.5t115.5 120.5t139.5 79t155 28q59 0 100 -26t41 -67q0 -37 -27.5 -67.5t-74.5 -30.5q-27 0 -46.5 7t-39 16.5t-42 17.5 t-53.5 8q-78 0 -123 -50t-59 -183q-4 -33 -6 -76t-2 -84v-96h278v-99h-284q0 -53 -17.5 -108t-44 -107.5t-59.5 -97.5t-64 -78q-10 -10 -23 -22.5t-24 -22.5q-14 -12 -26 -24h18q8 0 17.5 1t19.5 1q53 0 106.5 -7.5t105.5 -16.5t103.5 -16t102.5 -7q74 0 120 21.5t87 76.5 l47 -45q-78 -125 -166 -175t-213 -50q-61 0 -118.5 8t-115 19t-119 19.5t-130.5 8.5q-35 0 -61 -5t-42 -9q-20 -8 -35 -15z" />
<glyph unicode="&#xa4;" horiz-adv-x="1087" d="M61 315l136 136q-20 29 -37 65q-14 31 -24.5 75t-10.5 101q0 59 11 103.5t28 76.5q16 37 39 66l-142 143l97 97l141 -146q27 20 63 39q31 14 77 26.5t106 12.5q59 0 106 -12.5t78 -26.5q37 -16 64 -37l137 142l92 -93l-141 -139q20 -31 39 -67q16 -33 28.5 -79t12.5 -104 q0 -53 -11.5 -97t-25.5 -75q-16 -37 -37 -65l141 -142l-96 -96l-139 141q-31 -23 -68 -41q-33 -16 -79 -28t-103 -12q-63 0 -110.5 12t-80.5 28q-37 18 -65 41l-133 -137zM266 696q0 -147 79 -225t200 -78q119 0 195.5 78t76.5 223q0 74 -21.5 130.5t-59.5 94t-88 57 t-107 19.5q-117 0 -196 -77.5t-79 -221.5z" />
<glyph unicode="&#xa5;" horiz-adv-x="1087" d="M0 1296v66q27 -2 61 -2q29 -2 67 -2h83h78t78 2q41 0 82 2v-66q-51 0 -71 -8t-20 -35q0 -20 27 -74.5t76 -140.5l139 -243q16 35 35 69q16 29 32.5 64t32.5 65q33 66 56.5 130.5t23.5 97.5q0 43 -22.5 59t-65.5 16v66q37 -2 74 -2q31 -2 66.5 -2h66.5h58.5t60.5 2 q33 0 63 2v-66q-39 0 -59.5 -10t-32.5 -26t-28.5 -42t-40 -67t-57.5 -103.5t-85 -152.5q-18 -35 -38.5 -71t-37.5 -66q-20 -37 -38 -72v-106l299 4v-97l-299 2v-88l299 7v-97l-299 2q0 -43 2 -80q2 -33 4 -63.5t6 -44.5q10 -37 42 -49.5t89 -12.5v-63q-47 0 -92 2 q-41 0 -85 1t-85 1t-85 -1t-81 -1q-43 -2 -86 -2v63q51 0 83 8.5t44 49.5q4 16 7 49t5 66q2 37 2 77l-309 -2v97l311 -7v88l-311 -2v97l311 -4v43q-27 45 -57 98q-27 45 -60.5 104.5t-70.5 126.5q-18 33 -38 69t-38 69.5t-35.5 62.5t-32.5 49q-33 49 -56 71.5t-48 22.5z" />
<glyph unicode="&#xa6;" horiz-adv-x="561" d="M201 283h159v-799h-159v799zM201 563v799h159v-799h-159z" />
<glyph unicode="&#xa7;" horiz-adv-x="1087" d="M63 -311q0 37 30 58.5t69 21.5q55 0 88 -21.5t60.5 -47.5t58 -47.5t82.5 -21.5q117 0 183 58.5t66 144.5q0 78 -47 130t-137 110q-61 39 -123.5 74.5t-115 78.5t-85 97.5t-32.5 132.5q0 88 59.5 161.5t145.5 124.5q-37 23 -72 54.5t-62.5 72.5t-45 89.5t-17.5 105.5 q0 51 21.5 106.5t70.5 101.5t130 76.5t198 30.5q158 0 245 -44t87 -99q0 -41 -26 -63.5t-73 -22.5q-45 0 -77.5 22.5t-62.5 49t-62.5 49t-79.5 22.5q-39 0 -73 -13t-59.5 -36.5t-41 -54.5t-15.5 -66q0 -47 21.5 -91t68.5 -85q33 -29 79 -58.5t100.5 -63t110.5 -71.5t108 -83 q66 -57 90 -112t24 -114q0 -55 -18.5 -98t-47 -76.5t-64.5 -59.5t-72 -46q66 -53 111.5 -115.5t45.5 -159.5q0 -84 -46 -149.5t-118.5 -110.5t-161.5 -67.5t-173 -22.5q-74 0 -137.5 12.5t-109.5 32t-72 46t-26 57.5zM352 530q0 -61 25.5 -99t60.5 -66q14 -12 51 -37t78 -47 q47 -27 101 -58q23 16 43 39q16 18 30.5 47t14.5 68q0 72 -46 122t-112 95q-16 10 -41 26.5t-47 32.5q-27 18 -55 39q-29 -20 -52 -45q-20 -23 -35.5 -52.5t-15.5 -64.5z" />
<glyph unicode="&#xa8;" d="M223 1225q0 45 32 76.5t83 31.5q59 0 89 -32.5t30 -75.5t-34 -74t-85 -31q-53 0 -84 30t-31 75zM631 1225q0 45 31.5 76.5t82.5 31.5q57 0 87 -32.5t30 -75.5t-33.5 -74t-83.5 -31q-53 0 -83.5 30t-30.5 75z" />
<glyph unicode="&#xa9;" horiz-adv-x="1613" d="M100 678q0 147 50.5 271t142.5 218q94 102 228 157.5t286 55.5q160 0 293 -56t229 -157q88 -94 136 -220t48 -269q0 -150 -55 -281t-153 -227q-94 -92 -222.5 -142.5t-275.5 -50.5q-145 0 -269 47.5t-219 133.5q-104 94 -161.5 227t-57.5 293zM203 680q0 -135 48 -252 t136 -203q78 -78 184.5 -120t237.5 -42q129 0 235.5 41t186.5 117q90 86 136 205t46 254q0 129 -45 241.5t-129 198.5q-80 82 -188.5 129t-241.5 47q-135 0 -247.5 -48t-196.5 -134q-78 -84 -120 -194.5t-42 -239.5zM379 672q0 80 29.5 155.5t91 136t155 97.5t217.5 37 q84 0 131.5 -5.5t75.5 -5.5h19q4 0 8 3q-2 -10 -2 -19v-31v-48t2 -48q0 -25 2 -49h-53q0 78 -52.5 109.5t-144.5 31.5q-141 0 -220 -96t-79 -270q0 -150 81 -238t245 -88q43 0 79.5 5t65.5 13q33 8 60 21l12 -53q-35 -16 -76 -29q-35 -10 -83 -19.5t-107 -9.5 q-125 0 -212 37t-141.5 94.5t-79 129t-24.5 139.5z" />
<glyph unicode="&#xaa;" horiz-adv-x="659" d="M76 926q0 68 48 105.5t120 55.5q29 6 52 11.5t42 9.5q23 4 41 6v76q0 53 -13.5 86t-50.5 33t-55 -19.5t-31.5 -44t-30 -44t-46.5 -19.5q-20 0 -36 11t-16 34q0 20 22.5 44.5t58.5 45t81 35t90 14.5q72 0 114 -38t42 -116q0 -43 -3 -107.5t-3 -148.5q0 -92 43 -92 q10 0 22.5 6.5t16.5 10.5l14 -45q-10 -6 -34.5 -16.5t-47.5 -18.5q-27 -14 -51 -23q-14 -6 -27 -10q-14 8 -24 20q-10 10 -19.5 29t-13.5 47q-12 -14 -31.5 -30.5t-42 -31t-47 -23.5t-47.5 -9q-59 0 -98 43t-39 113zM205 948q0 -31 18.5 -59.5t52.5 -28.5q20 0 38 8.5 t32 18.5q16 12 29 28l4 150q-18 -2 -37 -6q-16 -4 -32.5 -7t-26.5 -8q-78 -25 -78 -96z" />
<glyph unicode="&#xab;" horiz-adv-x="768" d="M51 475l244 338l72 -45l-166 -293l164 -295l-70 -45zM326 475l243 338l72 -45l-166 -293l164 -295l-70 -45z" />
<glyph unicode="&#xac;" horiz-adv-x="1124" d="M119 594v108q100 -2 186 -2h248h250q94 0 205 2q-2 -27 -2 -63v-162v-168q0 -39 2 -76h-117v76q0 35 1 78t1 90v117h-152q-59 0 -114.5 1t-73.5 1q-31 0 -102.5 -1t-145.5 -1h-186z" />
<glyph unicode="&#xad;" horiz-adv-x="643" d="M53 393v139h537v-139h-537z" />
<glyph unicode="&#xae;" horiz-adv-x="1613" d="M100 678q0 147 50.5 271t142.5 218q94 102 228 157.5t286 55.5q160 0 293 -56t229 -157q88 -94 136 -220t48 -269q0 -150 -55 -281t-153 -227q-94 -92 -222.5 -142.5t-275.5 -50.5q-145 0 -269 47.5t-219 133.5q-104 94 -161.5 227t-57.5 293zM203 680q0 -135 48 -252 t136 -203q78 -78 184.5 -120t237.5 -42q129 0 235.5 41t186.5 117q90 86 136 205t46 254q0 129 -45 241.5t-129 198.5q-80 82 -188.5 129t-241.5 47q-135 0 -247.5 -48t-196.5 -134q-78 -84 -120 -194.5t-42 -239.5zM430 1036v45h172q49 0 112.5 1t106.5 1q57 0 107.5 -10 t88.5 -32.5t59.5 -58.5t21.5 -85q0 -61 -29 -103t-63 -69q-39 -31 -91 -47q4 -6 15.5 -22.5t27 -38t32 -44t32.5 -41.5q47 -59 83 -100t58 -61q18 -16 36 -26.5t40 -10.5v-47h-39q-16 0 -39.5 1t-46.5 1q-12 0 -29.5 -1t-33.5 -1h-39q-31 39 -56 73q-23 29 -45 59t-34 46 q-18 23 -39 52.5t-39 55.5q-23 31 -43 62h-80v-123q0 -47 1 -89t5 -50q14 -39 84 -39v-47q-31 0 -59 2q-27 0 -55.5 1t-55.5 1t-54.5 -1t-52.5 -1q-29 -2 -57 -2v47q33 0 49.5 7t26.5 32q4 8 6 27.5t3 58.5t1 100.5v153.5v141t-1 83t-3 43t-4 19q-8 23 -26.5 30t-53.5 7z M676 696l16 -4t19.5 -2h27.5q31 0 65 8.5t60.5 29t44 55t17.5 87.5q0 45 -14.5 75t-39 47.5t-54.5 24.5t-60 7q-16 0 -31.5 -1t-26.5 -1h-24v-326z" />
<glyph unicode="&#xaf;" d="M209 1296v109q59 -2 119 -2q49 -2 105 -2h99h101.5t109.5 2q59 0 123 2v-109h-123q-53 0 -109 1t-102 1q-43 0 -99 -1t-105 -1h-119z" />
<glyph unicode="&#xb0;" horiz-adv-x="634" d="M70 1188q0 49 19.5 91t53 74.5t78.5 51t98 18.5q111 0 178.5 -65.5t67.5 -169.5q0 -102 -70.5 -169t-181.5 -67q-121 0 -182 66.5t-61 169.5zM170 1188q0 -70 41 -110t106 -40q66 0 106 42t40 108q0 63 -40 105t-106 42t-106.5 -43t-40.5 -104z" />
<glyph unicode="&#xb1;" horiz-adv-x="1124" d="M162 0v113h801v-113h-801zM164 539v112h338v340h112v-340h342v-112h-342v-340h-112v340h-338z" />
<glyph unicode="&#xb2;" horiz-adv-x="792" d="M74 479q31 27 67 62q31 29 68 67.5t78 85.5q43 49 82 99.5t69.5 101.5t48 103.5t17.5 105.5q0 84 -39 123t-98 39q-47 0 -84 -18.5t-64 -41.5q-31 -25 -53 -57l-41 43q27 51 72 90q39 35 98 62.5t145 27.5q117 0 186.5 -57.5t69.5 -167.5q0 -88 -52 -171t-128 -169 q-27 -31 -58.5 -62.5t-61 -60.5t-53.5 -51.5t-36 -34.5h193h56t71 2q39 2 84 4v-127h-107q-47 0 -98 1t-94 1h-338z" />
<glyph unicode="&#xb3;" horiz-adv-x="792" d="M131 1241q27 37 68 66q35 25 88 45t125 20q111 0 166 -49t55 -127q0 -45 -27.5 -82t-61.5 -62.5t-67 -42t-41 -18.5q16 0 56 -6t81 -27.5t72 -61.5t31 -108q0 -53 -18.5 -94t-51.5 -73q-51 -53 -123.5 -85t-140.5 -49q-80 -20 -164 -28l-35 67q94 10 170 39 q31 12 62 28.5t55.5 39t38.5 52.5t14 67q0 82 -43 120.5t-96 38.5q-16 0 -29.5 -2t-23.5 -6q-12 -4 -23 -6l-14 64q20 8 41 16q16 8 36.5 19.5t37.5 27.5q74 57 73 127q0 49 -28.5 83t-89.5 34q-35 0 -63 -11.5t-48 -23.5q-23 -14 -41 -33z" />
<glyph unicode="&#xb4;" d="M313 1087q35 61 72 117q31 47 69 99.5t72 87.5q41 41 80 66.5t76 25.5q31 0 54.5 -18.5t23.5 -49.5q0 -49 -60 -102q-23 -20 -77 -58t-111 -75q-68 -43 -143 -93h-56z" />
<glyph unicode="&#xb5;" horiz-adv-x="1107" d="M53 825v45h25q35 0 59.5 -2t59.5 -2q31 0 51 2t51 2h27v-585q0 -92 41 -137.5t143 -45.5q49 0 103.5 14.5t99.5 43.5v493q0 55 -3 89t-14.5 52.5t-33 24.5t-56.5 6h-18v45h28q35 0 57.5 -2t57.5 -2q31 0 51.5 2t51.5 2h28v-591q0 -61 5 -101.5t15.5 -62t27 -29.5t38.5 -8 q45 0 62.5 16.5t40.5 44.5h36q-14 -57 -38.5 -93t-55 -55.5t-64.5 -26.5t-67 -7q-39 0 -64.5 14.5t-42 37t-26.5 50t-16 54.5q-12 -12 -41 -35t-68 -44.5t-88 -37.5t-102 -16q-117 0 -172 61v-57q0 -41 9 -79t19.5 -73t19.5 -65.5t9 -57.5q0 -70 -27.5 -97.5t-62.5 -27.5 t-58.5 29t-23.5 96q0 27 7 57.5t16.5 65.5t17.5 73t8 79v669q0 55 -4 89t-15.5 52.5t-33 24.5t-55.5 6h-15z" />
<glyph unicode="&#xb6;" horiz-adv-x="1257" d="M115 842q0 143 53 247.5t143 170t209 97.5t252 32q55 0 120.5 -4.5t121.5 -8.5q66 -6 131 -10l-10 -86h-107q-2 -100 -4 -209q-2 -94 -4 -210t-4 -236q0 -84 1 -176.5t2 -188.5t3 -190.5t4 -180.5q4 -203 10 -405h-141q-2 199 -4 401q0 86 -1 180.5t-1 190.5v188.5v176.5 q0 88 -1 201.5t-3 215.5q-2 119 -2 242h-117q-2 -96 -2 -205q0 -92 -1 -209.5t1 -240.5v-172.5t1 -187.5l2 -190t1 -181q2 -203 2 -410h-141l6 954q-12 -6 -31 -12q-35 -10 -100 -10q-68 0 -137.5 19.5t-125 67.5t-91 130t-35.5 209z" />
<glyph unicode="&#xb7;" horiz-adv-x="1087" d="M420 688q0 51 36 87t87 36t87 -36t36 -87t-36 -86t-87 -35t-87 35t-36 86z" />
<glyph unicode="&#xb8;" d="M350 -481l2 55q6 -2 15 -2h30q27 0 63 4t67.5 17.5t54 37t22.5 62.5q0 61 -37 81.5t-80 20.5q-16 0 -32.5 -2t-30.5 -6q-16 -4 -31 -8l156 287l76 -25l-93 -170q10 2 23 4q10 2 25.5 3t33.5 1q31 0 62 -9t55.5 -27.5t39.5 -46t15 -64.5q0 -57 -30.5 -98.5t-80.5 -68 t-112.5 -38.5t-126.5 -12h-26.5t-28.5 2q-16 0 -31 2z" />
<glyph unicode="&#xb9;" horiz-adv-x="792" d="M160 1268q33 10 65 18q29 8 60.5 17.5t58.5 19.5q20 6 47 15.5t51.5 18.5t44 16t25.5 11q-2 -53 -4 -161.5t-2 -251.5v-148.5t1 -121t2 -86t3 -42.5q4 -16 35 -24t82 -8v-62h-76q-33 0 -68.5 1t-64.5 1t-65 -1t-66 -1h-74v62q47 0 72.5 4t31.5 24q6 23 8.5 108t2.5 236 v252q0 63 -41 64q-16 0 -34.5 -4t-35.5 -8q-20 -6 -39 -13z" />
<glyph unicode="&#xba;" horiz-adv-x="712" d="M51 1063q0 63 23.5 119.5t66.5 96.5t102.5 63.5t133.5 23.5q61 0 112.5 -22.5t89 -61.5t59 -91.5t21.5 -113.5q0 -59 -21.5 -114.5t-62 -98.5t-99 -68.5t-132.5 -25.5q-68 0 -122 23.5t-92 64.5t-58.5 93.5t-20.5 111.5zM205 1098q0 -53 9 -102.5t27.5 -88.5t48 -61.5 t70.5 -22.5q70 0 108 59.5t38 161.5q0 53 -9.5 101.5t-27.5 85.5t-47 59.5t-70 22.5q-37 0 -64.5 -18.5t-46 -48t-27.5 -68.5t-9 -80z" />
<glyph unicode="&#xbb;" horiz-adv-x="768" d="M150 180l161 295l-161 293l67 45l246 -338l-246 -342zM426 180l162 295l-162 293l68 45l245 -338l-245 -342z" />
<glyph unicode="&#xbc;" horiz-adv-x="1585" d="M37 1268q33 10 65 18q29 8 61 17.5t58 19.5q20 6 47 15.5t51.5 18.5t44 16t25.5 11q-2 -53 -4 -161.5t-2 -251.5v-148.5t1 -121t2 -86t3 -42.5q4 -16 35 -24t82 -8v-62h-76q-33 0 -68.5 1t-64.5 1t-64.5 -1t-66.5 -1h-74v62q47 0 72.5 4t32.5 24q6 23 8 108t2 236v252 q0 63 -41 64q-16 0 -34.5 -4t-35.5 -8q-20 -6 -39 -13zM236 -33l196 262q41 55 87 118t92 125.5t91.5 123.5t85.5 117q70 94 154 210.5t158 221.5q86 121 174 241h133q-92 -125 -184 -251q-78 -109 -168 -232t-164 -225q-37 -51 -79 -108.5t-86 -117t-87 -119t-82 -112.5 l-184 -254h-137zM780 240l475 653h115q-2 -74 -2 -143v-254v-86q0 -25 2 -50l152 2v-120h-154l2 -242h-164l2 242zM963 360h245v50q0 20 1 42.5t1 43.5v204z" />
<glyph unicode="&#xbd;" horiz-adv-x="1585" d="M29 1268q33 10 65 18q29 8 60.5 17.5t58.5 19.5q20 6 47 15.5t51.5 18.5t44 16t25.5 11q-2 -53 -4 -161.5t-2 -251.5v-148.5t1 -121t2 -86t3 -42.5q4 -16 34.5 -24t82.5 -8v-62h-76q-33 0 -69 1t-64 1q-29 0 -65 -1t-66 -1h-74v62q47 0 72.5 4t31.5 24q6 23 8.5 108 t2.5 236v252q0 63 -41 64q-16 0 -35 -4t-35 -8q-20 -6 -39 -13zM184 -33q98 131 197 262q41 55 87 118t92 125.5t91 123.5t86 117q70 94 154 210.5t158 221.5q86 121 174 241h133q-92 -125 -185 -251q-78 -109 -168 -232t-163 -225q-37 -51 -79 -108.5t-86 -117t-87 -119 t-82 -112.5l-184 -254h-138zM907 2q31 27 68 61q31 29 67.5 68t77.5 86q43 49 82 99.5t70 101.5t48 103t17 106q0 84 -38.5 122.5t-98.5 38.5q-47 0 -84 -18t-63 -41q-31 -25 -54 -57l-41 43q27 51 72 90q39 35 98.5 62.5t145.5 27.5q117 0 186.5 -57.5t69.5 -167.5 q0 -88 -52.5 -171t-127.5 -169q-27 -31 -58.5 -62.5t-61.5 -60.5t-53.5 -51.5t-35.5 -34.5h192h56t71 2q39 2 84 4v-127h-106q-47 0 -98.5 1t-94.5 1h-338z" />
<glyph unicode="&#xbe;" horiz-adv-x="1585" d="M72 1241q27 37 67 66q35 25 88.5 45t124.5 20q111 0 166 -49t55 -127q0 -45 -27.5 -82t-61 -62.5t-66.5 -42t-41 -18.5q16 0 56 -6t81 -27.5t71.5 -61.5t30.5 -108q0 -53 -18 -94t-51 -73q-51 -53 -124 -85t-140 -49q-80 -20 -164 -28l-35 67q94 10 170 39 q31 12 61.5 28.5t55 39t39 52.5t14.5 67q0 82 -43 120.5t-96 38.5q-16 0 -29.5 -2t-24.5 -6q-12 -4 -22 -6l-14 64q20 8 41 16q16 8 36.5 19.5t36.5 27.5q74 57 74 127q0 49 -28.5 83t-90.5 34q-35 0 -62.5 -11.5t-47.5 -23.5q-23 -14 -41 -33zM236 -33l196 262 q41 55 87 118t92 125.5t91.5 123.5t85.5 117q70 94 154 210.5t158 221.5q86 121 174 241h133q-92 -125 -184 -251q-78 -109 -168 -232t-164 -225q-37 -51 -79 -108.5t-86 -117t-87 -119t-82 -112.5l-184 -254h-137zM780 240l475 653h115q-2 -74 -2 -143v-254v-86 q0 -25 2 -50l152 2v-120h-154l2 -242h-164l2 242zM963 360h245v48q0 20 1 42.5t1 41.5v208z" />
<glyph unicode="&#xbf;" horiz-adv-x="768" d="M72 -59q0 88 29.5 146t72.5 97t91 63.5t87 45.5q25 14 42.5 26.5t27.5 32.5q14 23 20.5 65t10.5 83q4 47 2 98h120l5 -387q-39 0 -94.5 -16.5t-106.5 -52.5t-88 -94t-37 -140q0 -66 16.5 -110t42 -71.5t56 -39t59.5 -11.5q39 0 63.5 16.5t46 36t46 36t65.5 16.5 q23 0 43.5 -10t30.5 -39t-6.5 -59.5t-53 -55.5t-89 -40t-111.5 -15q-72 0 -141.5 27.5t-125 77.5t-90 120t-34.5 154zM389 850q0 47 36 81t89 34t89 -34t36 -81t-36 -81t-89 -34t-89 34t-36 81z" />
<glyph unicode="&#xc0;" horiz-adv-x="1492" d="M12 0v63q66 0 103 24t75 89q14 25 40 81t60 130t70.5 159t73.5 167q49 109 103.5 230.5t100.5 228t79 183.5t37 95q4 -12 23.5 -60.5t49 -118t65.5 -152.5t71.5 -167t67.5 -159.5t54 -128.5q23 -53 52.5 -123t60.5 -140.5t58.5 -131t43.5 -93.5q18 -37 35 -59.5t34 -33.5 t35.5 -15.5t43.5 -4.5v-63q-70 0 -131 2q-53 0 -102.5 1t-67.5 1q-37 0 -80 -1t-80 -1q-43 -2 -84 -2v63q63 0 101 15.5t38 54.5q0 33 -22.5 95.5t-50.5 133.5q-10 23 -22.5 53.5t-24.5 59.5q-14 35 -29 70h-420q-16 -41 -35 -80q-16 -35 -32.5 -74t-28.5 -69 q-18 -47 -35.5 -95.5t-17.5 -74.5q0 -47 42 -68t136 -21v-63h-129q-51 0 -97.5 1t-58.5 1q-25 0 -59.5 -1t-67.5 -1h-78zM381 1829q0 31 23.5 49t54.5 18q37 0 75.5 -25.5t79.5 -66.5q35 -35 71 -87t69 -99q37 -55 73 -117h-55q-78 49 -145 92q-57 37 -110.5 75t-76.5 58 q-59 53 -59 103zM506 639h350q-18 45 -47 111.5t-55.5 130t-48 111.5t-25.5 57q-4 -10 -26.5 -62.5t-51.5 -119t-56.5 -131t-39.5 -97.5z" />
<glyph unicode="&#xc1;" horiz-adv-x="1492" d="M12 0v63q66 0 103 24t75 89q14 25 40 81t60 130t70.5 159t73.5 167q49 109 103.5 230.5t100.5 228t79 183.5t37 95q4 -12 23.5 -60.5t49 -118t65.5 -152.5t71.5 -167t67.5 -159.5t54 -128.5q23 -53 52.5 -123t60.5 -140.5t58.5 -131t43.5 -93.5q18 -37 35 -59.5t34 -33.5 t35.5 -15.5t43.5 -4.5v-63q-70 0 -131 2q-53 0 -102.5 1t-67.5 1q-37 0 -80 -1t-80 -1q-43 -2 -84 -2v63q63 0 101 15.5t38 54.5q0 33 -22.5 95.5t-50.5 133.5q-10 23 -22.5 53.5t-24.5 59.5q-14 35 -29 70h-420q-16 -41 -35 -80q-16 -35 -32.5 -74t-28.5 -69 q-18 -47 -35.5 -95.5t-17.5 -74.5q0 -47 42 -68t136 -21v-63h-129q-51 0 -97.5 1t-58.5 1q-25 0 -59.5 -1t-67.5 -1h-78zM506 639h350q-18 45 -47 111.5t-55.5 130t-48 111.5t-25.5 57q-4 -10 -26.5 -62.5t-51.5 -119t-56.5 -131t-39.5 -97.5zM694 1526q35 61 72 116 q31 47 68.5 99.5t72.5 87.5q41 41 80 66.5t76 25.5q31 0 54.5 -18.5t23.5 -49.5q0 -49 -60 -102q-23 -20 -77 -58t-111 -75q-68 -43 -143 -92h-56z" />
<glyph unicode="&#xc2;" horiz-adv-x="1492" d="M12 0v63q66 0 103 24t75 89q14 25 40 81t60 130t70.5 159t73.5 167q49 109 103.5 230.5t100.5 228t79 183.5t37 95q4 -12 23.5 -60.5t49 -118t65.5 -152.5t71.5 -167t67.5 -159.5t54 -128.5q23 -53 52.5 -123t60.5 -140.5t58.5 -131t43.5 -93.5q18 -37 35 -59.5t34 -33.5 t35.5 -15.5t43.5 -4.5v-63q-70 0 -131 2q-53 0 -102.5 1t-67.5 1q-37 0 -80 -1t-80 -1q-43 -2 -84 -2v63q63 0 101 15.5t38 54.5q0 33 -22.5 95.5t-50.5 133.5q-10 23 -22.5 53.5t-24.5 59.5q-14 35 -29 70h-420q-16 -41 -35 -80q-16 -35 -32.5 -74t-28.5 -69 q-18 -47 -35.5 -95.5t-17.5 -74.5q0 -47 42 -68t136 -21v-63h-129q-51 0 -97.5 1t-58.5 1q-25 0 -59.5 -1t-67.5 -1h-78zM457 1442v59l252 307h92l260 -307v-59l-305 186zM506 639h350q-18 45 -47 111.5t-55.5 130t-48 111.5t-25.5 57q-4 -10 -26.5 -62.5t-51.5 -119 t-56.5 -131t-39.5 -97.5z" />
<glyph unicode="&#xc3;" horiz-adv-x="1492" d="M12 0v63q66 0 103 24t75 89q14 25 40 81t60 130t70.5 159t73.5 167q49 109 103.5 230.5t100.5 228t79 183.5t37 95q4 -12 23.5 -60.5t49 -118t65.5 -152.5t71.5 -167t67.5 -159.5t54 -128.5q23 -53 52.5 -123t60.5 -140.5t58.5 -131t43.5 -93.5q18 -37 35 -59.5t34 -33.5 t35.5 -15.5t43.5 -4.5v-63q-70 0 -131 2q-53 0 -102.5 1t-67.5 1q-37 0 -80 -1t-80 -1q-43 -2 -84 -2v63q63 0 101 15.5t38 54.5q0 33 -22.5 95.5t-50.5 133.5q-10 23 -22.5 53.5t-24.5 59.5q-14 35 -29 70h-420q-16 -41 -35 -80q-16 -35 -32.5 -74t-28.5 -69 q-18 -47 -35.5 -95.5t-17.5 -74.5q0 -47 42 -68t136 -21v-63h-129q-51 0 -97.5 1t-58.5 1q-25 0 -59.5 -1t-67.5 -1h-78zM418 1516q-2 49 10 96t39 83t66.5 58.5t93.5 22.5q55 0 99 -19.5t83 -42.5q45 -29 79 -53.5t68 -24.5q47 0 70 36t27 93l59 7q0 -51 -13.5 -99.5 t-40 -85.5t-66.5 -58.5t-93 -21.5q-51 0 -96 19.5t-84 44.5q-45 27 -81 52.5t-71 25.5q-47 0 -67.5 -36t-22.5 -93zM506 639h350q-18 45 -47 111.5t-55.5 130t-48 111.5t-25.5 57q-4 -10 -26.5 -62.5t-51.5 -119t-56.5 -131t-39.5 -97.5z" />
<glyph unicode="&#xc4;" horiz-adv-x="1492" d="M12 0v63q66 0 103 24t75 89q14 25 40 81t60 130t70.5 159t73.5 167q49 109 103.5 230.5t100.5 228t79 183.5t37 95q4 -12 23.5 -60.5t49 -118t65.5 -152.5t71.5 -167t67.5 -159.5t54 -128.5q23 -53 52.5 -123t60.5 -140.5t58.5 -131t43.5 -93.5q18 -37 35 -59.5t34 -33.5 t35.5 -15.5t43.5 -4.5v-63q-70 0 -131 2q-53 0 -102.5 1t-67.5 1q-37 0 -80 -1t-80 -1q-43 -2 -84 -2v63q63 0 101 15.5t38 54.5q0 33 -22.5 95.5t-50.5 133.5q-10 23 -22.5 53.5t-24.5 59.5q-14 35 -29 70h-420q-16 -41 -35 -80q-16 -35 -32.5 -74t-28.5 -69 q-18 -47 -35.5 -95.5t-17.5 -74.5q0 -47 42 -68t136 -21v-63h-129q-51 0 -97.5 1t-58.5 1q-25 0 -59.5 -1t-67.5 -1h-78zM428 1614q0 45 32 76.5t83 31.5q59 0 89 -32.5t30 -75.5t-34 -74t-85 -31q-53 0 -84 30t-31 75zM506 639h350q-18 45 -47 111.5t-55.5 130t-48 111.5 t-25.5 57q-4 -10 -26.5 -62.5t-51.5 -119t-56.5 -131t-39.5 -97.5zM836 1614q0 45 31.5 76.5t82.5 31.5q57 0 87 -32.5t30 -75.5t-34 -74t-83 -31q-53 0 -83.5 30t-30.5 75z" />
<glyph unicode="&#xc5;" horiz-adv-x="1492" d="M12 0v63q66 0 103 24t75 89q14 25 40 81t60 130t70.5 159t73.5 167q49 109 103.5 230.5t100.5 228t79 183.5t37 95q4 -12 23.5 -60.5t49 -118t65.5 -152.5t71.5 -167t67.5 -159.5t54 -128.5q23 -53 52.5 -123t60.5 -140.5t58.5 -131t43.5 -93.5q18 -37 35 -59.5t34 -33.5 t35.5 -15.5t43.5 -4.5v-63q-70 0 -131 2q-53 0 -102.5 1t-67.5 1q-37 0 -80 -1t-80 -1q-43 -2 -84 -2v63q63 0 101 15.5t38 54.5q0 33 -22.5 95.5t-50.5 133.5q-10 23 -22.5 53.5t-24.5 59.5q-14 35 -29 70h-420q-16 -41 -35 -80q-16 -35 -32.5 -74t-28.5 -69 q-18 -47 -35.5 -95.5t-17.5 -74.5q0 -47 42 -68t136 -21v-63h-129q-51 0 -97.5 1t-58.5 1q-25 0 -59.5 -1t-67.5 -1h-78zM506 639h350q-18 45 -47 111.5t-55.5 130t-48 111.5t-25.5 57q-4 -10 -26.5 -62.5t-51.5 -119t-56.5 -131t-39.5 -97.5zM539 1714q0 92 61.5 153.5 t153.5 61.5q94 0 154.5 -61.5t60.5 -153.5q0 -45 -16.5 -84t-46 -68.5t-68.5 -46t-84 -16.5q-94 0 -154.5 61.5t-60.5 153.5zM635 1712q0 -51 32.5 -88t86.5 -37q53 0 85.5 37t32.5 88q0 49 -32.5 87t-85.5 38q-59 0 -89 -38t-30 -87z" />
<glyph unicode="&#xc6;" horiz-adv-x="1959" d="M37 0v63q78 0 148.5 56.5t156.5 169.5q66 86 148.5 197.5t160.5 222.5q53 76 119 170t125 180q68 98 139 198q-8 10 -22 19q-14 8 -37 14t-62 6v66q51 -2 105 -2q45 -2 97 -2h97q55 0 125 1t143.5 2t147.5 3t135 2h39q10 0 23 2q-2 -16 -2 -31v-51v-131q0 -29 2 -51h-70 q0 55 -11 88t-37 49t-67 20.5t-98 4.5q-20 0 -61 -1t-84 -1q-51 -2 -107 -2v-517q31 -2 64 -2h119q53 0 92 3.5t59 15.5q14 10 23.5 29.5t13.5 42.5q6 25 8 53h72q-2 -35 -2 -72q-2 -31 -2 -64.5v-56.5v-58.5t2 -60.5q0 -35 2 -69h-70q0 18 -2 37q-4 16 -9 33.5t-18 33.5 q-23 25 -67.5 31t-97.5 6h-187v-299q0 -102 5 -147t20 -62q8 -10 20.5 -18t36 -13.5t60 -8.5t96.5 -3q74 0 133 11.5t96 46.5q16 16 27.5 38.5t17.5 45.5q8 25 10 53h72q-2 -31 -2 -64v-139v-55q0 -19 2 -37q-125 0 -252 2q-109 2 -233.5 3t-229.5 1q-33 0 -74.5 -1 t-80.5 -1h-94v63q53 0 81.5 13.5t42.5 54.5q4 12 7.5 41t4.5 68t3 84t2 90q2 106 0 233h-334q-41 -57 -82 -117q-35 -51 -75 -111.5t-74 -115.5q-45 -72 -58.5 -109.5t-13.5 -60.5q0 -29 24.5 -49.5t92.5 -20.5v-63h-131q-51 0 -98.5 1t-59.5 1q-25 0 -60.5 -1t-70.5 -1h-84 zM780 741h281l-2 398z" />
<glyph unicode="&#xc7;" horiz-adv-x="1320" d="M100 670q0 186 86 349t267 265q90 51 196.5 74.5t235.5 23.5q68 0 117 -2t86.5 -5t65.5 -5t50 -2h29q6 0 10 2q-2 -18 -2 -37v-59v-154q0 -37 2 -71h-74q0 135 -82.5 187t-224.5 52q-211 0 -340 -137q-72 -78 -111.5 -197.5t-39.5 -275.5q0 -141 31.5 -253t98 -188.5 t169 -117.5t245.5 -41q59 0 113.5 9t95.5 19q49 12 93 31l18 -69q-49 -25 -111 -43q-53 -16 -125.5 -29.5t-158.5 -15.5l-60 -109q10 2 23 4q10 2 25.5 3t33.5 1q31 0 61.5 -9t55.5 -27.5t40 -46t15 -64.5q0 -57 -30.5 -98.5t-81 -68t-112.5 -38.5t-126 -12h-26.5t-28.5 2 q-16 0 -31 2l2 55q6 -2 14 -2h31q27 0 62.5 4t67.5 17.5t54.5 37t22.5 62.5q0 61 -37 81.5t-80 20.5q-16 0 -32.5 -2t-30.5 -6q-16 -4 -31 -8l111 203q-184 12 -309.5 79.5t-201 166t-108.5 215t-33 227.5z" />
<glyph unicode="&#xc8;" horiz-adv-x="1112" d="M61 1296v66q51 -2 105 -2q45 -2 96 -2h96q55 0 127 1t147 2t149.5 3t136.5 2h38q10 0 23 2q-2 -16 -2 -31v-51v-131q0 -29 2 -51h-70q0 55 -11 88t-37.5 50.5t-67.5 21.5t-99 4q-20 0 -62 -1t-85 -3q-51 -2 -111 -2v-496q33 -2 66 -2h123q53 0 92 3t59 13 q14 10 23.5 29.5t13.5 42.5q6 25 8 55h72q-2 -35 -2 -71q-2 -31 -2 -65v-56v-59.5t2 -61.5q0 -35 2 -70h-70q0 18 -2 39q-4 16 -9 34.5t-17 33.5q-14 16 -49 26.5t-117 10.5h-193v-320q0 -78 4 -123t14.5 -69.5t26 -33.5t39.5 -13q25 -4 64 -8.5t96 -4.5q74 0 132 11.5 t97 46.5q18 16 29.5 39.5t17.5 46.5q8 25 9 51h71q-2 -31 -2 -64v-139v-55q0 -19 2 -37q-162 0 -305 2q-61 0 -123.5 1t-118 2t-101.5 1h-73q-33 0 -74.5 -1t-80.5 -1h-94v63q53 0 81.5 13.5t42.5 54.5q6 16 9.5 51t5.5 102.5t3 174t1 270.5v213t-1 146.5t-4 91t-9 51.5 q-12 39 -45 52t-89 13zM313 1804q0 31 23.5 49.5t54.5 18.5q37 0 76 -25.5t80 -66.5q35 -35 70.5 -87.5t68.5 -99.5q37 -55 74 -116h-55q-78 49 -146 92q-57 37 -110.5 74.5t-75.5 58.5q-59 53 -60 102z" />
<glyph unicode="&#xc9;" horiz-adv-x="1112" d="M61 1296v66q51 -2 105 -2q45 -2 96 -2h96q55 0 127 1t147 2t149.5 3t136.5 2h38q10 0 23 2q-2 -16 -2 -31v-51v-131q0 -29 2 -51h-70q0 55 -11 88t-37.5 50.5t-67.5 21.5t-99 4q-20 0 -62 -1t-85 -3q-51 -2 -111 -2v-496q33 -2 66 -2h123q53 0 92 3t59 13 q14 10 23.5 29.5t13.5 42.5q6 25 8 55h72q-2 -35 -2 -71q-2 -31 -2 -65v-56v-59.5t2 -61.5q0 -35 2 -70h-70q0 18 -2 39q-4 16 -9 34.5t-17 33.5q-14 16 -49 26.5t-117 10.5h-193v-320q0 -78 4 -123t14.5 -69.5t26 -33.5t39.5 -13q25 -4 64 -8.5t96 -4.5q74 0 132 11.5 t97 46.5q18 16 29.5 39.5t17.5 46.5q8 25 9 51h71q-2 -31 -2 -64v-139v-55q0 -19 2 -37q-162 0 -305 2q-61 0 -123.5 1t-118 2t-101.5 1h-73q-33 0 -74.5 -1t-80.5 -1h-94v63q53 0 81.5 13.5t42.5 54.5q6 16 9.5 51t5.5 102.5t3 174t1 270.5v213t-1 146.5t-4 91t-9 51.5 q-12 39 -45 52t-89 13zM362 1477q35 61 72 116q31 47 69 99.5t72 87.5q41 41 80 66.5t76 25.5q31 0 54.5 -18.5t23.5 -49.5q0 -49 -59 -102q-23 -20 -77.5 -58t-111.5 -75q-68 -43 -143 -92h-56z" />
<glyph unicode="&#xca;" horiz-adv-x="1112" d="M61 1296v66q51 -2 105 -2q45 -2 96 -2h96q55 0 127 1t147 2t149.5 3t136.5 2h38q10 0 23 2q-2 -16 -2 -31v-51v-131q0 -29 2 -51h-70q0 55 -11 88t-37.5 50.5t-67.5 21.5t-99 4q-20 0 -62 -1t-85 -3q-51 -2 -111 -2v-496q33 -2 66 -2h123q53 0 92 3t59 13 q14 10 23.5 29.5t13.5 42.5q6 25 8 55h72q-2 -35 -2 -71q-2 -31 -2 -65v-56v-59.5t2 -61.5q0 -35 2 -70h-70q0 18 -2 39q-4 16 -9 34.5t-17 33.5q-14 16 -49 26.5t-117 10.5h-193v-320q0 -78 4 -123t14.5 -69.5t26 -33.5t39.5 -13q25 -4 64 -8.5t96 -4.5q74 0 132 11.5 t97 46.5q18 16 29.5 39.5t17.5 46.5q8 25 9 51h71q-2 -31 -2 -64v-139v-55q0 -19 2 -37q-162 0 -305 2q-61 0 -123.5 1t-118 2t-101.5 1h-73q-33 0 -74.5 -1t-80.5 -1h-94v63q53 0 81.5 13.5t42.5 54.5q6 16 9.5 51t5.5 102.5t3 174t1 270.5v213t-1 146.5t-4 91t-9 51.5 q-12 39 -45 52t-89 13zM246 1442v59l252 307h92l260 -307v-59l-305 186z" />
<glyph unicode="&#xcb;" horiz-adv-x="1112" d="M61 1296v66q51 -2 105 -2q45 -2 96 -2h96q55 0 127 1t147 2t149.5 3t136.5 2h38q10 0 23 2q-2 -16 -2 -31v-51v-131q0 -29 2 -51h-70q0 55 -11 88t-37.5 50.5t-67.5 21.5t-99 4q-20 0 -62 -1t-85 -3q-51 -2 -111 -2v-496q33 -2 66 -2h123q53 0 92 3t59 13 q14 10 23.5 29.5t13.5 42.5q6 25 8 55h72q-2 -35 -2 -71q-2 -31 -2 -65v-56v-59.5t2 -61.5q0 -35 2 -70h-70q0 18 -2 39q-4 16 -9 34.5t-17 33.5q-14 16 -49 26.5t-117 10.5h-193v-320q0 -78 4 -123t14.5 -69.5t26 -33.5t39.5 -13q25 -4 64 -8.5t96 -4.5q74 0 132 11.5 t97 46.5q18 16 29.5 39.5t17.5 46.5q8 25 9 51h71q-2 -31 -2 -64v-139v-55q0 -19 2 -37q-162 0 -305 2q-61 0 -123.5 1t-118 2t-101.5 1h-73q-33 0 -74.5 -1t-80.5 -1h-94v63q53 0 81.5 13.5t42.5 54.5q6 16 9.5 51t5.5 102.5t3 174t1 270.5v213t-1 146.5t-4 91t-9 51.5 q-12 39 -45 52t-89 13zM231 1614q0 45 32 76.5t83 31.5q59 0 89 -32.5t30 -75.5t-34 -74t-85 -31q-53 0 -84 30t-31 75zM639 1614q0 45 31.5 76.5t83.5 31.5q57 0 86.5 -32.5t29.5 -75.5t-33.5 -74t-82.5 -31q-53 0 -84 30t-31 75z" />
<glyph unicode="&#xcc;" horiz-adv-x="645" d="M23 1804q0 31 23.5 49.5t53.5 18.5q37 0 76 -25.5t80 -66.5q35 -35 70.5 -87.5t68.5 -99.5q37 -55 74 -116h-55q-78 49 -146 92q-57 37 -110.5 74.5t-75.5 58.5q-59 53 -59 102zM63 1296v66q43 -2 89 -2q39 -2 86 -2h92q35 -2 78 -1t81 3q45 2 93 2v-66q-51 0 -82 -8 t-43 -43q-6 -16 -10.5 -45t-6.5 -83t-3 -141t-1 -222v-264.5t2 -184.5t5 -114.5t8 -55.5q20 -72 131 -72v-63q-45 0 -93 2q-41 0 -86 1t-86 1h-85t-80 -2q-43 -2 -86 -2v63q53 0 81.5 13.5t42.5 54.5q6 16 9.5 51t5.5 102.5t3 174t1 270.5v213t-1 146.5t-4 91t-9 51.5 q-12 39 -44 52t-88 13z" />
<glyph unicode="&#xcd;" horiz-adv-x="645" d="M63 1296v66q43 -2 89 -2q39 -2 86 -2h92q35 -2 78 -1t81 3q45 2 93 2v-66q-51 0 -82 -8t-43 -43q-6 -16 -10.5 -45t-6.5 -83t-3 -141t-1 -222v-264.5t2 -184.5t5 -114.5t8 -55.5q20 -72 131 -72v-63q-45 0 -93 2q-41 0 -86 1t-86 1h-85t-80 -2q-43 -2 -86 -2v63 q53 0 81.5 13.5t42.5 54.5q6 16 9.5 51t5.5 102.5t3 174t1 270.5v213t-1 146.5t-4 91t-9 51.5q-12 39 -44 52t-88 13zM270 1477q35 61 72 116q31 47 69 99.5t72 87.5q41 41 80 66.5t76 25.5q31 0 54.5 -18.5t23.5 -49.5q0 -49 -60 -102q-23 -20 -77 -58t-111 -75 q-68 -43 -143 -92h-56z" />
<glyph unicode="&#xce;" horiz-adv-x="645" d="M23 1442v59l251 307h93l260 -307v-59l-305 186zM63 1296v66q43 -2 89 -2q39 -2 86 -2h92q35 -2 78 -1t81 3q45 2 93 2v-66q-51 0 -82 -8t-43 -43q-6 -16 -10.5 -45t-6.5 -83t-3 -141t-1 -222v-264.5t2 -184.5t5 -114.5t8 -55.5q20 -72 131 -72v-63q-45 0 -93 2 q-41 0 -86 1t-86 1h-85t-80 -2q-43 -2 -86 -2v63q53 0 81.5 13.5t42.5 54.5q6 16 9.5 51t5.5 102.5t3 174t1 270.5v213t-1 146.5t-4 91t-9 51.5q-12 39 -44 52t-88 13z" />
<glyph unicode="&#xcf;" horiz-adv-x="645" d="M10 1614q0 45 32 76.5t83 31.5q59 0 89 -32.5t30 -75.5t-34 -74t-85 -31q-53 0 -84 30t-31 75zM63 1296v66q43 -2 89 -2q39 -2 86 -2h92q35 -2 78 -1t81 3q45 2 93 2v-66q-51 0 -82 -8t-43 -43q-6 -16 -10.5 -45t-6.5 -83t-3 -141t-1 -222v-264.5t2 -184.5t5 -114.5 t8 -55.5q20 -72 131 -72v-63q-45 0 -93 2q-41 0 -86 1t-86 1h-85t-80 -2q-43 -2 -86 -2v63q53 0 81.5 13.5t42.5 54.5q6 16 9.5 51t5.5 102.5t3 174t1 270.5v213t-1 146.5t-4 91t-9 51.5q-12 39 -44 52t-88 13zM418 1614q0 45 31.5 76.5t82.5 31.5q57 0 87 -32.5t30 -75.5 t-33.5 -74t-83.5 -31q-53 0 -83.5 30t-30.5 75z" />
<glyph unicode="&#xd0;" horiz-adv-x="1554" d="M74 659v107q16 0 62 -1t87 -1v200t-1 138t-4 88t-9 49q-12 39 -46 48t-89 9v66q61 -2 116 -2h172q68 0 161 2t194 2q68 0 148.5 -7t161.5 -29.5t155.5 -63.5t133 -109t93.5 -167t35 -236q0 -180 -49 -314.5t-142 -226.5q-109 -111 -251 -163t-351 -52q-27 0 -74 1t-98 3 t-99 3t-79 1h-76t-71 -2q-37 -2 -74 -2v63q55 0 82.5 9.5t42.5 48.5q6 14 9 43t5 88t3 157.5t1 252.5q-41 0 -84 -1.5t-65 -1.5zM451 420.5q0 -94.5 1 -151t5 -85t12 -45.5q12 -16 35.5 -25.5t53.5 -13.5t63.5 -6t64.5 -2q236 0 367 160t131 477q0 154 -39 256t-108.5 165.5 t-163 90.5t-201.5 27q-29 0 -66 -1t-69 -3q-37 -2 -76 -2q-4 -104 -6 -201q-2 -82 -3 -165t-1 -132h165q53 0 113 2v-107h-113q-47 0 -93 1.5t-72 1.5v-241.5z" />
<glyph unicode="&#xd1;" horiz-adv-x="1472" d="M31 1288v74q33 -2 69 -2h129h52.5t54.5 2q29 0 57 2l152 -180q66 -78 138.5 -165t133.5 -159q45 -53 106.5 -122.5t116.5 -135.5q66 -76 131 -156q-2 37 -2 89v251q0 117 -2 197t-5 131t-7 79t-8 40q-16 66 -139 65v66q31 -2 65 -2q29 -2 65 -2h74q37 -2 75 -1t71 3 q37 2 74 2v-66q-51 0 -82 -8t-45 -49q-6 -16 -10.5 -52t-7.5 -104.5t-5 -177t-2 -270.5v-680q-106 127 -209 250q-43 51 -91 107.5t-94 110.5t-89 104.5t-80 91.5q-57 66 -126 146.5t-128 152.5q-70 82 -141 165q-2 -45 -3 -106v-309q0 -145 2.5 -243.5t5.5 -160t7 -94.5 t8 -47q10 -37 44 -49.5t91 -12.5v-63q-37 0 -74 2q-33 0 -69.5 1t-69.5 1q-35 0 -70.5 -1t-66.5 -1q-37 -2 -70 -2v63q51 0 82 8.5t45 49.5q6 16 10.5 52t7.5 105.5t5 178t2 272.5q0 98 -1 184t-1 152v141q-10 23 -33 41q-20 16 -55 28.5t-88 12.5zM432 1497q-2 49 10.5 96 t39 83t66.5 58.5t93 22.5q55 0 99 -19.5t83 -41.5q45 -29 79 -53.5t69 -24.5q47 0 69.5 36t26.5 93l59 6q0 -51 -13 -99t-39.5 -85t-66.5 -58.5t-94 -21.5q-51 0 -96 19.5t-84 43.5q-45 27 -81 52.5t-70 25.5q-47 0 -67.5 -35.5t-22.5 -93.5z" />
<glyph unicode="&#xd2;" horiz-adv-x="1619" d="M100 680q0 63 15.5 141t50.5 156t90 151.5t136 130t187.5 91t243.5 34.5q309 0 498 -188q90 -90 140 -219t50 -287q0 -164 -57 -295t-154.5 -223t-227.5 -142t-273 -50q-150 0 -275 46t-219 136q-96 92 -150.5 223t-54.5 295zM373 713q0 -139 30.5 -256t88 -202 t140.5 -132t187 -47q111 0 192 46t133 128t77.5 194.5t25.5 243.5q0 86 -21.5 189.5t-71.5 193.5t-135 150.5t-212 60.5q-111 0 -191.5 -41t-135 -115.5t-81 -180t-26.5 -232.5zM483 1804q0 31 23.5 49.5t54.5 18.5q37 0 76 -25.5t80 -66.5q35 -35 70.5 -87.5t68.5 -99.5 q37 -55 74 -116h-56q-78 49 -145 92q-57 37 -110.5 74.5t-75.5 58.5q-59 53 -60 102z" />
<glyph unicode="&#xd3;" horiz-adv-x="1619" d="M100 680q0 63 15.5 141t50.5 156t90 151.5t136 130t187.5 91t243.5 34.5q309 0 498 -188q90 -90 140 -219t50 -287q0 -164 -57 -295t-154.5 -223t-227.5 -142t-273 -50q-150 0 -275 46t-219 136q-96 92 -150.5 223t-54.5 295zM373 713q0 -139 30.5 -256t88 -202 t140.5 -132t187 -47q111 0 192 46t133 128t77.5 194.5t25.5 243.5q0 86 -21.5 189.5t-71.5 193.5t-135 150.5t-212 60.5q-111 0 -191.5 -41t-135 -115.5t-81 -180t-26.5 -232.5zM625 1477q35 61 71 116q31 47 69 99.5t73 87.5q41 41 79.5 66.5t75.5 25.5q31 0 54.5 -18.5 t23.5 -49.5q0 -49 -59 -102q-23 -20 -77 -58t-112 -75q-68 -43 -143 -92h-55z" />
<glyph unicode="&#xd4;" horiz-adv-x="1619" d="M100 680q0 63 15.5 141t50.5 156t90 151.5t136 130t187.5 91t243.5 34.5q309 0 498 -188q90 -90 140 -219t50 -287q0 -164 -57 -295t-154.5 -223t-227.5 -142t-273 -50q-150 0 -275 46t-219 136q-96 92 -150.5 223t-54.5 295zM373 713q0 -139 30.5 -256t88 -202 t140.5 -132t187 -47q111 0 192 46t133 128t77.5 194.5t25.5 243.5q0 86 -21.5 189.5t-71.5 193.5t-135 150.5t-212 60.5q-111 0 -191.5 -41t-135 -115.5t-81 -180t-26.5 -232.5zM498 1442v59l252 307h92l260 -307v-59l-305 186z" />
<glyph unicode="&#xd5;" horiz-adv-x="1619" d="M100 680q0 63 15.5 141t50.5 156t90 151.5t136 130t187.5 91t243.5 34.5q309 0 498 -188q90 -90 140 -219t50 -287q0 -164 -57 -295t-154.5 -223t-227.5 -142t-273 -50q-150 0 -275 46t-219 136q-96 92 -150.5 223t-54.5 295zM373 713q0 -139 30.5 -256t88 -202 t140.5 -132t187 -47q111 0 192 46t133 128t77.5 194.5t25.5 243.5q0 86 -21.5 189.5t-71.5 193.5t-135 150.5t-212 60.5q-111 0 -191.5 -41t-135 -115.5t-81 -180t-26.5 -232.5zM444 1497q-2 49 10.5 96t39 83t66.5 58.5t93 22.5q55 0 99.5 -19.5t83.5 -41.5 q45 -29 78.5 -53.5t68.5 -24.5q47 0 69.5 36t26.5 93l60 6q0 -51 -13.5 -99t-40 -85t-66.5 -58.5t-93 -21.5q-51 0 -96.5 19.5t-84.5 43.5q-45 27 -80.5 52.5t-70.5 25.5q-47 0 -67.5 -35.5t-22.5 -93.5z" />
<glyph unicode="&#xd6;" horiz-adv-x="1619" d="M100 680q0 63 15.5 141t50.5 156t90 151.5t136 130t187.5 91t243.5 34.5q309 0 498 -188q90 -90 140 -219t50 -287q0 -164 -57 -295t-154.5 -223t-227.5 -142t-273 -50q-150 0 -275 46t-219 136q-96 92 -150.5 223t-54.5 295zM373 713q0 -139 30.5 -256t88 -202 t140.5 -132t187 -47q111 0 192 46t133 128t77.5 194.5t25.5 243.5q0 86 -21.5 189.5t-71.5 193.5t-135 150.5t-212 60.5q-111 0 -191.5 -41t-135 -115.5t-81 -180t-26.5 -232.5zM473 1614q0 45 32 76.5t83 31.5q59 0 89 -32.5t30 -75.5t-34 -74t-85 -31q-53 0 -84 30t-31 75 zM881 1614q0 45 31.5 76.5t82.5 31.5q57 0 87 -32.5t30 -75.5t-34 -74t-83 -31q-53 0 -83.5 30t-30.5 75z" />
<glyph unicode="&#xd7;" horiz-adv-x="1124" d="M184 193l285 280l-281 279l97 96l276 -281l283 283l90 -90l-285 -283l291 -287l-94 -94l-289 291l-281 -287z" />
<glyph unicode="&#xd8;" horiz-adv-x="1660" d="M121 680q0 53 10 116.5t33.5 130t62.5 132t97 125.5q84 86 212 143t306 57q104 0 180 -19t127 -42q59 -27 102 -61l92 108h152l-156 -180q53 -53 97 -127q35 -63 65.5 -156.5t30.5 -216.5q0 -160 -56.5 -291t-153.5 -224t-227 -144t-276 -51q-104 0 -185 19t-134 42 q-63 27 -109 61l-106 -122h-150l170 194q-53 53 -92 127q-35 63 -63.5 157.5t-28.5 221.5zM393 713q0 -92 10.5 -160t24.5 -113q14 -53 35 -90q61 72 123 142q53 59 110.5 125.5t104.5 119.5q43 51 100 118t109 126q60 69 123 141q-29 43 -74 80q-39 29 -97.5 54.5 t-138.5 25.5q-111 0 -191.5 -41t-134 -115.5t-79 -180t-25.5 -232.5zM518 246q29 -49 76 -86q39 -33 99.5 -58.5t146.5 -25.5q111 0 191.5 46t133 128t78 194.5t25.5 243.5q0 76 -11.5 136.5t-25.5 105.5q-16 51 -37 92q-57 -63 -113 -129q-47 -55 -102 -118.5t-102 -117.5 q-53 -59 -116 -131.5t-116 -134.5q-63 -74 -127 -145z" />
<glyph unicode="&#xd9;" horiz-adv-x="1484" d="M51 1296v66q45 -2 92 -2q41 -2 87 -2h87h83t81 2q43 0 86 2v-66q-59 0 -88.5 -8t-40.5 -43q-10 -31 -15 -149.5t-5 -341.5q0 -129 3 -223.5t13 -162t30.5 -113.5t57.5 -81q45 -43 108.5 -60.5t143.5 -17.5q84 0 152.5 19.5t122.5 72.5q76 78 98 205t22 326q0 158 -2 257 t-6 157.5t-11 86t-20 42.5q-14 16 -46.5 25t-127.5 9v66q43 -2 91 -2q39 -2 85 -2h87h81.5t79.5 2q43 0 86 2v-66q-63 0 -94 -7t-45 -32q-10 -18 -17 -58t-11.5 -108.5t-5.5 -171t-1 -247.5q0 -180 -28.5 -322.5t-118.5 -232.5q-61 -63 -166 -100t-248 -37q-150 0 -252 34.5 t-162 87.5q-55 49 -81.5 116t-37 146.5t-9.5 171t1 193.5v185v155t-2 113t-6 57q-10 37 -39.5 47t-91.5 10zM383 1804q0 31 23.5 49.5t54.5 18.5q37 0 75.5 -25.5t79.5 -66.5q35 -35 71 -87.5t69 -99.5q37 -55 73 -116h-55q-78 49 -145 92q-57 37 -110.5 74.5t-76.5 58.5 q-59 53 -59 102z" />
<glyph unicode="&#xda;" horiz-adv-x="1484" d="M51 1296v66q45 -2 92 -2q41 -2 87 -2h87h83t81 2q43 0 86 2v-66q-59 0 -88.5 -8t-40.5 -43q-10 -31 -15 -149.5t-5 -341.5q0 -129 3 -223.5t13 -162t30.5 -113.5t57.5 -81q45 -43 108.5 -60.5t143.5 -17.5q84 0 152.5 19.5t122.5 72.5q76 78 98 205t22 326q0 158 -2 257 t-6 157.5t-11 86t-20 42.5q-14 16 -46.5 25t-127.5 9v66q43 -2 91 -2q39 -2 85 -2h87h81.5t79.5 2q43 0 86 2v-66q-63 0 -94 -7t-45 -32q-10 -18 -17 -58t-11.5 -108.5t-5.5 -171t-1 -247.5q0 -180 -28.5 -322.5t-118.5 -232.5q-61 -63 -166 -100t-248 -37q-150 0 -252 34.5 t-162 87.5q-55 49 -81.5 116t-37 146.5t-9.5 171t1 193.5v185v155t-2 113t-6 57q-10 37 -39.5 47t-91.5 10zM715 1477q35 61 71 116q31 47 69 99.5t73 87.5q41 41 80 66.5t75 25.5q31 0 54.5 -18.5t23.5 -49.5q0 -49 -59 -102q-23 -20 -77 -58t-112 -75q-68 -43 -143 -92 h-55z" />
<glyph unicode="&#xdb;" horiz-adv-x="1484" d="M51 1296v66q45 -2 92 -2q41 -2 87 -2h87h83t81 2q43 0 86 2v-66q-59 0 -88.5 -8t-40.5 -43q-10 -31 -15 -149.5t-5 -341.5q0 -129 3 -223.5t13 -162t30.5 -113.5t57.5 -81q45 -43 108.5 -60.5t143.5 -17.5q84 0 152.5 19.5t122.5 72.5q76 78 98 205t22 326q0 158 -2 257 t-6 157.5t-11 86t-20 42.5q-14 16 -46.5 25t-127.5 9v66q43 -2 91 -2q39 -2 85 -2h87h81.5t79.5 2q43 0 86 2v-66q-63 0 -94 -7t-45 -32q-10 -18 -17 -58t-11.5 -108.5t-5.5 -171t-1 -247.5q0 -180 -28.5 -322.5t-118.5 -232.5q-61 -63 -166 -100t-248 -37q-150 0 -252 34.5 t-162 87.5q-55 49 -81.5 116t-37 146.5t-9.5 171t1 193.5v185v155t-2 113t-6 57q-10 37 -39.5 47t-91.5 10zM461 1442v59l252 307h92l260 -307v-59l-305 186z" />
<glyph unicode="&#xdc;" horiz-adv-x="1484" d="M51 1296v66q45 -2 92 -2q41 -2 87 -2h87h83t81 2q43 0 86 2v-66q-59 0 -88.5 -8t-40.5 -43q-10 -31 -15 -149.5t-5 -341.5q0 -129 3 -223.5t13 -162t30.5 -113.5t57.5 -81q45 -43 108.5 -60.5t143.5 -17.5q84 0 152.5 19.5t122.5 72.5q76 78 98 205t22 326q0 158 -2 257 t-6 157.5t-11 86t-20 42.5q-14 16 -46.5 25t-127.5 9v66q43 -2 91 -2q39 -2 85 -2h87h81.5t79.5 2q43 0 86 2v-66q-63 0 -94 -7t-45 -32q-10 -18 -17 -58t-11.5 -108.5t-5.5 -171t-1 -247.5q0 -180 -28.5 -322.5t-118.5 -232.5q-61 -63 -166 -100t-248 -37q-150 0 -252 34.5 t-162 87.5q-55 49 -81.5 116t-37 146.5t-9.5 171t1 193.5v185v155t-2 113t-6 57q-10 37 -39.5 47t-91.5 10zM461 1614q0 45 31.5 76.5t82.5 31.5q59 0 89 -32.5t30 -75.5t-33.5 -74t-85.5 -31q-53 0 -83.5 30t-30.5 75zM868 1614q0 45 32 76.5t83 31.5q57 0 87 -32.5 t30 -75.5t-34 -74t-83 -31q-53 0 -84 30t-31 75z" />
<glyph unicode="&#xdd;" horiz-adv-x="1296" d="M0 1296v66q47 -2 98 -2q43 -2 92.5 -2h94.5h80t79 2q43 0 86 2v-66q-55 0 -82.5 -7t-27.5 -34t32.5 -86t75.5 -129q23 -39 51.5 -84t53.5 -86q29 -47 57 -94q20 33 43 66q18 29 39 58.5t37 51.5q68 100 107.5 168t39.5 111q0 39 -41 52t-94 13v66q47 -2 97 -2 q41 -2 88 -2h88h64.5t66.5 2q37 0 71 2v-66q-25 0 -50 -8t-48 -20q-31 -16 -69.5 -58.5t-78.5 -95.5t-78 -108.5t-67 -98.5q-14 -20 -39.5 -58t-52.5 -79q-31 -47 -65 -98v-195.5t2 -162t5 -117.5t7 -62q20 -72 131 -72v-63q-45 0 -92 2q-41 0 -86 1t-86 1h-85t-81 -2 q-43 -2 -86 -2v63q53 0 81.5 13.5t43.5 54.5q10 35 14 152.5t4 324.5q-29 49 -63 105q-29 47 -66 108.5t-78 130.5q-47 80 -90 149.5t-86 123.5q-25 29 -60.5 50t-76.5 21zM571 1477q35 61 72 116q31 47 69 99.5t72 87.5q41 41 80 66.5t76 25.5q31 0 54.5 -18.5t23.5 -49.5 q0 -49 -60 -102q-23 -20 -77 -58t-111 -75q-68 -43 -143 -92h-56z" />
<glyph unicode="&#xde;" horiz-adv-x="1128" d="M63 1296v66q43 -2 89 -2q39 -2 86 -2h92h78t81 2q45 0 93 2v-66q-41 0 -70 -5t-45 -25q-12 -16 -19.5 -55.5t-9.5 -139.5q23 0 47 2q20 0 46 1t49 1q123 0 219 -21.5t159 -72.5q51 -41 80 -100.5t29 -143.5q0 -92 -38 -165.5t-103 -127.5q-76 -61 -179.5 -88.5 t-218.5 -27.5h-57q-16 0 -33 2q2 -164 13 -195q20 -72 131 -72v-63q-45 0 -93 2q-41 0 -86 1t-86 1t-85 -1t-80 -1q-43 -2 -86 -2v63q53 0 81.5 13.5t42.5 54.5q6 16 9.5 51t5.5 102.5t3 174t1 270.5v213t-1 146.5t-4 91t-9 51.5q-12 39 -44 52t-88 13zM436 416q12 -2 27 -2 h55q55 0 114.5 13t106.5 60q33 31 52.5 82t19.5 127q0 74 -17.5 126t-45.5 87q-39 41 -88.5 58.5t-114.5 17.5q-25 0 -45.5 -1t-34.5 -1q-16 -2 -29 -2v-565z" />
<glyph unicode="&#xdf;" horiz-adv-x="1212" d="M53 0v63q53 0 84 9.5t41 48.5q2 8 4 43t4 87t3 114.5t1 128.5v337h-127v99h125v74q0 117 33 221t107 180t180 115t229 39q86 0 157 -20.5t121 -56.5t78.5 -86t28.5 -110q0 -70 -34.5 -118t-88.5 -95q-45 -41 -96 -75.5t-94 -69.5t-71.5 -72t-28.5 -80q0 -33 20.5 -59.5 t52 -51t71.5 -47t81 -45.5q43 -25 83 -52t69.5 -61t48 -76t18.5 -95q0 -68 -34 -121t-90 -91t-130 -58.5t-154 -20.5q-63 0 -96 6q-23 2 -37 6l-12 109q23 -14 49 -23q23 -8 54.5 -14t70.5 -6q74 0 125 33.5t51 101.5q0 35 -18.5 66.5t-49 59.5t-70.5 53.5t-85 49.5 q-49 27 -88 52.5t-65.5 54t-41 63.5t-14.5 82q0 72 34 122t81 91q51 43 100 83t88 81t63.5 86t24.5 102t-18.5 97.5t-47 66t-67.5 36.5t-78 11q-131 0 -200 -67q-57 -55 -78 -151.5t-21 -227.5l2 -473q0 -111 1 -183.5t1 -119.5t1.5 -75t5.5 -46q8 -45 25.5 -53.5t64.5 -8.5 v-63q-6 0 -31 1t-58.5 1t-69.5 1t-60 1q-29 0 -66 -1t-71.5 -1t-60.5 -1t-30 -1z" />
<glyph unicode="&#xe0;" horiz-adv-x="931" d="M47 248q0 45 17.5 82t47 64.5t67.5 49t81 35.5q45 16 96.5 28.5t96.5 20.5q53 8 102 17v55q0 23 1 43.5t1 30.5q2 96 -22.5 150.5t-90.5 54.5q-39 0 -64.5 -15.5t-44 -40t-31.5 -51.5t-29.5 -51.5t-38 -39.5t-56.5 -15t-58.5 16t-23.5 51q0 33 36 74t94.5 76t131 58.5 t146.5 23.5q121 0 187.5 -63.5t64.5 -186.5q0 -59 -3 -171t-3 -253q0 -158 73 -158q23 0 41.5 8.5t22.5 10.5l20 -66q-12 -10 -54 -24.5t-77 -30.5q-20 -8 -41.5 -17.5t-40.5 -17.5q-23 -8 -45 -19q-23 16 -43 41q-16 20 -31.5 52t-19.5 77q-20 -25 -52 -53t-70 -53t-80 -41 t-81 -16q-47 0 -89 19.5t-72.5 55t-48 83.5t-17.5 106zM180 1415q0 31 23.5 49.5t54.5 18.5q37 0 76 -25.5t80 -66.5q35 -35 70.5 -87.5t68.5 -99.5q37 -55 74 -117h-56q-78 49 -145 93q-57 37 -110.5 74.5t-75.5 58.5q-59 53 -60 102zM254 272q0 -53 34 -99t93 -46 q55 0 99 35t71 65l4 240l-66 -12q-29 -4 -57.5 -11.5t-50.5 -13.5q-127 -43 -127 -158z" />
<glyph unicode="&#xe1;" horiz-adv-x="931" d="M47 248q0 45 17.5 82t47 64.5t67.5 49t81 35.5q45 16 96.5 28.5t96.5 20.5q53 8 102 17v55q0 23 1 43.5t1 30.5q2 96 -22.5 150.5t-90.5 54.5q-39 0 -64.5 -15.5t-44 -40t-31.5 -51.5t-29.5 -51.5t-38 -39.5t-56.5 -15t-58.5 16t-23.5 51q0 33 36 74t94.5 76t131 58.5 t146.5 23.5q121 0 187.5 -63.5t64.5 -186.5q0 -59 -3 -171t-3 -253q0 -158 73 -158q23 0 41.5 8.5t22.5 10.5l20 -66q-12 -10 -54 -24.5t-77 -30.5q-20 -8 -41.5 -17.5t-40.5 -17.5q-23 -8 -45 -19q-23 16 -43 41q-16 20 -31.5 52t-19.5 77q-20 -25 -52 -53t-70 -53t-80 -41 t-81 -16q-47 0 -89 19.5t-72.5 55t-48 83.5t-17.5 106zM254 272q0 -53 34 -99t93 -46q55 0 99 35t71 65l4 240l-66 -12q-29 -4 -57.5 -11.5t-50.5 -13.5q-127 -43 -127 -158zM346 1087q35 61 72 117q31 47 68.5 99.5t72.5 87.5q41 41 80 66.5t76 25.5q31 0 54.5 -18.5 t23.5 -49.5q0 -49 -60 -102q-23 -20 -77 -58t-111 -75q-68 -43 -144 -93h-55z" />
<glyph unicode="&#xe2;" horiz-adv-x="931" d="M47 248q0 45 17.5 82t47 64.5t67.5 49t81 35.5q45 16 96.5 28.5t96.5 20.5q53 8 102 17v55q0 23 1 43.5t1 30.5q2 96 -22.5 150.5t-90.5 54.5q-39 0 -64.5 -15.5t-44 -40t-31.5 -51.5t-29.5 -51.5t-38 -39.5t-56.5 -15t-58.5 16t-23.5 51q0 33 36 74t94.5 76t131 58.5 t146.5 23.5q121 0 187.5 -63.5t64.5 -186.5q0 -59 -3 -171t-3 -253q0 -158 73 -158q23 0 41.5 8.5t22.5 10.5l20 -66q-12 -10 -54 -24.5t-77 -30.5q-20 -8 -41.5 -17.5t-40.5 -17.5q-23 -8 -45 -19q-23 16 -43 41q-16 20 -31.5 52t-19.5 77q-20 -25 -52 -53t-70 -53t-80 -41 t-81 -16q-47 0 -89 19.5t-72.5 55t-48 83.5t-17.5 106zM178 1053v59l252 307h92l260 -307v-59l-305 186zM254 272q0 -53 34 -99t93 -46q55 0 99 35t71 65l4 240l-66 -12q-29 -4 -57.5 -11.5t-50.5 -13.5q-127 -43 -127 -158z" />
<glyph unicode="&#xe3;" horiz-adv-x="931" d="M47 248q0 45 17.5 82t47 64.5t67.5 49t81 35.5q45 16 96.5 28.5t96.5 20.5q53 8 102 17v55q0 23 1 43.5t1 30.5q2 96 -22.5 150.5t-90.5 54.5q-39 0 -64.5 -15.5t-44 -40t-31.5 -51.5t-29.5 -51.5t-38 -39.5t-56.5 -15t-58.5 16t-23.5 51q0 33 36 74t94.5 76t131 58.5 t146.5 23.5q121 0 187.5 -63.5t64.5 -186.5q0 -59 -3 -171t-3 -253q0 -158 73 -158q23 0 41.5 8.5t22.5 10.5l20 -66q-12 -10 -54 -24.5t-77 -30.5q-20 -8 -41.5 -17.5t-40.5 -17.5q-23 -8 -45 -19q-23 16 -43 41q-16 20 -31.5 52t-19.5 77q-20 -25 -52 -53t-70 -53t-80 -41 t-81 -16q-47 0 -89 19.5t-72.5 55t-48 83.5t-17.5 106zM141 1098q-2 49 10.5 96t39 83t66.5 58.5t93 22.5q55 0 99.5 -19.5t82.5 -42.5q45 -29 79 -53t69 -24q47 0 69.5 35.5t26.5 93.5l60 6q0 -51 -13.5 -99.5t-40 -85t-66.5 -58t-93 -21.5q-51 0 -96.5 19t-84.5 44 q-45 27 -80.5 52.5t-70.5 25.5q-47 0 -67.5 -36t-22.5 -93zM254 272q0 -53 34 -99t93 -46q55 0 99 35t71 65l4 240l-66 -12q-29 -4 -57.5 -11.5t-50.5 -13.5q-127 -43 -127 -158z" />
<glyph unicode="&#xe4;" horiz-adv-x="931" d="M47 248q0 45 17.5 82t47 64.5t67.5 49t81 35.5q45 16 96.5 28.5t96.5 20.5q53 8 102 17v55q0 23 1 43.5t1 30.5q2 96 -22.5 150.5t-90.5 54.5q-39 0 -64.5 -15.5t-44 -40t-31.5 -51.5t-29.5 -51.5t-38 -39.5t-56.5 -15t-58.5 16t-23.5 51q0 33 36 74t94.5 76t131 58.5 t146.5 23.5q121 0 187.5 -63.5t64.5 -186.5q0 -59 -3 -171t-3 -253q0 -158 73 -158q23 0 41.5 8.5t22.5 10.5l20 -66q-12 -10 -54 -24.5t-77 -30.5q-20 -8 -41.5 -17.5t-40.5 -17.5q-23 -8 -45 -19q-23 16 -43 41q-16 20 -31.5 52t-19.5 77q-20 -25 -52 -53t-70 -53t-80 -41 t-81 -16q-47 0 -89 19.5t-72.5 55t-48 83.5t-17.5 106zM160 1225q0 45 31.5 76.5t82.5 31.5q59 0 89 -32.5t30 -75.5t-33.5 -74t-85.5 -31q-53 0 -83.5 30t-30.5 75zM254 272q0 -53 34 -99t93 -46q55 0 99 35t71 65l4 240l-66 -12q-29 -4 -57.5 -11.5t-50.5 -13.5 q-127 -43 -127 -158zM567 1225q0 45 32 76.5t83 31.5q57 0 87 -32.5t30 -75.5t-34 -74t-83 -31q-53 0 -84 30t-31 75z" />
<glyph unicode="&#xe5;" horiz-adv-x="931" d="M47 248q0 45 17.5 82t47 64.5t67.5 49t81 35.5q45 16 96.5 28.5t96.5 20.5q53 8 102 17v55q0 23 1 43.5t1 30.5q2 96 -22.5 150.5t-90.5 54.5q-39 0 -64.5 -15.5t-44 -40t-31.5 -51.5t-29.5 -51.5t-38 -39.5t-56.5 -15t-58.5 16t-23.5 51q0 33 36 74t94.5 76t131 58.5 t146.5 23.5q121 0 187.5 -63.5t64.5 -186.5q0 -59 -3 -171t-3 -253q0 -158 73 -158q23 0 41.5 8.5t22.5 10.5l20 -66q-12 -10 -54 -24.5t-77 -30.5q-20 -8 -41.5 -17.5t-40.5 -17.5q-23 -8 -45 -19q-23 16 -43 41q-16 20 -31.5 52t-19.5 77q-20 -25 -52 -53t-70 -53t-80 -41 t-81 -16q-47 0 -89 19.5t-72.5 55t-48 83.5t-17.5 106zM254 272q0 -53 34 -99t93 -46q55 0 99 35t71 65l4 240l-66 -12q-29 -4 -57.5 -11.5t-50.5 -13.5q-127 -43 -127 -158zM272 1274q0 92 61.5 153.5t153.5 61.5q94 0 154.5 -61.5t60.5 -153.5q0 -45 -16 -84t-46 -68.5 t-69 -46t-84 -16.5q-94 0 -154.5 61.5t-60.5 153.5zM369 1272q0 -51 32.5 -88t85.5 -37t86 37t33 88q0 49 -32.5 87t-86.5 38q-59 0 -88.5 -38t-29.5 -87z" />
<glyph unicode="&#xe6;" horiz-adv-x="1445" d="M47 248q0 55 24.5 96t64.5 71.5t90 51t102 33.5q35 8 79 17t80 15l86 15v51q0 20 1 40.5t1 35.5q0 86 -29.5 145.5t-101.5 59.5q-39 0 -64.5 -15.5t-44 -40t-31.5 -51.5t-29.5 -51.5t-38 -39.5t-56.5 -15t-58.5 16t-23.5 51q0 33 36 74t94.5 76t131 58.5t146.5 23.5 q68 0 112 -19.5t70 -42.5q31 -27 45 -59q35 33 80 59q39 23 94.5 42.5t126.5 19.5q86 0 150.5 -35t107.5 -90.5t64.5 -124t21.5 -133.5q0 -27 -13 -30t-19 -3h-553q-2 -12 -2 -21v-28q0 -90 26.5 -159t69.5 -117t99 -72.5t116 -24.5q43 0 84 11.5t74.5 27.5t59.5 34.5 t42 32.5l39 -53q-92 -92 -195.5 -145t-232.5 -53q-96 0 -160.5 29.5t-103.5 64.5q-47 41 -72 96q-51 -53 -109 -94q-49 -35 -110.5 -64.5t-124.5 -29.5q-111 0 -178.5 73.5t-67.5 190.5zM254 272q0 -61 39 -103t96 -42q45 0 85 16.5t69 36.5q34 23 61 56l-10 30q-4 16 -9 38 t-10 50q-4 16 -4 37v37v41q-39 -4 -75 -12q-31 -6 -63 -13.5t-52 -13.5q-127 -43 -127 -158zM801 629h354q2 45 -7 90t-28.5 81t-50.5 57.5t-72 21.5q-49 0 -86 -30t-61.5 -70t-36.5 -83t-12 -67z" />
<glyph unicode="&#xe7;" horiz-adv-x="927" d="M70 440q0 166 69.5 275.5t171.5 169.5q74 43 147.5 60.5t145.5 17.5q117 0 186.5 -41t69.5 -97q0 -39 -29.5 -63.5t-76.5 -24.5q-39 0 -65.5 20.5t-51.5 46t-53.5 46t-69.5 20.5q-96 0 -160.5 -91t-64.5 -244q0 -98 25.5 -173t68.5 -126q45 -53 106.5 -81t126.5 -28 q39 0 76 11.5t69 27.5t57.5 34.5t41.5 32.5l39 -53q-29 -35 -80 -74.5t-110 -68.5q-29 -14 -61 -25.5t-66 -17.5l-66 -123q10 2 23 4q10 2 25.5 3t33.5 1q31 0 61.5 -9t55 -27.5t40 -46t15.5 -64.5q0 -57 -30.5 -98.5t-81 -68t-113 -38.5t-125.5 -12h-26.5t-28.5 2 q-16 0 -31 2l2 55q6 -2 14 -2h31q27 0 62.5 4t67.5 17.5t54.5 37t22.5 62.5q0 61 -37 81.5t-80 20.5q-16 0 -32.5 -2t-30.5 -6q-16 -4 -31 -8l110 203h-16q-78 0 -145.5 28.5t-120.5 79.5q-63 63 -99 153.5t-36 196.5z" />
<glyph unicode="&#xe8;" horiz-adv-x="944" d="M70 428q0 129 36.5 225.5t96.5 161.5q72 78 159 114t173 36t149.5 -36t106.5 -91.5t64.5 -123t21.5 -132.5q0 -27 -13.5 -30t-19.5 -3h-553q-2 -10 -2 -19v-30q0 -76 22.5 -143.5t59.5 -114.5q43 -57 103.5 -86t127.5 -29q43 0 83 11.5t74 27.5t59.5 34.5t41.5 32.5 l39 -53q-12 -14 -33 -33q-16 -16 -40.5 -34.5t-55.5 -38.5q-53 -35 -128 -63.5t-161 -28.5q-205 0 -317 143q-94 123 -94 303zM217 1415q0 31 23.5 49.5t54.5 18.5q37 0 76 -25.5t80 -66.5q35 -35 70.5 -87.5t68.5 -99.5q37 -55 74 -117h-56q-78 49 -145 93 q-57 37 -110.5 74.5t-76.5 58.5q-59 53 -59 102zM299 629h356q0 49 -9 94t-28.5 80t-50 55.5t-69.5 20.5q-41 0 -75 -20.5t-59.5 -54.5t-42 -79t-22.5 -96z" />
<glyph unicode="&#xe9;" horiz-adv-x="944" d="M70 428q0 129 36.5 225.5t96.5 161.5q72 78 159 114t173 36t149.5 -36t106.5 -91.5t64.5 -123t21.5 -132.5q0 -27 -13.5 -30t-19.5 -3h-553q-2 -10 -2 -19v-30q0 -76 22.5 -143.5t59.5 -114.5q43 -57 103.5 -86t127.5 -29q43 0 83 11.5t74 27.5t59.5 34.5t41.5 32.5 l39 -53q-12 -14 -33 -33q-16 -16 -40.5 -34.5t-55.5 -38.5q-53 -35 -128 -63.5t-161 -28.5q-205 0 -317 143q-94 123 -94 303zM299 629h356q0 49 -9 94t-28.5 80t-50 55.5t-69.5 20.5q-41 0 -75 -20.5t-59.5 -54.5t-42 -79t-22.5 -96zM360 1087q35 61 72 117q31 47 69 99.5 t72 87.5q41 41 80 66.5t76 25.5q31 0 54.5 -18.5t23.5 -49.5q0 -49 -59 -102q-23 -20 -77.5 -58t-111.5 -75q-68 -43 -143 -93h-56z" />
<glyph unicode="&#xea;" horiz-adv-x="944" d="M70 428q0 129 36.5 225.5t96.5 161.5q72 78 159 114t173 36t149.5 -36t106.5 -91.5t64.5 -123t21.5 -132.5q0 -27 -13.5 -30t-19.5 -3h-553q-2 -10 -2 -19v-30q0 -76 22.5 -143.5t59.5 -114.5q43 -57 103.5 -86t127.5 -29q43 0 83 11.5t74 27.5t59.5 34.5t41.5 32.5 l39 -53q-12 -14 -33 -33q-16 -16 -40.5 -34.5t-55.5 -38.5q-53 -35 -128 -63.5t-161 -28.5q-205 0 -317 143q-94 123 -94 303zM213 1053v59l252 307h92l260 -307v-59l-305 186zM299 629h356q0 49 -9 94t-28.5 80t-50 55.5t-69.5 20.5q-41 0 -75 -20.5t-59.5 -54.5t-42 -79 t-22.5 -96z" />
<glyph unicode="&#xeb;" horiz-adv-x="944" d="M70 428q0 129 36.5 225.5t96.5 161.5q72 78 159 114t173 36t149.5 -36t106.5 -91.5t64.5 -123t21.5 -132.5q0 -27 -13.5 -30t-19.5 -3h-553q-2 -10 -2 -19v-30q0 -76 22.5 -143.5t59.5 -114.5q43 -57 103.5 -86t127.5 -29q43 0 83 11.5t74 27.5t59.5 34.5t41.5 32.5 l39 -53q-12 -14 -33 -33q-16 -16 -40.5 -34.5t-55.5 -38.5q-53 -35 -128 -63.5t-161 -28.5q-205 0 -317 143q-94 123 -94 303zM207 1225q0 45 31.5 76.5t83.5 31.5q59 0 88.5 -32.5t29.5 -75.5t-33.5 -74t-84.5 -31q-53 0 -84 30t-31 75zM299 629h356q0 49 -9 94t-28.5 80 t-50 55.5t-69.5 20.5q-41 0 -75 -20.5t-59.5 -54.5t-42 -79t-22.5 -96zM614 1225q0 45 32 76.5t83 31.5q57 0 87 -32.5t30 -75.5t-34 -74t-83 -31q-53 0 -84 30t-31 75z" />
<glyph unicode="&#xec;" horiz-adv-x="563" d="M-57 1415q0 31 23.5 49.5t53.5 18.5q37 0 76 -25.5t80 -66.5q35 -35 71 -87.5t68 -99.5q37 -55 74 -117h-55q-78 49 -146 93q-57 37 -110 74.5t-76 58.5q-59 53 -59 102zM41 834q31 10 61 22q27 10 59 22.5t64 24.5q53 20 86 33.5t54 24.5q23 10 34 18q0 -23 -1 -84 t-1 -140v-160v-140v-108.5t1 -103.5t3 -86t7 -53q10 -27 35.5 -34t70.5 -7v-63q-8 0 -32.5 1t-57.5 1t-70 1t-69 1q-35 0 -74 -1t-74 -1t-59.5 -1t-28.5 -1v63q66 0 89.5 12.5t33.5 35.5q6 16 9 59t4 93t1 97.5v75.5q0 37 -1 79t-2 81t-2 70.5t-3 48.5q-4 35 -15 51t-38 16 q-16 0 -28.5 -3t-22.5 -7t-21 -8z" />
<glyph unicode="&#xed;" horiz-adv-x="563" d="M41 834q31 10 61 22q27 10 59 22.5t64 24.5q53 20 86 33.5t54 24.5q23 10 34 18q0 -23 -1 -84t-1 -140v-160v-140v-108.5t1 -103.5t3 -86t7 -53q10 -27 35.5 -34t70.5 -7v-63q-8 0 -32.5 1t-57.5 1t-70 1t-69 1q-35 0 -74 -1t-74 -1t-59.5 -1t-28.5 -1v63q66 0 89.5 12.5 t33.5 35.5q6 16 9 59t4 93t1 97.5v75.5q0 37 -1 79t-2 81t-2 70.5t-3 48.5q-4 35 -15 51t-38 16q-16 0 -28.5 -3t-22.5 -7t-21 -8zM150 1087q35 61 71 117q31 47 69 99.5t72 87.5q41 41 80 66.5t76 25.5q31 0 54.5 -18.5t23.5 -49.5q0 -49 -59 -102q-23 -20 -77 -58 t-112 -75q-68 -43 -143 -93h-55z" />
<glyph unicode="&#xee;" horiz-adv-x="563" d="M-20 1053v59l251 307h93l260 -307v-59l-305 186zM41 834q31 10 61 22q27 10 59 22.5t64 24.5q53 20 86 33.5t54 24.5q23 10 34 18q0 -23 -1 -84t-1 -140v-160v-140v-108.5t1 -103.5t3 -86t7 -53q10 -27 35.5 -34t70.5 -7v-63q-8 0 -32.5 1t-57.5 1t-70 1t-69 1 q-35 0 -74 -1t-74 -1t-59.5 -1t-28.5 -1v63q66 0 89.5 12.5t33.5 35.5q6 16 9 59t4 93t1 97.5v75.5q0 37 -1 79t-2 81t-2 70.5t-3 48.5q-4 35 -15 51t-38 16q-16 0 -28.5 -3t-22.5 -7t-21 -8z" />
<glyph unicode="&#xef;" horiz-adv-x="563" d="M-35 1225q0 45 32 76.5t83 31.5q59 0 89 -32.5t30 -75.5t-34 -74t-85 -31q-53 0 -84 30t-31 75zM41 834q31 10 61 22q27 10 59 22.5t64 24.5q53 20 86 33.5t54 24.5q23 10 34 18q0 -23 -1 -84t-1 -140v-160v-140v-108.5t1 -103.5t3 -86t7 -53q10 -27 35.5 -34t70.5 -7 v-63q-8 0 -32.5 1t-57.5 1t-70 1t-69 1q-35 0 -74 -1t-74 -1t-59.5 -1t-28.5 -1v63q66 0 89.5 12.5t33.5 35.5q6 16 9 59t4 93t1 97.5v75.5q0 37 -1 79t-2 81t-2 70.5t-3 48.5q-4 35 -15 51t-38 16q-16 0 -28.5 -3t-22.5 -7t-21 -8zM373 1225q0 45 31.5 76.5t82.5 31.5 q57 0 87 -32.5t30 -75.5t-33.5 -74t-83.5 -31q-53 0 -83.5 30t-30.5 75z" />
<glyph unicode="&#xf0;" horiz-adv-x="1130" d="M80 463q0 152 58.5 258t150.5 168q70 47 136.5 62.5t137.5 15.5q35 0 63.5 -6.5t51.5 -14.5q25 -8 47 -20q-6 25 -17.5 55.5t-27.5 64t-36.5 66.5t-43.5 62q-41 -31 -73.5 -55.5t-49.5 -37.5l-53 74q18 12 50 33.5t73 50.5q-14 20 -44 52t-66 65t-72.5 62.5t-63.5 47.5 l61 64q14 -4 51.5 -19.5t83.5 -40t96 -57.5t93 -72q51 37 81 60.5t48 38.5l53 -78q-16 -12 -49 -34.5t-67 -45.5q16 -18 39 -41q16 -23 39.5 -53.5t48.5 -71.5q57 -96 98 -234t41 -333q0 -141 -37 -247.5t-102.5 -177.5t-154.5 -105.5t-194 -34.5q-109 0 -191.5 37.5 t-141 102t-88 153t-29.5 186.5zM322 520q0 -76 10 -155.5t35.5 -146t69.5 -108.5t114 -42q45 0 87 24.5t72.5 76.5t49 130.5t18.5 189.5q0 70 -5 127.5t-11 98.5q-8 47 -14 84q-18 23 -46 41q-23 16 -58.5 29.5t-82.5 13.5q-74 0 -121 -34t-73.5 -87t-35.5 -117.5t-9 -124.5 z" />
<glyph unicode="&#xf1;" horiz-adv-x="1165" d="M41 834q25 8 53 18q25 10 57.5 21.5t69.5 27.5q45 16 79 31.5t56 25.5q25 12 43 21v-178q55 45 119 82q53 31 122 56.5t140 25.5q121 0 168 -71t49 -200v-81t-1 -88t-1 -87v-76v-73.5v-69.5t1 -58.5t3 -35.5q6 -39 31 -50.5t78 -11.5v-63q-10 0 -34.5 1t-56.5 1t-69 1 t-74 1q-72 0 -133 -1t-90 -3v63q47 0 78 8.5t39 37.5q6 20 8 58t4 82t2 89v80q0 78 -2 142.5t-8 109.5q-10 66 -41 101.5t-104 35.5q-41 0 -82 -12.5t-74 -28.5q-37 -18 -74 -41v-270v-111.5t1 -106t3 -85t7 -48.5q10 -27 35.5 -34t70.5 -7v-63q-4 0 -28.5 1t-58.5 1t-72 1 t-70 1q-35 0 -74 -1t-74 -1t-59.5 -1t-28.5 -1v63q72 0 93.5 14.5t29.5 33.5q6 16 9 59t4 93t1 97.5v75.5q0 37 -1 79t-2 81t-2 70.5t-3 48.5q-4 35 -15 51t-40 16q-14 0 -26.5 -3t-22.5 -7t-21 -8zM246 1098q-2 49 10 96t39 83t66.5 58.5t93.5 22.5q55 0 99 -19.5t83 -42.5 q45 -29 79 -53t68 -24q47 0 70 35.5t27 93.5l59 6q0 -51 -13.5 -99.5t-40 -85t-66.5 -58t-93 -21.5q-51 0 -96 19t-84 44q-45 27 -81 52.5t-71 25.5q-47 0 -67.5 -36t-22.5 -93z" />
<glyph unicode="&#xf2;" horiz-adv-x="1150" d="M74 463q0 123 50 227.5t142 169.5q70 51 155 79t185 28q184 0 309 -113q74 -66 116 -159t42 -206q0 -104 -37 -196t-108 -164q-72 -72 -163 -108.5t-208 -36.5q-113 0 -203 38.5t-152.5 104.5t-95 153t-32.5 183zM268 1415q0 31 23.5 49.5t54.5 18.5q37 0 76 -25.5 t80 -66.5q35 -35 70.5 -87.5t68.5 -99.5q37 -55 74 -117h-56q-78 49 -145 93q-57 37 -110.5 74.5t-75.5 58.5q-59 53 -60 102zM317 522q0 -90 15.5 -172t47.5 -146.5t82 -102.5t120 -38q121 0 185 100.5t64 272.5q0 88 -14 169t-47 142.5t-83 98.5t-120 37q-63 0 -110 -31 t-78 -81t-46.5 -114.5t-15.5 -134.5z" />
<glyph unicode="&#xf3;" horiz-adv-x="1150" d="M74 463q0 123 50 227.5t142 169.5q70 51 155 79t185 28q184 0 309 -113q74 -66 116 -159t42 -206q0 -104 -37 -196t-108 -164q-72 -72 -163 -108.5t-208 -36.5q-113 0 -203 38.5t-152.5 104.5t-95 153t-32.5 183zM317 522q0 -90 15.5 -172t47.5 -146.5t82 -102.5t120 -38 q121 0 185 100.5t64 272.5q0 88 -14 169t-47 142.5t-83 98.5t-120 37q-63 0 -110 -31t-78 -81t-46.5 -114.5t-15.5 -134.5zM408 1087q35 61 71 117q31 47 69 99.5t73 87.5q41 41 79.5 66.5t75.5 25.5q31 0 54.5 -18.5t23.5 -49.5q0 -49 -59 -102q-23 -20 -77 -58t-112 -75 q-68 -43 -143 -93h-55z" />
<glyph unicode="&#xf4;" horiz-adv-x="1150" d="M74 463q0 123 50 227.5t142 169.5q70 51 155 79t185 28q184 0 309 -113q74 -66 116 -159t42 -206q0 -104 -37 -196t-108 -164q-72 -72 -163 -108.5t-208 -36.5q-113 0 -203 38.5t-152.5 104.5t-95 153t-32.5 183zM270 1053v59l252 307h92l260 -307v-59l-305 186zM317 522 q0 -90 15.5 -172t47.5 -146.5t82 -102.5t120 -38q121 0 185 100.5t64 272.5q0 88 -14 169t-47 142.5t-83 98.5t-120 37q-63 0 -110 -31t-78 -81t-46.5 -114.5t-15.5 -134.5z" />
<glyph unicode="&#xf5;" horiz-adv-x="1150" d="M74 463q0 123 50 227.5t142 169.5q70 51 155 79t185 28q184 0 309 -113q74 -66 116 -159t42 -206q0 -104 -37 -196t-108 -164q-72 -72 -163 -108.5t-208 -36.5q-113 0 -203 38.5t-152.5 104.5t-95 153t-32.5 183zM227 1098q-2 49 10.5 96t39 83t66.5 58.5t93 22.5 q55 0 99.5 -19.5t82.5 -42.5q45 -29 79 -53t69 -24q47 0 69.5 35.5t26.5 93.5l60 6q0 -51 -13.5 -99.5t-40 -85t-66.5 -58t-93 -21.5q-51 0 -96.5 19t-84.5 44q-45 27 -80.5 52.5t-70.5 25.5q-47 0 -67.5 -36t-22.5 -93zM317 522q0 -90 15.5 -172t47.5 -146.5t82 -102.5 t120 -38q121 0 185 100.5t64 272.5q0 88 -14 169t-47 142.5t-83 98.5t-120 37q-63 0 -110 -31t-78 -81t-46.5 -114.5t-15.5 -134.5z" />
<glyph unicode="&#xf6;" horiz-adv-x="1150" d="M74 463q0 123 50 227.5t142 169.5q70 51 155 79t185 28q184 0 309 -113q74 -66 116 -159t42 -206q0 -104 -37 -196t-108 -164q-72 -72 -163 -108.5t-208 -36.5q-113 0 -203 38.5t-152.5 104.5t-95 153t-32.5 183zM246 1225q0 45 31.5 76.5t82.5 31.5q59 0 89 -32.5 t30 -75.5t-33.5 -74t-85.5 -31q-53 0 -83.5 30t-30.5 75zM317 522q0 -90 15.5 -172t47.5 -146.5t82 -102.5t120 -38q121 0 185 100.5t64 272.5q0 88 -14 169t-47 142.5t-83 98.5t-120 37q-63 0 -110 -31t-78 -81t-46.5 -114.5t-15.5 -134.5zM653 1225q0 45 32 76.5t83 31.5 q57 0 87 -32.5t30 -75.5t-34 -74t-83 -31q-53 0 -84 30t-31 75z" />
<glyph unicode="&#xf7;" horiz-adv-x="1124" d="M174 406v112h776v-112h-776zM444 166q0 47 34 81t81 34t80 -33t33 -82t-33 -82t-86 -33q-45 0 -77 34t-32 81zM444 760q0 47 34 80.5t81 33.5t80 -32.5t33 -81.5t-33 -82t-86 -33q-45 0 -77 34t-32 81z" />
<glyph unicode="&#xf8;" horiz-adv-x="1191" d="M92 -25l135 150q-39 35 -67 86q-25 43 -45.5 105.5t-20.5 146.5q0 106 38 198.5t107.5 160t166 106.5t212.5 39q72 0 126.5 -14.5t91.5 -30.5q41 -20 71 -45l60 67h125l-117 -129q33 -35 59 -82q23 -41 42.5 -101.5t19.5 -142.5q0 -100 -36 -191t-103.5 -160.5 t-163 -111.5t-213.5 -42q-66 0 -119 12t-88 29q-43 18 -74 41l-82 -91h-125zM338 522q0 -57 5 -101t11 -75q8 -37 19 -61q37 43 73 82q31 35 63 70.5t54 60.5q27 29 65 70.5t74 82.5q42 48 89 97q-18 37 -46 67q-25 25 -62.5 46.5t-92.5 21.5q-66 0 -113 -31t-77.5 -81 t-46 -114.5t-15.5 -134.5zM410 190q18 -37 45 -63q23 -25 58.5 -44.5t88.5 -19.5q123 0 186.5 100.5t63.5 272.5q0 49 -5 88t-9 68q-8 33 -15 57q-41 -47 -78 -88q-33 -35 -67.5 -73.5t-56.5 -63.5q-29 -33 -65 -73t-69 -75q-37 -41 -77 -86z" />
<glyph unicode="&#xf9;" horiz-adv-x="1130" d="M10 823q35 12 72 27q29 10 61.5 23.5t55.5 23.5q35 16 66.5 29.5t53.5 25.5q27 12 50 27q-2 -102 -4 -191q0 -39 -1.5 -77.5t-2.5 -73.5t-1 -63.5v-47.5q0 -111 2.5 -189.5t24.5 -125.5q16 -35 46 -52.5t81 -17.5q41 0 81 13.5t73 29.5q37 20 73 45v279v116.5t-2 73.5 q-4 37 -15 55.5t-38 18.5q-14 0 -26.5 -2t-22.5 -6t-21 -8l-12 67q39 14 76 29q31 12 62.5 25.5t54.5 23.5q43 18 74.5 32.5t52.5 24.5q23 10 39 21q-2 -104 -5 -195q0 -39 -1 -77.5t-2 -73.5t-1 -63.5v-43.5v-80t1 -82.5t2 -72.5t4 -49q4 -35 15 -52.5t40 -17.5 q14 0 26.5 2t22.5 6t22 10l13 -69q-39 -14 -76 -29q-33 -12 -72 -27.5t-75 -29.5q-80 -31 -109 -45l-29 -15v175q-55 -45 -116 -80q-53 -31 -122 -55.5t-141 -24.5q-59 0 -100 21.5t-66.5 58t-37 86t-11.5 104.5q-2 59 -1 124t1 122v115.5t-2 72.5q-4 41 -15 59.5t-36 18.5 q-14 0 -26.5 -2t-22.5 -6l-20 -8zM281 1415q0 31 23.5 49.5t53.5 18.5q37 0 76 -25.5t80 -66.5q35 -35 71 -87.5t68 -99.5q37 -55 74 -117h-55q-78 49 -146 93q-57 37 -110.5 74.5t-75.5 58.5q-59 53 -59 102z" />
<glyph unicode="&#xfa;" horiz-adv-x="1130" d="M10 823q35 12 72 27q29 10 61.5 23.5t55.5 23.5q35 16 66.5 29.5t53.5 25.5q27 12 50 27q-2 -102 -4 -191q0 -39 -1.5 -77.5t-2.5 -73.5t-1 -63.5v-47.5q0 -111 2.5 -189.5t24.5 -125.5q16 -35 46 -52.5t81 -17.5q41 0 81 13.5t73 29.5q37 20 73 45v279v116.5t-2 73.5 q-4 37 -15 55.5t-38 18.5q-14 0 -26.5 -2t-22.5 -6t-21 -8l-12 67q39 14 76 29q31 12 62.5 25.5t54.5 23.5q43 18 74.5 32.5t52.5 24.5q23 10 39 21q-2 -104 -5 -195q0 -39 -1 -77.5t-2 -73.5t-1 -63.5v-43.5v-80t1 -82.5t2 -72.5t4 -49q4 -35 15 -52.5t40 -17.5 q14 0 26.5 2t22.5 6t22 10l13 -69q-39 -14 -76 -29q-33 -12 -72 -27.5t-75 -29.5q-80 -31 -109 -45l-29 -15v175q-55 -45 -116 -80q-53 -31 -122 -55.5t-141 -24.5q-59 0 -100 21.5t-66.5 58t-37 86t-11.5 104.5q-2 59 -1 124t1 122v115.5t-2 72.5q-4 41 -15 59.5t-36 18.5 q-14 0 -26.5 -2t-22.5 -6l-20 -8zM418 1087q35 61 71 117q31 47 69 99.5t73 87.5q41 41 80 66.5t75 25.5q31 0 54.5 -18.5t23.5 -49.5q0 -49 -59 -102q-23 -20 -77 -58t-112 -75q-68 -43 -143 -93h-55z" />
<glyph unicode="&#xfb;" horiz-adv-x="1130" d="M10 823q35 12 72 27q29 10 61.5 23.5t55.5 23.5q35 16 66.5 29.5t53.5 25.5q27 12 50 27q-2 -102 -4 -191q0 -39 -1.5 -77.5t-2.5 -73.5t-1 -63.5v-47.5q0 -111 2.5 -189.5t24.5 -125.5q16 -35 46 -52.5t81 -17.5q41 0 81 13.5t73 29.5q37 20 73 45v279v116.5t-2 73.5 q-4 37 -15 55.5t-38 18.5q-14 0 -26.5 -2t-22.5 -6t-21 -8l-12 67q39 14 76 29q31 12 62.5 25.5t54.5 23.5q43 18 74.5 32.5t52.5 24.5q23 10 39 21q-2 -104 -5 -195q0 -39 -1 -77.5t-2 -73.5t-1 -63.5v-43.5v-80t1 -82.5t2 -72.5t4 -49q4 -35 15 -52.5t40 -17.5 q14 0 26.5 2t22.5 6t22 10l13 -69q-39 -14 -76 -29q-33 -12 -72 -27.5t-75 -29.5q-80 -31 -109 -45l-29 -15v175q-55 -45 -116 -80q-53 -31 -122 -55.5t-141 -24.5q-59 0 -100 21.5t-66.5 58t-37 86t-11.5 104.5q-2 59 -1 124t1 122v115.5t-2 72.5q-4 41 -15 59.5t-36 18.5 q-14 0 -26.5 -2t-22.5 -6l-20 -8zM252 1053v59l252 307h92l260 -307v-59l-305 186z" />
<glyph unicode="&#xfc;" horiz-adv-x="1130" d="M10 823q35 12 72 27q29 10 61.5 23.5t55.5 23.5q35 16 66.5 29.5t53.5 25.5q27 12 50 27q-2 -102 -4 -191q0 -39 -1.5 -77.5t-2.5 -73.5t-1 -63.5v-47.5q0 -111 2.5 -189.5t24.5 -125.5q16 -35 46 -52.5t81 -17.5q41 0 81 13.5t73 29.5q37 20 73 45v279v116.5t-2 73.5 q-4 37 -15 55.5t-38 18.5q-14 0 -26.5 -2t-22.5 -6t-21 -8l-12 67q39 14 76 29q31 12 62.5 25.5t54.5 23.5q43 18 74.5 32.5t52.5 24.5q23 10 39 21q-2 -104 -5 -195q0 -39 -1 -77.5t-2 -73.5t-1 -63.5v-43.5v-80t1 -82.5t2 -72.5t4 -49q4 -35 15 -52.5t40 -17.5 q14 0 26.5 2t22.5 6t22 10l13 -69q-39 -14 -76 -29q-33 -12 -72 -27.5t-75 -29.5q-80 -31 -109 -45l-29 -15v175q-55 -45 -116 -80q-53 -31 -122 -55.5t-141 -24.5q-59 0 -100 21.5t-66.5 58t-37 86t-11.5 104.5q-2 59 -1 124t1 122v115.5t-2 72.5q-4 41 -15 59.5t-36 18.5 q-14 0 -26.5 -2t-22.5 -6l-20 -8zM211 1225q0 45 31.5 76.5t83.5 31.5q59 0 88.5 -32.5t29.5 -75.5t-33.5 -74t-84.5 -31q-53 0 -84 30t-31 75zM618 1225q0 45 32 76.5t83 31.5q57 0 87 -32.5t30 -75.5t-34 -74t-83 -31q-53 0 -84 30t-31 75z" />
<glyph unicode="&#xfd;" horiz-adv-x="1064" d="M-2 879v63q45 -2 90 -2q39 -2 84 -2h84h78t76 2q39 0 79 2v-63q-121 0 -114 -76q0 -14 8 -41t20.5 -60.5t26.5 -71.5t29 -75q23 -59 43 -108.5t37 -86.5q18 -43 32 -77q16 39 35 79q16 35 36 81t40 94q35 82 55.5 141t20.5 100q0 49 -22.5 75t-84.5 26v63q39 -2 76 -2 q33 -2 70 -2h65h65t70 2q39 0 80 2v-63q-78 0 -131 -56q-39 -41 -80 -116.5t-100 -202.5q-16 -35 -41 -88.5t-53.5 -114.5t-59 -126.5t-59.5 -127t-53.5 -113t-40.5 -84.5q-59 -115 -112.5 -188.5t-100.5 -116.5t-88 -59t-76 -16q-31 0 -55.5 21.5t-24.5 55.5 q0 31 25.5 49.5t66.5 40t92.5 53t102.5 91.5q35 39 64.5 87t52.5 89q27 49 51 98q-23 53 -47 111q-23 49 -51.5 112.5t-57.5 133.5q-76 172 -123 284.5t-72 141.5q-20 23 -45.5 32t-62.5 9zM440 1087q35 61 72 117q31 47 68.5 99.5t72.5 87.5q41 41 80 66.5t76 25.5 q31 0 54.5 -18.5t23.5 -49.5q0 -49 -60 -102q-23 -20 -77 -58t-111 -75q-68 -43 -143 -93h-56z" />
<glyph unicode="&#xfe;" horiz-adv-x="1134" d="M8 1427q39 12 76 25q31 10 64.5 22.5t58.5 22.5q41 16 71.5 29.5t53.5 23.5t41 21v-58.5t-1 -134.5t-1 -175v-181v-150.5v-85.5q41 49 94 88q45 35 105.5 63t136.5 28t136 -33t103 -93.5t66.5 -143.5t23.5 -181q0 -117 -34.5 -212t-92.5 -161q-76 -88 -169 -129t-193 -41 q-41 0 -73 5.5t-54 13.5q-27 8 -47 20q0 -16 -1 -77.5t-1 -132t2 -132t8 -78.5q10 -29 47 -36t82 -7v-63q-4 0 -31.5 1t-65.5 1t-81 1t-76 1q-31 0 -70 -1t-72.5 -1t-59 -1t-29.5 -1v63q53 0 83.5 9.5t41.5 48.5q4 14 6 67.5t4 127t2 159.5v167v146.5v100.5v151t-1 186.5 t-2 198t-3 181t-3 140t-3 75.5q-4 29 -13.5 49t-38.5 20q-14 0 -28.5 -2t-24.5 -6q-12 -4 -25 -6zM371 240q0 -55 2 -113q18 -20 45 -37q23 -14 59.5 -25.5t89.5 -11.5q63 0 109.5 32t76 85t44 123.5t14.5 150.5q0 78 -15.5 143.5t-44 114t-71.5 75t-98 26.5 q-49 0 -87 -14.5t-67 -30.5q-33 -20 -55 -45q-2 -47 -2 -97v-176v-200z" />
<glyph unicode="&#xff;" horiz-adv-x="1064" d="M-2 879v63q45 -2 90 -2q39 -2 84 -2h84h78t76 2q39 0 79 2v-63q-121 0 -114 -76q0 -14 8 -41t20.5 -60.5t26.5 -71.5t29 -75q23 -59 43 -108.5t37 -86.5q18 -43 32 -77q16 39 35 79q16 35 36 81t40 94q35 82 55.5 141t20.5 100q0 49 -22.5 75t-84.5 26v63q39 -2 76 -2 q33 -2 70 -2h65h65t70 2q39 0 80 2v-63q-78 0 -131 -56q-39 -41 -80 -116.5t-100 -202.5q-16 -35 -41 -88.5t-53.5 -114.5t-59 -126.5t-59.5 -127t-53.5 -113t-40.5 -84.5q-59 -115 -112.5 -188.5t-100.5 -116.5t-88 -59t-76 -16q-31 0 -55.5 21.5t-24.5 55.5 q0 31 25.5 49.5t66.5 40t92.5 53t102.5 91.5q35 39 64.5 87t52.5 89q27 49 51 98q-23 53 -47 111q-23 49 -51.5 112.5t-57.5 133.5q-76 172 -123 284.5t-72 141.5q-20 23 -45.5 32t-62.5 9zM244 1225q0 45 31.5 76.5t82.5 31.5q59 0 89 -32.5t30 -75.5t-33.5 -74t-85.5 -31 q-53 0 -83.5 30t-30.5 75zM651 1225q0 45 32 76.5t83 31.5q57 0 87 -32.5t30 -75.5t-34 -74t-83 -31q-53 0 -84 30t-31 75z" />
<glyph unicode="&#x131;" horiz-adv-x="563" d="M41 834q31 10 61 22q27 10 59 22.5t64 24.5q53 20 86 33.5t54 24.5q23 10 34 18q0 -23 -1 -84t-1 -140v-160v-140v-108.5t1 -103.5t3 -86t7 -53q10 -27 35.5 -34t70.5 -7v-63q-8 0 -32.5 1t-57.5 1t-70 1t-69 1q-35 0 -74 -1t-74 -1t-59.5 -1t-28.5 -1v63q66 0 89.5 12.5 t33.5 35.5q6 16 9 59t4 93t1 97.5v75.5q0 37 -1 79t-2 81t-2 70.5t-3 48.5q-4 35 -15 51t-38 16q-16 0 -28.5 -3t-22.5 -7t-21 -8z" />
<glyph unicode="&#x141;" horiz-adv-x="1091" d="M16 580q41 20 78 43q33 18 69 40.5t64 41.5v24v214t-1 145.5t-4 91t-9 51.5q-12 39 -44 52t-87 13v66q43 -2 88 -2q39 -2 86 -2h92h77t83 2q45 0 94 2v-66q-51 0 -83 -8t-44 -43q-10 -29 -14 -130t-6 -269q35 23 75.5 48.5t75.5 47.5q41 27 82 53l43 -102 q-49 -31 -100 -59q-43 -25 -91 -52.5t-85 -50.5q0 -209 1 -324.5t4 -174t10 -76t19 -29.5q20 -18 63.5 -24.5t131.5 -6.5q164 0 225 78q25 29 33 65.5t8 51.5h70q-2 -31 -2 -64v-139v-55q0 -19 2 -37q-131 0 -258 2q-109 2 -225.5 3t-202.5 1q-33 0 -75 -1t-81 -1h-94v63 q53 0 82 13.5t43 54.5q4 14 8 42t6 79t3 132t1 204q-29 -16 -57.5 -36t-52.5 -36q-29 -20 -56 -37z" />
<glyph unicode="&#x142;" horiz-adv-x="620" d="M2 526q23 16 77 55.5t114 84.5v104q0 162 -1.5 262.5t-3.5 157.5t-3 81.5t-1 33.5q-4 29 -13 49t-38 20q-14 0 -28.5 -2t-24.5 -6q-12 -4 -25 -6l-12 67q35 12 72 25q31 10 65.5 22.5t63.5 24.5q31 10 60.5 23.5t51.5 23.5q27 12 54 25q-2 -4 -2 -10v-17v-63v-110.5 t-1 -138.5t-1 -148.5v-141.5v-115q23 18 51 40t51 40q27 23 55 45l55 -86q-43 -29 -79 -55q-35 -23 -70 -50.5t-63 -47.5v-324q0 -100 1 -172t5 -90q6 -33 27.5 -48.5t97.5 -15.5v-63q-45 0 -91 2q-39 0 -81.5 1t-77.5 1q-31 0 -72 -1t-76 -1q-41 -2 -84 -2v63q53 0 84 11.5 t41 46.5q6 20 8 63t3.5 100.5t1.5 126v138.5q-23 -16 -46.5 -34.5t-44.5 -35.5q-23 -18 -47 -37z" />
<glyph unicode="&#x152;" horiz-adv-x="1998" d="M100 653q0 115 26 213.5t71 178t105 139t130 96.5q94 53 195.5 73.5t212.5 20.5q68 0 122 -2t105 -5t103.5 -5t115.5 -2q72 0 170 1t191 3q106 2 217 4q-2 -16 -2 -31v-51v-131q0 -29 2 -51h-70q0 55 -11 88t-37 50.5t-67 21.5t-98 4q-20 0 -62 -1t-85 -3q-51 -2 -109 -2 v-496q33 -2 66 -2h120q125 0 152 16q16 10 25.5 29.5t13.5 42.5q6 25 8 55h70q-2 -35 -2 -71q-2 -31 -2 -65v-56v-59.5t2 -61.5q0 -35 2 -70h-70q0 18 -2 39q-4 39 -27 68q-16 20 -54 28.5t-111 8.5q-29 0 -63 -1t-62 -1h-66v-318q0 -102 5 -147t20 -62q20 -23 70 -33 t147 -10q94 0 145 13.5t86 44.5q23 23 39 66.5t16 70.5h70q-2 -31 -2 -64v-139v-55q0 -19 2 -37q-139 0 -266 2q-111 2 -222.5 3t-183.5 1q-41 0 -95 -3t-112.5 -6t-118 -5t-112.5 -2q-174 0 -309 46t-228 138q-86 84 -131 204t-45 279zM350 688q0 -297 129 -451.5 t365 -154.5q74 0 121 5t75 13q33 8 50 21q0 96 2 198q2 88 3 196t1 214q0 139 -1 235.5t-1 155.5v115q-23 12 -58 20q-29 8 -73.5 15.5t-104.5 7.5q-117 0 -212 -36t-161 -109q-135 -154 -135 -445z" />
<glyph unicode="&#x153;" horiz-adv-x="1718" d="M74 463q0 106 38 198.5t108.5 160t169.5 106.5t220 39q92 0 158 -27t111 -57q51 -37 86 -82q33 45 84 82q43 31 107.5 56.5t150.5 25.5q84 0 148.5 -35t107.5 -90.5t64.5 -124t21.5 -133.5q0 -33 -33 -33h-553q-2 -10 -2 -19v-30q2 -94 28.5 -164t70.5 -116t99.5 -69.5 t114.5 -23.5q43 0 83 11.5t74 27.5t59.5 34.5t41.5 32.5l39 -53q-92 -92 -199.5 -145t-226.5 -53q-84 0 -143.5 23.5t-97.5 51.5q-45 33 -74 76q-35 -43 -88 -76q-47 -29 -117 -51t-168 -22q-113 0 -203 38.5t-152.5 105.5t-95 153t-32.5 182zM317 522q0 -90 15.5 -172 t47.5 -146.5t82 -102.5t120 -38q121 0 185 100.5t64 272.5q0 88 -14 169t-47 142.5t-83 98.5t-120 37q-63 0 -110 -31t-78 -81t-46.5 -114.5t-15.5 -134.5zM1071 629h356q0 49 -9 94t-28.5 80t-49 55.5t-70.5 20.5t-75 -20.5t-60.5 -55.5t-43 -80t-20.5 -94z" />
<glyph unicode="&#x160;" horiz-adv-x="1083" d="M92 342h78q0 -72 22.5 -122t63.5 -80.5t97.5 -45t121.5 -14.5q135 0 205 57.5t70 155.5q0 39 -14.5 71.5t-49.5 67.5t-95.5 77t-152.5 103q-68 45 -121 88t-90 91.5t-55 104.5t-18 128q0 96 52 171t130 116q111 66 280 65q98 0 159 -9t104 -9h11t11 2q6 0 12 2 q-2 -16 -2 -33v-55q0 -29 1 -64.5t3 -66.5q2 -37 3 -74h-82q0 45 -13.5 85t-42 69.5t-72.5 47t-108 17.5q-125 0 -185.5 -55t-60.5 -137q0 -49 16.5 -88t52.5 -75t90 -74t128 -85t134.5 -89t103.5 -87t66.5 -96t23.5 -117q0 -78 -30 -149.5t-91.5 -127t-157.5 -89 t-229 -33.5q-66 0 -119 7t-97 17t-80 19.5t-67 13.5v23q0 10 1 20t1 20q-2 41 -2 83t-2 77q-2 39 -4 76zM289 1749v57l305 -184l297 184v-57l-252 -309h-92z" />
<glyph unicode="&#x161;" horiz-adv-x="813" d="M59 293h68q0 -45 14.5 -87t44 -75t72.5 -52.5t100 -19.5q100 0 145.5 44t43.5 102q0 35 -14.5 60.5t-42 48t-69.5 46t-97 54.5q-41 23 -81 49t-73 60t-52.5 78t-19.5 99q0 82 49.5 141.5t108.5 86.5q41 18 85 25.5t91 7.5q72 0 115 -10.5t55 -10.5q29 0 29 45h65 q-2 -18 -2 -41v-86v-104q0 -29 2 -56h-67q0 53 -15.5 89t-40 57.5t-58.5 31t-71 9.5q-90 0 -124.5 -35t-34.5 -82q0 -29 11 -51.5t34.5 -44t60.5 -45t90 -52.5q49 -29 96.5 -57.5t83 -61t57 -74.5t21.5 -97q0 -74 -31.5 -130.5t-84.5 -95.5q-49 -37 -121 -57t-150 -20 q-90 0 -164.5 22.5t-121.5 54.5v74q0 23 -1.5 49.5t-3.5 50.5q-2 29 -2 60zM154 1384v58l305 -185l297 185v-58l-252 -309h-92z" />
<glyph unicode="&#x178;" horiz-adv-x="1296" d="M0 1296v66q47 -2 98 -2q43 -2 92.5 -2h94.5h80t79 2q43 0 86 2v-66q-55 0 -82.5 -7t-27.5 -34t32.5 -86t75.5 -129q23 -39 51.5 -84t53.5 -86q29 -47 57 -94q20 33 43 66q18 29 39 58.5t37 51.5q68 100 107.5 168t39.5 111q0 39 -41 52t-94 13v66q47 -2 97 -2 q41 -2 88 -2h88h64.5t66.5 2q37 0 71 2v-66q-25 0 -50 -8t-48 -20q-31 -16 -69.5 -58.5t-78.5 -95.5t-78 -108.5t-67 -98.5q-14 -20 -39.5 -58t-52.5 -79q-31 -47 -65 -98v-195.5t2 -162t5 -117.5t7 -62q20 -72 131 -72v-63q-45 0 -92 2q-41 0 -86 1t-86 1h-85t-81 -2 q-43 -2 -86 -2v63q53 0 81.5 13.5t43.5 54.5q10 35 14 152.5t4 324.5q-29 49 -63 105q-29 47 -66 108.5t-78 130.5q-47 80 -90 149.5t-86 123.5q-25 29 -60.5 50t-76.5 21zM367 1614q0 45 31.5 76.5t82.5 31.5q59 0 89 -32.5t30 -75.5t-34 -74t-85 -31q-53 0 -83.5 30 t-30.5 75zM774 1614q0 45 32 76.5t83 31.5q57 0 87 -32.5t30 -75.5t-34 -74t-83 -31q-53 0 -84 30t-31 75z" />
<glyph unicode="&#x17d;" horiz-adv-x="1384" d="M70 2q106 160 211 317q45 68 94 142t98 149.5t98.5 148t92.5 138.5q35 53 77.5 116.5t79.5 119.5q43 66 88 131h-321q-90 0 -145.5 -1t-88 -5.5t-48 -11.5t-27.5 -17q-18 -16 -26.5 -43t-12.5 -53q-4 -31 -2 -64h-80q0 27 2 55q0 25 1 56.5t1 66.5q0 18 -1 40t-1 40 q-2 23 -2 43q33 -2 102 -4q59 -2 167 -3t286 -1q139 0 238.5 1t164.5 3q76 2 127 4q-74 -111 -149 -223q-33 -47 -68 -100.5t-70.5 -106.5t-70.5 -105.5t-66 -97.5q-63 -92 -137 -202.5t-139 -206.5q-76 -113 -152 -224h133q57 0 124 -1t126 1q117 0 195 6.5t125 32 t67.5 76.5t20.5 143h80q-2 -45 -5 -90q-2 -39 -2 -80.5v-76.5v-78q0 -23 2 -41q-88 2 -184 4q-82 2 -184.5 2t-204.5 2h-68t-89 -1t-100 -1h-103h-254zM399 1749v57l306 -184l296 184v-57l-251 -309h-93z" />
<glyph unicode="&#x17e;" horiz-adv-x="1009" d="M51 -2q39 49 75 99t73 107.5t78.5 123t95.5 143.5q16 27 57 86t82 123q49 72 102 158q-23 0 -47 2q-23 0 -53.5 1t-64.5 1h-68t-67.5 -4t-58.5 -13.5t-40 -27.5q-20 -27 -29.5 -61t-9.5 -70h-70q2 37 5 73q2 31 3 67t1 68q0 16 -1 35t-1 35q-2 20 -2 39h63q0 -8 7 -20.5 t38 -16.5q37 -6 130 -6h204h120.5t117.5 2q61 0 120 2q-37 -51 -84 -121q-41 -59 -99 -146t-132 -202q-53 -80 -95 -148.5t-75 -119.5q-37 -59 -68 -107q33 -2 66 -2q29 -2 61.5 -2h61.5q82 0 142.5 5t100 25.5t61 62.5t26.5 114h69q-4 -33 -6 -65q-4 -29 -5 -60t-3 -57 q-2 -18 -3 -39t-1 -39q-2 -23 -2 -43h-178q-72 0 -139.5 1t-94.5 1q-70 0 -149.5 -1t-149.5 -1q-82 -2 -164 -2zM215 1384v58l305 -185l297 185v-58l-252 -309h-92z" />
<glyph unicode="&#x192;" horiz-adv-x="1087" d="M-94 -444q0 39 26.5 68.5t79.5 29.5q33 0 56.5 -12.5t44 -25.5t39 -25.5t43.5 -12.5q27 0 46 10.5t42 38.5q41 53 59 158.5t35 259.5q10 109 23.5 243t25.5 257q12 141 27 286h-203v99h211q14 135 67.5 247.5t133.5 192.5q96 98 187 140t177 42q59 0 95 -28.5t36 -65.5 t-26.5 -65.5t-73.5 -28.5q-27 0 -46.5 7t-38 15.5t-38 15.5t-43.5 7q-63 0 -111 -57q-39 -45 -59.5 -117t-30.5 -139q-12 -80 -16 -166h239v-99h-245l-56 -561q-10 -94 -21 -189t-35 -184.5t-60.5 -167t-96.5 -135.5q-59 -63 -139 -103t-197 -40q-66 0 -111.5 25.5 t-45.5 79.5z" />
<glyph unicode="&#x2c6;" d="M238 1053v59l251 307h93l260 -307v-59l-305 186z" />
<glyph unicode="&#x2c7;" d="M231 1335v58l306 -185l297 185v-58l-252 -309h-93z" />
<glyph unicode="&#x2d8;" d="M182 1380l51 27q27 -51 68 -90q35 -35 89 -61.5t130 -26.5q72 0 125 26.5t92 61.5q43 39 78 90l51 -27q-27 -92 -75 -161q-41 -61 -108 -111.5t-165 -50.5q-104 0 -169.5 50t-102.5 112q-43 70 -64 161z" />
<glyph unicode="&#x2d9;" d="M375 1280q0 51 40 89t95 38q57 0 98 -38t41 -89q0 -53 -41 -91t-98 -38q-55 0 -95 38t-40 91z" />
<glyph unicode="&#x2da;" d="M297 1274q0 92 61.5 153.5t153.5 61.5q94 0 154.5 -61.5t60.5 -153.5q0 -45 -16.5 -84t-46 -68.5t-68.5 -46t-84 -16.5q-94 0 -154.5 61.5t-60.5 153.5zM393 1272q0 -51 33 -88t86 -37t86 37t33 88q0 49 -33 87t-86 38q-59 0 -89 -38t-30 -87z" />
<glyph unicode="&#x2db;" d="M315 -279q0 66 42 126.5t96 107.5q59 55 137 104l78 -34q-43 -37 -78 -80q-29 -37 -53.5 -84t-24.5 -99q0 -68 29.5 -97.5t76.5 -29.5q20 0 42 5.5t40 13.5q23 8 43 20l21 -43q-31 -27 -68 -47q-35 -16 -82 -30.5t-108 -14.5q-78 0 -134.5 46t-56.5 136z" />
<glyph unicode="&#x2dc;" d="M195 1098q-2 49 10 96t38.5 83t66.5 58.5t93 22.5q55 0 99.5 -19.5t83.5 -42.5q45 -29 78.5 -53t68.5 -24q47 0 69.5 35.5t26.5 93.5l60 6q0 -51 -13.5 -99.5t-40 -85t-66.5 -58t-93 -21.5q-51 0 -96 19t-84 44q-45 27 -81 52.5t-71 25.5q-47 0 -67.5 -36t-22.5 -93z" />
<glyph unicode="&#x2dd;" d="M135 1057q8 14 27.5 46t47.5 75t62.5 90t75.5 92q43 49 91 76.5t87 27.5q27 0 44.5 -17t17.5 -40q0 -25 -17.5 -53.5t-48.5 -61.5q-29 -29 -79 -66.5t-102 -73.5t-95 -62.5t-56 -32.5h-55zM500 1057q8 14 27.5 46t47 75t62.5 90t76 92q43 49 91 76.5t87 27.5q27 0 44 -17 t17 -40q0 -25 -17 -53.5t-48 -61.5q-29 -29 -79 -66.5t-102.5 -73.5t-95.5 -62.5t-55 -32.5h-55z" />
<glyph unicode="&#x3c0;" horiz-adv-x="1124" d="M55 602q4 14 17.5 58.5t44 91.5t82 83.5t131.5 36.5h692v-155h-227q-10 -129 -17.5 -213t-7.5 -144q0 -43 4 -81.5t16.5 -69.5t37 -48.5t65.5 -17.5q20 0 39.5 12.5t34 31t23.5 43t9 49.5h37q0 -70 -17.5 -125.5t-47 -94.5t-68.5 -60.5t-80 -21.5q-74 0 -112.5 57.5 t-38.5 155.5q0 8 1 36t4 66t6 85t7 94q8 111 19 246h-269l-45 -357q-12 -92 -22.5 -164.5t-25.5 -121.5t-39.5 -75t-63.5 -26q-53 0 -80 25t-27 63q0 41 21.5 66t49.5 53.5t54.5 68.5t36.5 111l55 357h-110q-39 0 -86 -25.5t-72 -89.5h-31z" />
<glyph unicode="&#x2000;" horiz-adv-x="964" />
<glyph unicode="&#x2001;" horiz-adv-x="1929" />
<glyph unicode="&#x2002;" horiz-adv-x="964" />
<glyph unicode="&#x2003;" horiz-adv-x="1929" />
<glyph unicode="&#x2004;" horiz-adv-x="643" />
<glyph unicode="&#x2005;" horiz-adv-x="482" />
<glyph unicode="&#x2006;" horiz-adv-x="321" />
<glyph unicode="&#x2007;" horiz-adv-x="321" />
<glyph unicode="&#x2008;" horiz-adv-x="241" />
<glyph unicode="&#x2009;" horiz-adv-x="385" />
<glyph unicode="&#x200a;" horiz-adv-x="107" />
<glyph unicode="&#x2010;" horiz-adv-x="643" d="M53 393v139h537v-139h-537z" />
<glyph unicode="&#x2011;" horiz-adv-x="643" d="M53 393v139h537v-139h-537z" />
<glyph unicode="&#x2012;" horiz-adv-x="643" d="M53 393v139h537v-139h-537z" />
<glyph unicode="&#x2013;" d="M0 512v98h1024v-98h-1024z" />
<glyph unicode="&#x2014;" horiz-adv-x="2048" d="M0 512v98h2048v-98h-2048z" />
<glyph unicode="&#x2018;" horiz-adv-x="432" d="M70 1061q0 49 26.5 101t73.5 106q29 33 58.5 58.5t52.5 43.5q27 23 53 37l53 -53q-39 -33 -68 -64q-27 -27 -47 -55.5t-20 -50.5q0 -29 20.5 -38t38.5 -26q23 -18 31 -35.5t8 -48.5q0 -47 -35.5 -86t-107.5 -39q-66 0 -101.5 43t-35.5 107z" />
<glyph unicode="&#x2019;" horiz-adv-x="432" d="M45 965q37 33 68 63q25 27 46 55.5t21 51.5q0 29 -20.5 38t-38.5 25q-23 18 -31 35.5t-8 48.5q0 47 36 86t107 39q66 0 101.5 -43.5t35.5 -106.5q0 -49 -26.5 -101t-73.5 -105q-29 -35 -58.5 -59.5t-51.5 -43.5q-27 -23 -54 -37z" />
<glyph unicode="&#x201a;" horiz-adv-x="432" d="M43 -201q37 33 68 64q25 27 46 55.5t21 50.5q0 29 -20.5 38t-38.5 26q-23 18 -31 35.5t-8 48.5q0 47 36 86t107 39q66 0 101.5 -43.5t35.5 -106.5q0 -49 -26.5 -101t-73.5 -106q-29 -35 -58.5 -59.5t-51.5 -42.5q-27 -23 -54 -37z" />
<glyph unicode="&#x201c;" horiz-adv-x="690" d="M70 1061q0 49 26.5 101t73.5 106q29 33 58.5 58.5t52.5 43.5q27 23 53 37l53 -53q-39 -33 -68 -64q-27 -27 -47 -55.5t-20 -50.5q0 -29 20.5 -38t38.5 -26q23 -18 31 -35.5t8 -48.5q0 -47 -35.5 -86t-107.5 -39q-66 0 -101.5 43t-35.5 107zM397 1061q0 49 27 101t74 106 q29 33 58.5 58.5t51.5 43.5q27 23 54 37l53 -53q-39 -33 -68 -64q-27 -27 -47 -55.5t-20 -50.5q0 -29 20.5 -38t38.5 -26q23 -18 31 -35.5t8 -48.5q0 -47 -36 -86t-107 -39q-66 0 -102 43t-36 107z" />
<glyph unicode="&#x201d;" horiz-adv-x="690" d="M45 965q37 33 68 63q25 27 46 55.5t21 51.5q0 29 -20.5 38t-38.5 25q-23 18 -31 35.5t-8 48.5q0 47 36 86t107 39q66 0 101.5 -43.5t35.5 -106.5q0 -49 -26.5 -101t-73.5 -105q-29 -35 -58.5 -59.5t-51.5 -43.5q-27 -23 -54 -37zM373 965q37 33 67 63q25 27 46.5 55.5 t21.5 51.5q0 29 -20.5 38t-38.5 25q-23 18 -31 35.5t-8 48.5q0 47 35.5 86t107.5 39q66 0 101.5 -43.5t35.5 -106.5q0 -49 -26.5 -101t-73.5 -105q-29 -35 -58.5 -59.5t-52.5 -43.5q-27 -23 -53 -37z" />
<glyph unicode="&#x201e;" horiz-adv-x="690" d="M43 -201q37 33 68 64q25 27 46 55.5t21 50.5q0 29 -20.5 38t-38.5 26q-23 18 -31 35.5t-8 48.5q0 47 36 86t107 39q66 0 101.5 -43.5t35.5 -106.5q0 -49 -26.5 -101t-73.5 -106q-29 -35 -58.5 -59.5t-51.5 -42.5q-27 -23 -54 -37zM371 -201q37 33 67 64q25 27 46.5 55.5 t21.5 50.5q0 29 -20.5 38t-39.5 26q-23 18 -30.5 35.5t-7.5 48.5q0 47 35.5 86t107.5 39q66 0 101.5 -43.5t35.5 -106.5q0 -49 -26.5 -101t-73.5 -106q-29 -35 -58.5 -59.5t-52.5 -42.5q-27 -23 -53 -37z" />
<glyph unicode="&#x2020;" horiz-adv-x="1087" d="M203 924v159l286 -39l-24 299h160l-27 -299l283 39v-159l-283 34l29 -1028h-170l32 1028z" />
<glyph unicode="&#x2021;" horiz-adv-x="1087" d="M203 924v159l286 -39l-24 299h160l-27 -299l283 39v-157l-285 32l27 -266h-158l24 266zM207 201v157l285 -32l-27 266h158l-25 -266l287 34v-159l-287 39l25 -299h-160l26 299z" />
<glyph unicode="&#x2022;" horiz-adv-x="1087" d="M262 682q0 57 22.5 108.5t60.5 89.5t89 60.5t109 22.5q57 0 108 -22.5t89 -60.5t60.5 -89.5t22.5 -108.5t-22.5 -108.5t-60.5 -89.5t-89 -59.5t-108 -21.5t-108.5 21.5t-89.5 59.5t-60.5 89.5t-22.5 108.5z" />
<glyph unicode="&#x2026;" horiz-adv-x="2048" d="M197 113q0 55 39.5 95t103.5 40q72 0 108.5 -41t36.5 -94q0 -55 -41 -93t-104 -38q-66 0 -104.5 36.5t-38.5 94.5zM879 113q0 55 39.5 95t103.5 40q72 0 108.5 -41t36.5 -94q0 -55 -41 -93t-104 -38q-66 0 -104.5 36.5t-38.5 94.5zM1563 113q0 55 39.5 95t103.5 40 q72 0 108.5 -41t36.5 -94q0 -55 -41 -93t-104 -38q-66 0 -104.5 36.5t-38.5 94.5z" />
<glyph unicode="&#x202f;" horiz-adv-x="385" />
<glyph unicode="&#x2030;" horiz-adv-x="2260" d="M61 1036q0 76 27 142.5t72 115.5t104.5 77t124.5 28q74 0 133.5 -28t101.5 -76t64.5 -113.5t22.5 -141.5t-26 -142.5t-70 -116.5t-103 -78.5t-129 -28.5q-72 0 -130 28.5t-101 77.5t-67 115t-24 141zM162 -33l196 262q41 55 87.5 118t92.5 125.5t91 123.5t86 117 q70 94 153.5 210.5t157.5 221.5q86 121 174 241h133q-92 -125 -184 -251q-78 -109 -168 -232t-164 -225q-37 -51 -79 -108.5t-86 -117t-87 -119t-82 -112.5q-94 -127 -186 -254h-135zM244 1034q0 -55 9 -105t26.5 -90t44 -63.5t63.5 -23.5q39 0 66.5 24.5t45 64.5t24.5 91 t7 106t-7 105.5t-23.5 88.5t-44 61.5t-68.5 23.5q-37 0 -64.5 -23.5t-45 -63.5t-25.5 -90t-8 -106zM786 319q0 76 27 141.5t72 115t104.5 78t124.5 28.5q72 0 131.5 -27.5t101.5 -76t64.5 -113.5t22.5 -141t-25 -142.5t-69 -117t-103 -79t-129 -28.5q-72 0 -130 28.5 t-101 78t-67 115t-24 140.5zM969 317q0 -55 8 -105t26.5 -90t45 -63.5t63.5 -23.5q39 0 65.5 24.5t44 64.5t24.5 91.5t7 106.5t-7 105t-23.5 88t-43 61.5t-67.5 23.5q-39 0 -65.5 -23.5t-44 -63.5t-25.5 -90t-8 -106zM1565 319q0 76 26.5 141.5t71.5 115t104.5 78 t124.5 28.5q72 0 131.5 -27.5t101.5 -76t64.5 -113.5t22.5 -141t-25.5 -142.5t-69.5 -117t-103.5 -79t-127.5 -28.5q-72 0 -130 28.5t-101 78t-66.5 115t-23.5 140.5zM1747 317q0 -55 8 -105t26.5 -90t45 -63.5t63.5 -23.5q39 0 65.5 24.5t44 64.5t25 91.5t7.5 106.5 t-7.5 105t-23.5 88t-43 61.5t-68 23.5q-39 0 -65.5 -23.5t-44 -63.5t-25.5 -90t-8 -106z" />
<glyph unicode="&#x2039;" horiz-adv-x="491" d="M51 475l244 338l72 -45l-166 -293l164 -295l-70 -45z" />
<glyph unicode="&#x203a;" horiz-adv-x="491" d="M127 180l162 295l-162 293l68 45l245 -338l-245 -342z" />
<glyph unicode="&#x2044;" horiz-adv-x="0" d="M-586 -33q98 131 197 262q41 55 87 118t92 125.5t91 123.5t86 117q70 94 154 210.5t158 221.5q86 121 174 241h133q-92 -125 -185 -251q-78 -109 -168 -232t-163 -225q-37 -51 -79 -108.5t-86 -117t-87 -119t-82 -112.5q-92 -127 -185 -254h-137z" />
<glyph unicode="&#x205f;" horiz-adv-x="482" />
<glyph unicode="&#x2122;" horiz-adv-x="1970" d="M84 1178v43q0 18 1 39.5t1 42.5q0 4 -1 13t-1 19v23q43 -2 96 -4q45 -2 106.5 -2h135.5h140.5t103.5 2q49 2 86 4q-2 -12 -2 -23q-2 -10 -2 -19v-13v-82q0 -23 2 -43h-62q0 55 -28.5 78.5t-73.5 23.5h-99q-2 -33 -2 -70q-2 -33 -2 -78v-100v-153.5t1 -89t3 -44t5 -18.5 q10 -25 75 -25v-53h-55q-23 0 -49.5 1t-48.5 1q-23 0 -47.5 -1t-47.5 -1h-49v53q31 0 45.5 4.5t20.5 18.5q2 6 5 18.5t4 43t2 88t1 155.5q0 49 -1 94t-1 80v76h-106q-41 0 -68 -21.5t-27 -80.5h-61zM836 1303v51h116h58q16 0 32 2q27 -49 54 -101q23 -43 49 -91t49 -89 q16 -35 38.5 -72.5t41.5 -72.5q23 -39 43 -80q20 41 41 78q16 33 36.5 69.5t37.5 69.5q23 43 49 93t49 93q27 51 55 103q18 -2 39 -2h70h100v-51q-76 0 -86 -23q-4 -6 -6 -18.5t-4 -39t-2 -71.5v-119v-141t1 -89t2 -50.5t3 -24.5q4 -12 25.5 -18.5t56.5 -6.5v-53h-58 q-25 0 -50 1t-46 1q-23 0 -47 -1t-47 -1h-51v53q55 0 67 23q6 16 7.5 59t1.5 93q0 49 -1 97t-1 85v84q-18 -31 -37 -68q-16 -31 -36 -68.5t-40 -74.5q-23 -43 -50.5 -96.5t-52.5 -100.5q-29 -55 -57 -112q-29 49 -55 102q-23 43 -50.5 94t-52.5 96q-23 41 -45 80t-39 72 q-20 37 -38 72v-135q0 -74 1 -124.5t3 -81t4 -47t4 -24.5q8 -25 82 -25v-53h-41q-18 0 -40 1t-44 1q-23 0 -44.5 -1t-41.5 -1h-45v53q59 0 69 23q4 8 7.5 26.5t5.5 54.5t3 90t1 134v236q-6 10 -19 18q-10 6 -28.5 12.5t-46.5 6.5z" />
<glyph unicode="&#x2126;" horiz-adv-x="1572" d="M70 0v307h51q8 -37 18.5 -61.5t25.5 -38.5t36.5 -19.5t54.5 -5.5h303l-4 58q-111 25 -193.5 86t-137 142t-81 174t-26.5 185q0 141 50 254t139 193t213 123t269 43q152 0 276 -43t212 -122t136 -192.5t48 -255.5q0 -92 -23.5 -185t-75.5 -174t-136 -142.5t-203 -85.5 l-6 -58h305q33 0 54.5 5.5t36.5 19.5t24.5 38.5t19.5 61.5h51v-307h-604l33 287q49 18 104.5 56t101.5 101.5t75.5 157.5t29.5 225q0 109 -26.5 208.5t-83 174t-143.5 119.5t-206 45q-121 0 -207.5 -42t-142 -115.5t-82 -174t-26.5 -215.5q0 -133 30.5 -228t76.5 -158.5 t100.5 -100.5t103.5 -53l33 -287h-604z" />
<glyph unicode="&#x2202;" horiz-adv-x="1011" d="M84 358q0 143 35 246t93 168.5t131 95t151 29.5q55 0 96 -8t73.5 -24.5t60.5 -40t58 -56.5q2 18 3 33.5t2 32t1 38v50.5q0 205 -77.5 315.5t-268.5 110.5q-55 0 -91 -6.5t-61.5 -15.5t-43 -20.5t-33.5 -21.5l-80 102q47 23 114.5 40.5t160.5 17.5q133 0 233 -51.5 t168 -138.5t102.5 -203.5t34.5 -245.5q0 -158 -30.5 -307.5t-94 -267t-162 -189.5t-235.5 -72q-74 0 -136.5 22.5t-107.5 70t-70.5 121t-25.5 175.5zM254 358q0 -92 12.5 -154.5t37 -100t59 -53t79.5 -15.5q82 0 140.5 53t97.5 143.5t60.5 208t31.5 246.5q-16 18 -36.5 38.5 t-47 38t-62.5 30t-83 12.5q-145 0 -217 -122t-72 -325z" />
<glyph unicode="&#x2206;" horiz-adv-x="1253" d="M12 0l656 1409l577 -1409h-1233zM147 100h844l-397 959z" />
<glyph unicode="&#x220f;" horiz-adv-x="1685" d="M51 -160q45 0 82 6.5t63.5 23.5t40 50t13.5 86v1282q0 72 -22.5 113t-53.5 60.5t-64.5 24.5t-54.5 5v47h1583v-47q-23 0 -55.5 -5t-63 -24.5t-52 -60.5t-21.5 -113v-1282q0 -53 14.5 -86t40 -50t62 -23.5t82.5 -6.5v-47h-627v47q45 0 81 6.5t61.5 23.5t39.5 50t14 86 v1419h-733v-1419q0 -53 14.5 -86t40 -50t62.5 -23.5t82 -6.5v-47h-629v47z" />
<glyph unicode="&#x2211;" horiz-adv-x="1460" d="M29 -193l714 816l-710 929q53 -4 106.5 -9t106.5 -5h1018l12 -326h-41q-16 49 -29.5 92.5t-44.5 75t-86 49t-153 17.5h-539l559 -733l-602 -695h760q51 0 90 10.5t71.5 37t60.5 71.5t54 113h47q-18 -78 -31.5 -130t-22.5 -99.5t-16 -99.5t-18 -130q-41 6 -79.5 14.5 t-77.5 8.5h-1031q-31 0 -59.5 -3.5t-58.5 -3.5z" />
<glyph unicode="&#x2212;" horiz-adv-x="1124" d="M104 414v129q78 -2 158 -2h293h303q82 0 164 2v-129h-162q-72 0 -153.5 1t-153.5 1q-66 0 -143.5 -1t-145.5 -1h-160z" />
<glyph unicode="&#x221a;" horiz-adv-x="1124" d="M20 922l299 147l404 -825l260 1634l72 -10l-307 -1946l-498 1028l-197 -96z" />
<glyph unicode="&#x221e;" horiz-adv-x="1460" d="M55 530q0 63 21.5 117.5t58.5 94.5t87 62.5t110 22.5q51 0 94 -11t87 -36.5t96.5 -67.5t121.5 -104q57 55 106.5 95t97.5 68t99 41t113 13q117 0 188.5 -71.5t71.5 -202.5q0 -63 -21.5 -117.5t-58.5 -94.5t-88 -62.5t-109 -22.5q-51 0 -94 11t-87 37t-96 68t-122 103 q-59 -55 -107.5 -96t-96.5 -67.5t-99 -40t-113 -13.5q-117 0 -188.5 71.5t-71.5 202.5zM166 532q0 -96 56.5 -137t129.5 -41q37 0 72 10.5t70.5 34t77 58.5t92.5 84q-61 51 -107.5 86t-83.5 55t-67.5 29.5t-61.5 9.5q-96 0 -137 -52.5t-41 -136.5zM799 541q61 -51 107 -86 t83 -55.5t67.5 -30t61.5 -9.5q96 0 137 52.5t41 136.5q0 96 -56 137t-130 41q-37 0 -71.5 -10t-70.5 -34t-77 -58.5t-92 -83.5z" />
<glyph unicode="&#x222b;" horiz-adv-x="561" d="M0 -201q0 31 21.5 67t72.5 36q31 0 47.5 -8.5t26.5 -17.5t19.5 -16t27.5 -7q16 0 31.5 62t11.5 155q-2 57 -4 116.5t-4 134t-3 170t-1 222.5v295q0 123 2 216t8 168.5t16.5 135t26.5 114.5q6 23 21.5 49.5t38 49t50 38t60.5 15.5q59 0 93 -27t34 -84q0 -41 -29.5 -67.5 t-77.5 -26.5q-18 0 -33.5 8.5t-26.5 18.5t-21.5 18t-20.5 8q-20 0 -28.5 -17t-8.5 -32q-2 -29 4 -98.5t13.5 -163.5t14.5 -201.5t7 -211.5l-2 -443q-2 -242 -25.5 -387t-52.5 -217q-27 -68 -73 -120t-117 -52q-57 0 -88 31.5t-31 68.5z" />
<glyph unicode="&#x2248;" horiz-adv-x="1124" d="M129 289q100 145 240 145q23 0 43 -2t43 -10l247 -78q10 -2 22.5 -3t27.5 -1q14 0 35.5 4t45 15.5t46 31t41.5 47.5l61 -69q-39 -72 -103.5 -109t-125.5 -37q-41 0 -68 8l-246 80q-39 8 -69 13q-41 0 -69 -13.5t-47.5 -32t-31.5 -38t-18 -27.5zM129 555q100 145 240 145 q23 0 43 -2t43 -10l247 -78q10 -4 22.5 -4h27.5q14 0 35.5 4t45 15.5t46 31t41.5 48.5l61 -70q-39 -72 -103.5 -110t-125.5 -38q-33 0 -68 11l-246 80q-39 8 -69 12q-41 0 -69 -13.5t-47.5 -32t-31.5 -38t-18 -27.5z" />
<glyph unicode="&#x2260;" horiz-adv-x="1124" d="M174 264v113h305l62 168h-367v112h406l75 213h101l-74 -213h268v-112h-309l-61 -168h370v-113h-413l-86 -219h-101l86 219h-262z" />
<glyph unicode="&#x2264;" horiz-adv-x="1124" d="M131 541v114l801 357v-117l-658 -293l658 -266v-129zM133 0v113h801v-113h-801z" />
<glyph unicode="&#x2265;" horiz-adv-x="1124" d="M186 207v117l658 272l-658 287v129l801 -355v-114zM190 0v113h801v-113h-801z" />
<glyph unicode="&#x25ca;" horiz-adv-x="1011" d="M37 772l397 754h123l397 -754l-397 -772h-123zM160 772l336 -661l335 661l-335 643z" />
<glyph unicode="&#x25fc;" horiz-adv-x="942" d="M0 0v942h942v-942h-942z" />
<glyph unicode="&#xf8ff;" horiz-adv-x="1646" d="M266 571q0 176 71 256t206 80q57 0 91 -8t54.5 -18.5t34.5 -18.5t33 -8q25 0 33 20.5t7 53.5t-6.5 71.5t-5.5 73.5q-2 92 22.5 172t88.5 127q37 27 90 40t100.5 27.5t81 39t33.5 77.5h6q4 -12 10.5 -38.5t9.5 -63.5t2 -81t-14 -91q-12 -55 -44.5 -90t-74.5 -58.5t-87 -40 t-82 -33t-61.5 -36.5t-24.5 -55q0 -18 2 -40t8 -40.5t17.5 -29.5t31.5 -11q14 0 25.5 9t32 20.5t57.5 20.5t102 9q92 0 143.5 -31.5t78 -82t32.5 -113t6 -123.5q0 -127 -38 -233.5t-98 -182t-134 -117.5t-145 -42q-39 0 -57.5 5t-28 12t-16.5 12t-21 5q-16 0 -22.5 -5 t-18 -12t-33 -12t-66.5 -5q-39 0 -110.5 27.5t-143 95t-125 181t-53.5 285.5zM465 614q0 -37 18.5 -83t45 -92t57 -87.5t53.5 -70.5q-41 88 -47 142t3 93t23.5 69.5t14.5 71.5q0 29 -9.5 56.5t-52.5 27.5q-31 0 -51 -12t-32.5 -30.5t-17.5 -41t-5 -43.5zM819 1049 q29 53 54.5 83.5t52 52t56.5 38t67 43.5q55 41 97 87t46 99q-14 -35 -36.5 -60.5t-50.5 -47t-58.5 -41t-63.5 -41.5q-72 -49 -106.5 -98.5t-57.5 -114.5z" />
<glyph unicode="&#xfb01;" horiz-adv-x="1167" d="M53 0v63q53 0 84 9.5t41 48.5q4 12 6 55t4 104.5t2 136.5v149.5v144v120.5h-127v99h127v63q6 170 57.5 274.5t129.5 170.5q84 70 181 92t173 22q74 0 122 -14t78 -35.5t41 -46t11 -45.5q0 -41 -28.5 -69.5t-86.5 -28.5q-39 0 -67.5 20.5t-58 44t-62.5 44t-78 20.5 q-70 0 -119 -64q-41 -49 -59 -138t-23 -218v-92h261q96 0 160.5 7t105.5 17q47 10 76 25q-2 -84 -3 -174v-350v-172t2.5 -103t3.5 -53t5 -23q12 -29 37.5 -35t70.5 -6v-63q-43 0 -84 2q-35 0 -75.5 1t-73.5 1q-35 0 -73 -1t-73 -1q-39 -2 -77 -2v63q57 0 78.5 12.5 t31.5 35.5q4 12 7 32.5t4 58.5t2 94t1 140v82t-1 88t-3 78t-4 51q-6 57 -26.5 76.5t-94.5 19.5h-258v-282q0 -201 1 -308.5t12 -136.5q10 -29 44 -35t81 -6v-63q-47 0 -93 2q-39 0 -81.5 1t-75.5 1q-35 0 -76 -1t-76 -1q-41 -2 -84 -2z" />
<glyph unicode="&#xfb02;" horiz-adv-x="1163" d="M53 0v63q53 0 77 6.5t38 28.5q4 8 7 18.5t6 34t4 63.5t3 108q2 78 2 168v165v176h-127v99h125v74q0 180 57.5 287.5t136.5 166t159 76.5t127 18q55 0 94 -10t63 -22q29 -14 47 -33l129 82q-2 -121 -2 -252q-2 -113 -2 -252v-279q0 -332 1 -496.5t10 -185.5 q10 -25 41.5 -33t78.5 -8v-63q-4 0 -30.5 1t-63.5 1t-79 1t-76 1q-31 0 -68 -1t-69.5 -1t-59.5 -1t-35 -1v63q53 0 84 10.5t41 47.5q6 20 9 96t4 172t0 199.5t-1 181.5q0 205 -1 333t-3 142q-6 102 -42 157.5t-109 55.5q-47 0 -81 -13t-65 -46q-51 -53 -67.5 -163 t-16.5 -239v-67h226v-99h-224v-282q0 -201 1 -308.5t12 -136.5q10 -29 50 -35t87 -6v-63q-6 0 -35 1t-67.5 1t-82.5 1t-77 1t-72 -1t-73.5 -1t-60.5 -1t-30 -1z" />
</font>
</defs>
</svg>
