<?xml version="1.0" encoding="UTF-8"?> <!-- Generated by IcoMoon.io --> <svg xmlns="http://www.w3.org/2000/svg" width="32" height="32" viewBox="0 0 32 32"><title>candle</title><path d="M8.053 26.924c0.275 0 0.498-0.223 0.498-0.498v0-7.76c0.035-0.599 0.382-1.109 0.88-1.373l0.009-0.004 6.56-2.684 6.569 2.72c0.505 0.266 0.852 0.773 0.889 1.364l0 0.005v7.724c0 0.275 0.223 0.498 0.498 0.498s0.498-0.223 0.498-0.498v-7.751c-0.047-1.013-0.652-1.874-1.513-2.286l-0.016-0.007-6.453-2.667v-1.156c1.564-0.171 2.881-1.094 3.597-2.394l0.012-0.024c0.037-0.068 0.059-0.149 0.059-0.236 0-0.278-0.225-0.503-0.503-0.503-0.192 0-0.358 0.107-0.443 0.265l-0.001 0.003c-0.554 1.012-1.543 1.725-2.709 1.891l-0.020 0.002v-1.467c0-0.275-0.223-0.498-0.498-0.498s-0.498 0.223-0.498 0.498v0 1.467c-1.189-0.165-2.182-0.88-2.728-1.874l-0.010-0.019c-0.086-0.16-0.253-0.267-0.444-0.267-0.278 0-0.503 0.225-0.503 0.503 0 0.086 0.022 0.167 0.060 0.238l-0.001-0.003c0.728 1.324 2.045 2.246 3.588 2.416l0.021 0.002v1.182l-6.382 2.667c-0.859 0.422-1.451 1.27-1.502 2.26l-0 0.006v7.724c-0.001 0.011-0.001 0.023-0.001 0.036 0 0.272 0.219 0.493 0.49 0.498h0zM17.982 18.204h-7.938c-0.275 0-0.498 0.223-0.498 0.498s0.223 0.498 0.498 0.498h7.947c0.275 0 0.498-0.223 0.498-0.498s-0.223-0.498-0.498-0.498v0zM21.956 18.204h-1.982c-0.275 0-0.498 0.223-0.498 0.498s0.223 0.498 0.498 0.498h1.982c0.275 0 0.498-0.223 0.498-0.498s-0.223-0.498-0.498-0.498v0zM25.929 7.413h-5.333c-0.090-0.872-0.41-1.655-0.898-2.305l0.009 0.012-3.342-4.444c-0.092-0.119-0.235-0.196-0.396-0.196s-0.304 0.076-0.395 0.194l-0.001 0.001-3.351 4.444c-0.477 0.636-0.797 1.416-0.887 2.264l-0.002 0.020h-5.262c-0.275 0-0.498 0.223-0.498 0.498v21.173c0.005 1.368 1.112 2.475 2.48 2.48h15.894c1.368-0.005 2.475-1.112 2.48-2.48v-21.165c0-0.275-0.223-0.498-0.498-0.498v0zM13.013 5.716l2.987-3.938 2.951 3.947c0.358 0.474 0.605 1.051 0.691 1.679l0.002 0.019h-7.324c0.087-0.65 0.334-1.23 0.7-1.716l-0.007 0.009zM25.458 8.382v19.529h-18.889v-19.502zM23.947 30.56h-15.893c-0.825 0-1.493-0.669-1.493-1.493v0-0.169h18.871v0.169c0 0 0 0 0 0 0 0.822-0.664 1.488-1.484 1.493h-0z"></path></svg> 