<?xml version="1.0" encoding="UTF-8"?> <!-- Generated by IcoMoon.io --> <svg xmlns="http://www.w3.org/2000/svg" width="32" height="32" viewBox="0 0 32 32"><title>diffuser</title><path d="M19.218 14.222h-0.791c0-0.107 0-0.178 0-0.258 0-0.889 0-1.778 0-2.667 0.001-0.022 0.002-0.048 0.002-0.074 0-0.609-0.45-1.113-1.036-1.197l-0.006-0.001 2.382-8.827c0.006-0.024 0.010-0.052 0.010-0.081 0-0.158-0.109-0.291-0.256-0.328l-0.002-0c-0.026-0.007-0.056-0.011-0.087-0.011-0.159 0-0.294 0.104-0.339 0.248l-0.001 0.003-2.436 8.889h-0.302l-0.071-9.138c-0.005-0.188-0.158-0.338-0.347-0.338-0 0-0 0-0 0v0c-0 0-0 0-0 0-0.188 0-0.342 0.15-0.347 0.337v0l0.062 9.138h-0.231l-2.498-8.942c-0.046-0.146-0.181-0.251-0.34-0.251-0.031 0-0.061 0.004-0.089 0.011l0.002-0.001c-0.151 0.036-0.261 0.17-0.261 0.329 0 0.032 0.004 0.062 0.012 0.091l-0.001-0.002 2.462 8.818c-0.626 0.045-1.117 0.564-1.117 1.197 0 0.042 0.002 0.083 0.006 0.124l-0-0.005c0 0.96 0 1.911 0 2.924h-0.729c-0.809 0-1.218 0.391-1.227 1.173s0 1.778 0 2.667q0 6.222 0 12.373c-0.001 0.017-0.002 0.037-0.002 0.057 0 0.574 0.466 1.040 1.040 1.040 0.032 0 0.063-0.001 0.094-0.004l-0.004 0h6.48c0.019 0.001 0.041 0.002 0.063 0.002 0.574 0 1.040-0.466 1.040-1.040 0-0.010-0-0.020-0-0.030l0 0.001q0-7.591 0-15.191c-0.003-0.577-0.471-1.044-1.049-1.044-0.031 0-0.062 0.001-0.093 0.004l0.004-0zM15.36 10.827h1.689c0.258 0 0.427 0.098 0.436 0.347 0 0.533 0 1.067 0 1.627h-2.951v-1.058c0.001-0.021 0.002-0.046 0.002-0.071s-0.001-0.050-0.002-0.075l0 0.003c-0.089-0.862 0.124-0.8 0.827-0.791zM17.467 13.724v0.427h-2.942v-0.427zM19.636 30.302c0 0.309-0.251 0.56-0.56 0.56v0h-6.151c-0.309 0-0.56-0.251-0.56-0.56v0-14.684c0-0.309 0.251-0.56 0.56-0.56v0h6.151c0.309 0 0.56 0.251 0.56 0.56v0zM17.502 29.449h0.889v-13.147h-0.889z"></path></svg> 