<?xml version="1.0" encoding="UTF-8"?> <!-- Generated by IcoMoon.io --> <svg xmlns="http://www.w3.org/2000/svg" width="32" height="32" viewBox="0 0 32 32"><title>essential</title><path d="M18.471 16.142c-0.258-0.231-0.56-0.382-0.684-0.622-0.116-0.16-0.186-0.36-0.186-0.577 0-0.466 0.323-0.856 0.757-0.96l0.007-0.001c0.498-0.169 0.489-0.178 0.373-0.702-0.060-0.238-0.116-0.54-0.156-0.847l-0.004-0.042c-0.016-0.077-0.025-0.166-0.025-0.257 0-0.621 0.421-1.143 0.993-1.296l0.009-0.002c0.48-0.123 1.040-0.209 1.614-0.239l0.021-0.001c0.279-0.019 0.605-0.030 0.933-0.030s0.654 0.011 0.977 0.032l-0.044-0.002c0.031-0.002 0.067-0.004 0.104-0.004 0.849 0 1.538 0.688 1.538 1.538 0 0.048-0.002 0.096-0.007 0.143l0-0.006c0 0.507-0.089 1.013-0.133 1.538 0.72 0.151 1.289 0.471 1.316 1.244 0 0.489 0.071 1.076-0.667 1.351 0.516 0.489 0.987 0.951 1.467 1.387 1.062 0.906 1.834 2.123 2.177 3.509l0.010 0.046c0.192 0.764 0.325 1.656 0.372 2.571l0.001 0.034c0.053 1.493 0 2.996 0 4.444 0 0.014 0 0.030 0 0.046 0 1.439-1.023 2.638-2.381 2.911l-0.019 0.003c-0.677 0.169-1.454 0.266-2.254 0.266-0.324 0-0.644-0.016-0.96-0.047l0.040 0.003c-0.596 0-1.191 0-1.778-0.044-1.431 0-2.871 0-4.302-0.062-0.457-0.034-0.88-0.142-1.27-0.312l0.025 0.010c-1.133-0.398-1.931-1.459-1.931-2.707 0-0.039 0.001-0.078 0.002-0.117l-0 0.006c0-1.147-0.044-2.293-0.062-3.44-0-0.040-0.001-0.086-0.001-0.133 0-1.131 0.127-2.232 0.366-3.29l-0.019 0.099c0.296-1.438 1.024-2.672 2.039-3.595l0.005-0.005q0.684-0.622 1.333-1.28c0.14-0.165 0.272-0.348 0.389-0.541l0.011-0.019zM19.244 16.231c-0.134 0.483-0.395 0.893-0.744 1.207l-0.002 0.002c-0.436 0.453-0.889 0.889-1.316 1.333-1.102 1.179-1.778 2.768-1.778 4.515 0 0.016 0 0.032 0 0.047v-0.002c-0.071 1.698 0 3.396 0 5.102-0 0.014-0.001 0.029-0.001 0.045 0 0.724 0.448 1.343 1.082 1.595l0.012 0.004c0.454 0.216 0.983 0.362 1.539 0.408l0.016 0.001c2.231 0.071 4.444 0.098 6.702 0.107 0.637-0.011 1.247-0.101 1.829-0.261l-0.052 0.012c1.015-0.116 1.796-0.969 1.796-2.006 0-0.095-0.007-0.189-0.019-0.281l0.001 0.011c0-0.738 0.044-1.476 0-2.213 0-1.111 0-2.24-0.116-3.342-0.139-1.568-0.841-2.95-1.9-3.962l-0.002-0.002c-0.418-0.4-0.836-0.818-1.218-1.253-0.231-0.267-0.373-0.604-0.578-0.889-0.073-0.090-0.18-0.149-0.301-0.16l-0.002-0c-0.649 0-1.289 0-1.938 0zM21.547 13.804v0c0.56 0 1.129-0.071 1.689-0.089 0.24 0 0.347-0.080 0.347-0.338 0.018-0.344 0.056-0.665 0.114-0.979l-0.007 0.045c0.098-0.649-0.107-0.889-0.756-0.889-0.889 0-1.778 0-2.667 0-0.11 0.007-0.213 0.026-0.312 0.056l0.010-0.002c-0.346 0.027-0.617 0.314-0.617 0.665 0 0.080 0.014 0.157 0.040 0.229l-0.001-0.005c0.045 0.317 0.077 0.695 0.089 1.078l0 0.016c0 0.187 0.053 0.258 0.24 0.258zM24.889 15.307c0-0.356-0.080-0.516-0.427-0.542s-0.738 0-1.102 0h-3.707c-0.4 0-0.8 0-1.191 0-0.122 0.027-0.219 0.11-0.266 0.22l-0.001 0.002c-0.053 0.169 0.062 0.293 0.24 0.302s0.258 0 0.391 0h4.444zM15.618 9.973c-0.889 0.489-1.778 0.978-2.667 1.449l-5.342 2.916c-0.342 0.192-0.633 0.383-0.909 0.592l0.020-0.014c-0.307 0.203-0.507 0.547-0.507 0.938 0 0.052 0.003 0.103 0.010 0.153l-0.001-0.006c0.089 0.889-0.791 1.298-1.627 0.889-0.102-0.068-0.179-0.166-0.221-0.28l-0.001-0.004c-0.186-0.375-0.295-0.816-0.295-1.283 0-0.992 0.492-1.869 1.246-2.4l0.009-0.006c2.747-1.902 5.511-3.778 8.267-5.662l0.133-0.098c-0.16-0.196-0.311-0.391-0.453-0.587-0.28-0.299-0.452-0.703-0.452-1.147 0-0.591 0.305-1.11 0.765-1.41l0.007-0.004c0.591-0.449 1.262-0.893 1.961-1.293l0.093-0.049c0.315-0.222 0.706-0.355 1.129-0.355s0.814 0.133 1.135 0.359l-0.006-0.004c0.071 0.042 0.155 0.067 0.246 0.067 0.023 0 0.045-0.002 0.067-0.005l-0.003 0c0.847-0.052 1.603-0.405 2.17-0.952l-0.001 0.001c0.31-0.322 0.648-0.614 1.009-0.874l0.022-0.015c0.344-0.25 0.774-0.399 1.24-0.399s0.896 0.15 1.246 0.404l-0.006-0.004c0.682 0.408 1.132 1.143 1.132 1.982 0 0.148-0.014 0.292-0.040 0.432l0.002-0.014c-0.125 0.493-0.433 0.899-0.845 1.151l-0.008 0.005c-0.436 0.302-0.889 0.524-1.369 0.818s-0.996 0.738-1.44 1.12c-0.049 0.063-0.078 0.142-0.078 0.229 0 0.039 0.006 0.076 0.017 0.111l-0.001-0.003c0.118 0.252 0.187 0.548 0.187 0.859 0 0.635-0.285 1.203-0.735 1.582l-0.003 0.003c-0.607 0.541-1.278 1.037-1.993 1.468l-0.060 0.034c-0.333 0.251-0.753 0.402-1.209 0.402-0.746 0-1.397-0.404-1.746-1.006l-0.005-0.010zM20.498 7.653c-0.041-0.233-0.1-0.439-0.177-0.636l0.008 0.022c-0.216-0.441-0.435-0.814-0.678-1.169l0.020 0.031c-0.489-0.676-1.004-1.324-1.511-1.973-0.292-0.405-0.763-0.666-1.294-0.666-0.345 0-0.663 0.11-0.924 0.296l0.005-0.003c-0.578 0.347-1.138 0.729-1.698 1.111s-0.693 0.889-0.213 1.413c0.887 0.997 1.68 2.112 2.343 3.31l0.048 0.094c0.172 0.405 0.566 0.684 1.026 0.684 0.246 0 0.473-0.080 0.657-0.215l-0.003 0.002c0.786-0.398 1.452-0.917 2.003-1.54l0.006-0.007c0.151-0.215 0.28-0.462 0.375-0.725l0.007-0.022zM14.347 7.742c-0.649 0.471-1.236 0.889-1.84 1.342q-3.307 2.302-6.622 4.587c-0.509 0.35-0.838 0.93-0.838 1.586 0 0.099 0.007 0.196 0.022 0.291l-0.001-0.011c0.037 0.254 0.089 0.479 0.159 0.696l-0.008-0.030h0.116c0.043-0.082 0.074-0.178 0.088-0.28l0.001-0.005c-0.001-0.022-0.001-0.047-0.001-0.072 0-0.628 0.315-1.183 0.795-1.515l0.006-0.004c0.517-0.411 1.097-0.816 1.702-1.184l0.075-0.043c2.213-1.289 4.444-2.542 6.667-3.813l0.453-0.284zM18.791 3.493l1.911 2.151c0.563-0.637 1.262-1.142 2.052-1.471l0.037-0.014c0.313-0.144 0.582-0.319 0.822-0.528l-0.004 0.003c0.194-0.187 0.332-0.43 0.39-0.702l0.002-0.009c0.004-0.039 0.007-0.084 0.007-0.13 0-0.495-0.281-0.925-0.693-1.138l-0.007-0.003c-0.183-0.137-0.413-0.219-0.662-0.219s-0.48 0.082-0.665 0.221l0.003-0.002c-0.332 0.23-0.623 0.475-0.888 0.746l-0.001 0.001c-0.574 0.628-1.376 1.039-2.274 1.102l-0.011 0.001zM8.107 22.649c0.003 0.051 0.005 0.112 0.005 0.172 0 1.079-0.519 2.038-1.32 2.639l-0.009 0.006c-0.428 0.319-0.968 0.511-1.552 0.511-0.429 0-0.834-0.103-1.191-0.287l0.015 0.007c-0.828-0.398-1.389-1.23-1.389-2.194 0-0.035 0.001-0.070 0.002-0.105l-0 0.005c-0.002-0.047-0.003-0.101-0.003-0.156 0-0.628 0.132-1.225 0.369-1.766l-0.011 0.028q0.542-1.253 1.156-2.48c0.249-0.445 0.496-0.823 0.766-1.183l-0.019 0.027c0.091-0.146 0.25-0.241 0.431-0.241 0.154 0 0.293 0.069 0.386 0.178l0.001 0.001c0.248 0.247 0.473 0.518 0.672 0.807l0.012 0.019c0.698 0.957 1.239 2.079 1.558 3.291l0.016 0.069c0.071 0.222 0.080 0.409 0.107 0.649zM5.244 18.924h-0.133c-0.409 1.156-0.836 2.302-1.227 3.467-0.075 0.255-0.119 0.548-0.119 0.852 0 0.051 0.001 0.101 0.004 0.151l-0-0.007c-0 0.007-0 0.016-0 0.025 0 0.62 0.402 1.146 0.959 1.332l0.010 0.003c0.123 0.030 0.264 0.048 0.409 0.048 0.512 0 0.973-0.216 1.297-0.562l0.001-0.001c0.301-0.374 0.483-0.854 0.483-1.377 0-0.082-0.004-0.162-0.013-0.241l0.001 0.010c-0.274-1.417-0.86-2.665-1.685-3.716l0.014 0.019z"></path></svg> 