<?xml version="1.0" encoding="UTF-8"?> <!-- Generated by IcoMoon.io --> <svg xmlns="http://www.w3.org/2000/svg" width="32" height="32" viewBox="0 0 32 32"><title>etc-01</title><path d="M4.596 11.849c-0.003 0-0.006 0-0.009 0-2.293 0-4.151 1.859-4.151 4.151s1.859 4.151 4.151 4.151c2.293 0 4.151-1.858 4.151-4.151v0c0-2.293-1.859-4.151-4.151-4.151v0zM4.596 19.111c-1.718 0-3.111-1.393-3.111-3.111s1.393-3.111 3.111-3.111c1.718 0 3.111 1.393 3.111 3.111v0c0 1.718-1.393 3.111-3.111 3.111v0zM27.404 11.849c-2.293 0-4.151 1.859-4.151 4.151s1.859 4.151 4.151 4.151c2.293 0 4.151-1.859 4.151-4.151v0c0-2.293-1.859-4.151-4.151-4.151v0zM27.404 19.111c-1.718 0-3.111-1.393-3.111-3.111s1.393-3.111 3.111-3.111c1.718 0 3.111 1.393 3.111 3.111v0c0 1.718-1.393 3.111-3.111 3.111v0zM16 11.849c-2.293 0-4.151 1.859-4.151 4.151s1.859 4.151 4.151 4.151c2.293 0 4.151-1.859 4.151-4.151v0c0-2.293-1.859-4.151-4.151-4.151v0zM16 19.111c-1.718 0-3.111-1.393-3.111-3.111s1.393-3.111 3.111-3.111c1.718 0 3.111 1.393 3.111 3.111v0c0 1.718-1.393 3.111-3.111 3.111v0z"></path></svg> 