<?xml version="1.0" encoding="UTF-8"?> <!-- Generated by IcoMoon.io --> <svg xmlns="http://www.w3.org/2000/svg" width="32" height="32" viewBox="0 0 32 32"><title>sachet</title><path d="M27.342 27.76c-0.136-0.837-0.22-1.808-0.231-2.797l-0-0.012c-0.196-4.88-0.542-14.569-8.267-16.373 0.070-0.096 0.112-0.216 0.116-0.346v-0.001c-0.004-0.325-0.256-0.59-0.576-0.613l-0.002-0c1.503-1.552 2.555-3.549 2.942-5.774l0.009-0.066c0.018-0.066 0.028-0.142 0.028-0.22 0-0.226-0.085-0.433-0.224-0.59l0.001 0.001c-0.336-0.283-0.773-0.455-1.251-0.455-0.117 0-0.232 0.010-0.343 0.030l0.012-0.002c-1.149 0.052-2.22 0.163-3.272 0.333l0.161-0.021c-1.109 0.188-2.41 0.313-3.734 0.346l-0.035 0.001c-0.063 0.004-0.138 0.006-0.213 0.006-0.39 0-0.767-0.057-1.122-0.164l0.028 0.007c-0.060-0.025-0.13-0.039-0.203-0.039-0.129 0-0.247 0.045-0.34 0.12l0.001-0.001c-0.155 0.115-0.257 0.294-0.267 0.496l-0 0.002c0.18 2.374 1.235 4.472 2.84 5.996l0.004 0.004c-0.262 0.068-0.454 0.3-0.462 0.577l-0 0.001c-0.001 0.008-0.001 0.018-0.001 0.028 0 0.139 0.058 0.265 0.152 0.354l0 0c-7.653 1.92-8 11.493-8.187 16.373 0.001 0.054 0.001 0.118 0.001 0.182 0 0.928-0.085 1.837-0.246 2.719l0.014-0.092c-0.756 0.128-1.324 0.778-1.324 1.561 0 0.001 0 0.002 0 0.004v-0 0.498c0.005 0.891 0.726 1.613 1.617 1.618h22.063c0.891-0.005 1.613-0.726 1.618-1.617v-0.498c0.001-0.016 0.001-0.034 0.001-0.053 0-0.768-0.563-1.405-1.299-1.519l-0.009-0.001zM11.92 2.391c0.18 0.005 0.392 0.008 0.605 0.008 1.457 0 2.884-0.129 4.271-0.376l-0.146 0.022c0.859-0.135 1.881-0.231 2.918-0.266l0.042-0.001c0.075-0.011 0.161-0.018 0.249-0.018s0.174 0.006 0.259 0.019l-0.010-0.001c-0.729 3.271-2.533 5.271-3.733 5.804h-0.889c-1.816-1.16-3.114-2.993-3.547-5.14l-0.009-0.051zM27.458 29.876c0 0.211-0.171 0.382-0.382 0.382v0h-22.071c-0.211 0-0.382-0.171-0.382-0.382v0-0.498c0-0.211 0.171-0.382 0.382-0.382v0c1.076 0 1.111-1.342 1.191-4 0.196-5.44 0.578-15.529 9.804-15.529s9.689 10.089 9.876 15.529c0.116 2.667 0.151 4 1.191 4 0.211 0 0.382 0.171 0.382 0.382v0z"></path></svg> 