<?xml version="1.0" encoding="UTF-8"?> <!-- Generated by IcoMoon.io --> <svg xmlns="http://www.w3.org/2000/svg" width="32" height="32" viewBox="0 0 32 32"><title>stick</title><path d="M2.889 4.444c-0.146 0.144-0.237 0.343-0.237 0.564s0.091 0.421 0.237 0.564l0 0 19.876 19.92c0.143 0.143 0.341 0.231 0.559 0.231 0 0 0.001 0 0.001 0h-0c0.031 0.004 0.066 0.007 0.102 0.007s0.072-0.003 0.106-0.007l-0.004 0 1.778 1.778h1.129l-2.293-2.293c0.017-0.062 0.027-0.132 0.027-0.205 0-0.218-0.088-0.416-0.232-0.559v0l-19.929-20c-0.144-0.141-0.342-0.229-0.56-0.229s-0.416 0.087-0.56 0.229l0-0zM8.56 1.627c-0.196 0-0.391-0.044-0.587-0.053-0.033-0.002-0.073-0.003-0.112-0.003-0.673 0-1.283 0.269-1.729 0.705l0-0c-0.178 0.175-0.332 0.373-0.455 0.591l-0.007 0.013c-0.091 0.161-0.17 0.346-0.227 0.542l-0.005 0.018c-0.046 0.127-0.083 0.277-0.105 0.432l-0.002 0.013c-0.001 0.025-0.002 0.055-0.002 0.084s0.001 0.059 0.002 0.089l-0-0.004c0 0.044 0 0.089 0 0.124-0.001 0.016-0.001 0.035-0.001 0.053s0.001 0.037 0.002 0.056l-0-0.003 0.071-0.071c0.382-0.418 0.851-0.75 1.379-0.968l0.026-0.009c0.231-0.071 0.497-0.111 0.772-0.111 0.057 0 0.113 0.002 0.169 0.005l-0.008-0c0.453 0.063 0.994 0.108 1.543 0.124l0.022 0.001c1.064-0.066 1.953-0.747 2.323-1.689l0.006-0.018c0.118-0.281 0.187-0.608 0.187-0.95 0-0.016-0-0.032-0-0.048l0 0.002c0-0.071 0-0.107 0-0.107s-0.089 0.080-0.098 0.089l-0.204 0.169c-0.331 0.304-0.708 0.565-1.118 0.77l-0.028 0.013c-0.297 0.122-0.642 0.194-1.004 0.196h-0.001c-0.007 0-0.014 0-0.022 0-0.271 0-0.538-0.019-0.799-0.057l0.030 0.004zM25.476 30.587h3.858c0.491 0 0.889-0.398 0.889-0.889v0-0.613c0-0.491-0.398-0.889-0.889-0.889v0h-26.667c-0.491 0-0.889 0.398-0.889 0.889v0 0.613c0 0.491 0.398 0.889 0.889 0.889v0h3.858c0 0.535 0.434 0.969 0.969 0.969s0.969-0.434 0.969-0.969v0h15.111c0 0.535 0.434 0.969 0.969 0.969s0.969-0.434 0.969-0.969v0z"></path></svg> 