<?xml version="1.0" encoding="UTF-8"?> <svg xmlns="http://www.w3.org/2000/svg" viewBox="0 0 300 300"><defs><style>.cls-1{fill:#231f20;}</style></defs><title>aromatic oil</title><g id="Layer_1" data-name="Layer 1"><rect class="cls-1" x="137.38" y="122.12" width="41.3" height="38.95" rx="0.4"></rect><path class="cls-1" d="M93.77,169.05c0,11.82-7.94,13.54-11.67,13.54s-11.67-1.72-11.67-13.54S82.1,139.8,82.1,139.8,93.77,157.24,93.77,169.05Z"></path><path class="cls-1" d="M82.47,134.45l-4.78-5.57,9.59-17.23,55.39-53.72,13.78,13.13-53.7,54.12Zm-1-6,1.81,2.11,17.85-8.17,50.77-51.3-9.25-8.82-53,51.44Z"></path><path class="cls-1" d="M125.59,46.47l41.77,41.78L188.57,68.6s-3.43-19.64.31-26.19,19.33-21.2,19.33-21.2,4.52-8.88-1.87-15.27-14.66,0-14.66,0-16.52,18.7-22.44,20-24.64-.62-24.64-.62Z"></path><path class="cls-1" d="M167.33,90.41,123.44,46.53,144,23.63l.79.08c.18,0,18.54,1.84,24.15.65,4-.83,15.35-12.37,21.6-19.46C194,2.21,201.62-1,207.44,4.83s3.9,13.67,2.16,17.09l-.32.43c-.16.14-15.46,14.57-19,20.84-2.84,5-1.06,19.84-.14,25.14l.15.84Zm-39.59-44,39.67,39.67,19.48-18c-.68-4.21-2.95-20.12.63-26.39s17.42-19.49,19.4-21.36c.62-1.36,3.35-8.21-1.69-13.24-5.34-5.33-12.29-.09-12.59.13-1.51,1.76-16.84,18.94-23.08,20.25-5.45,1.15-20.63-.18-24.32-.53Z"></path><polygon class="cls-1" points="124.34 101.65 99.71 101.65 88.38 112.78 79.6 128.68 82.89 132.52 101.1 124.29 124.34 101.65"></polygon><rect class="cls-1" x="135.18" y="138.36" width="45.71" height="7.07" rx="0.78"></rect><rect class="cls-1" x="135.18" y="128.36" width="45.71" height="7.07" rx="0.78"></rect><path class="cls-1" d="M179,149.94H137.11c-1.47,0-20.5,12.63-20.5,24.35V294.85a2.7,2.7,0,0,0,2.69,2.69h77.46a2.7,2.7,0,0,0,2.69-2.69V174.29C199.45,162.57,180.43,149.94,179,149.94ZM159,266.4c-17.91.41-32.84-17.55-33.35-40.11s13.58-41.18,31.49-41.59,32.84,17.55,33.35,40.11S176.87,266,159,266.4Z"></path><path class="cls-1" d="M185.3,240.69s-18.87-15.8-21.13-17.05S158.09,217.29,153,222s-22.24,18.83-22.24,18.83,9.06,23.1,27.27,22.65C178.55,262.93,185.3,240.69,185.3,240.69Z"></path></g></svg> 